SplineFontDB: 3.0
FontName: FdSymbolD-Regular
FullName: FdSymbolD-Regular
FamilyName: FdSymbolD
Weight: Regular
Copyright: Copyright (c) 2012, Michael Ummels. This Font Software is licensed under the SIL Open Font License, Version 1.1.
Version: 1.008
ItalicAngle: 0
UnderlinePosition: -100
UnderlineWidth: 50
Ascent: 800
Descent: 200
InvalidEm: 0
LayerCount: 2
Layer: 0 0 "Back" 1
Layer: 1 0 "Fore" 0
UniqueID: 4137273
OS2Version: 0
OS2_WeightWidthSlopeOnly: 0
OS2_UseTypoMetrics: 0
CreationTime: 1431875084
ModificationTime: 1431875084
OS2TypoAscent: 0
OS2TypoAOffset: 1
OS2TypoDescent: 0
OS2TypoDOffset: 1
OS2TypoLinegap: 0
OS2WinAscent: 0
OS2WinAOffset: 1
OS2WinDescent: 0
OS2WinDOffset: 1
HheadAscent: 0
HheadAOffset: 1
HheadDescent: 0
HheadDOffset: 1
OS2Vendor: 'PfEd'
DEI: 91125
Encoding: Custom
UnicodeInterp: none
NameList: AGL For New Fonts
DisplaySize: -48
AntiAlias: 1
FitToEm: 0
BeginPrivate: 2
BlueValues 31 [-10 0 546 556 707 717 754 764]
OtherBlues 11 [-230 -220]
EndPrivate
BeginChars: 256 232

StartChar: uni219B
Encoding: 0 8603 0
Width: 930
Flags: W
HStem: 1 21G<269.217 331.257> 238 74<90 339 437 714> 529 20G<444.743 506.783>
LayerCount: 2
Back
Fore
SplineSet
452 549 m 1
 515 526 l 1
 437 312 l 1
 714 312 l 1
 623 403 l 1
 675 455 l 1
 855 275 l 1
 675 95 l 1
 623 147 l 1
 714 238 l 1
 410 238 l 1
 324 1 l 1
 261 24 l 1
 339 238 l 1
 90 238 l 1
 90 312 l 1
 366 312 l 1
 452 549 l 1
EndSplineSet
EndChar

StartChar: uni21910338
Encoding: 1 -1 1
Width: 716
Flags: W
VStem: 321 74<-100 149 247 524>
LayerCount: 2
Back
Fore
SplineSet
107 71 m 1
 84 134 l 1
 321 220 l 1
 321 524 l 1
 230 433 l 1
 178 485 l 1
 358 665 l 1
 538 485 l 1
 486 433 l 1
 395 524 l 1
 395 247 l 1
 609 325 l 1
 632 262 l 1
 395 176 l 1
 395 -100 l 1
 321 -100 l 1
 321 149 l 1
 107 71 l 1
EndSplineSet
EndChar

StartChar: uni219A
Encoding: 2 8602 2
Width: 930
Flags: W
HStem: 1 21G<423.217 485.257> 238 74<216 493 591 840> 529 20G<598.743 660.783>
LayerCount: 2
Back
Fore
SplineSet
478 1 m 1
 415 24 l 1
 493 238 l 1
 216 238 l 1
 307 147 l 1
 255 95 l 1
 75 275 l 1
 255 455 l 1
 307 403 l 1
 216 312 l 1
 520 312 l 1
 606 549 l 1
 669 526 l 1
 591 312 l 1
 840 312 l 1
 840 238 l 1
 564 238 l 1
 478 1 l 1
EndSplineSet
EndChar

StartChar: uni21930338
Encoding: 3 -1 3
Width: 716
Flags: W
VStem: 321 74<26 303 401 650>
LayerCount: 2
Back
Fore
SplineSet
609 479 m 1
 632 416 l 1
 395 330 l 1
 395 26 l 1
 486 117 l 1
 538 65 l 1
 358 -115 l 1
 178 65 l 1
 230 117 l 1
 321 26 l 1
 321 303 l 1
 107 225 l 1
 84 288 l 1
 321 374 l 1
 321 650 l 1
 395 650 l 1
 395 401 l 1
 609 479 l 1
EndSplineSet
EndChar

StartChar: uni21970338
Encoding: 4 -1 4
Width: 1089
Flags: W
HStem: 477 74<566 695>
VStem: 747 74<296 425>
LayerCount: 2
Back
Fore
SplineSet
342 459 m 1
 402 488 l 1
 499 281 l 1
 695 477 l 1
 566 477 l 1
 566 551 l 1
 821 551 l 1
 821 296 l 1
 747 296 l 1
 747 425 l 1
 532 210 l 1
 638 -18 l 1
 578 -46 l 1
 482 160 l 1
 306 -16 l 1
 253 36 l 1
 448 231 l 1
 342 459 l 1
EndSplineSet
EndChar

StartChar: uni21960338
Encoding: 5 -1 5
Width: 1089
Flags: W
HStem: 477 74<395 523>
VStem: 269 74<296 425>
LayerCount: 2
Back
Fore
SplineSet
511 -46 m 1
 451 -18 l 1
 558 210 l 1
 343 425 l 1
 343 296 l 1
 269 296 l 1
 269 551 l 1
 523 551 l 1
 523 477 l 1
 395 477 l 1
 591 281 l 1
 687 488 l 1
 747 459 l 1
 641 231 l 1
 836 36 l 1
 784 -16 l 1
 608 160 l 1
 511 -46 l 1
EndSplineSet
EndChar

StartChar: uni21990338
Encoding: 6 -1 6
Width: 1089
Flags: W
HStem: -1 74<395 523>
VStem: 269 74<125 254>
LayerCount: 2
Back
Fore
SplineSet
747 91 m 1
 687 62 l 1
 591 269 l 1
 395 73 l 1
 523 73 l 1
 523 -1 l 1
 269 -1 l 1
 269 254 l 1
 343 254 l 1
 343 125 l 1
 558 340 l 1
 451 568 l 1
 511 596 l 1
 608 390 l 1
 784 566 l 1
 836 514 l 1
 641 319 l 1
 747 91 l 1
EndSplineSet
EndChar

StartChar: uni21980338
Encoding: 7 -1 7
Width: 1089
Flags: W
HStem: -1 74<566 695>
VStem: 747 74<125 254>
LayerCount: 2
Back
Fore
SplineSet
578 596 m 1
 638 568 l 1
 532 340 l 1
 747 125 l 1
 747 254 l 1
 821 254 l 1
 821 -1 l 1
 566 -1 l 1
 566 73 l 1
 695 73 l 1
 499 269 l 1
 402 62 l 1
 342 91 l 1
 448 319 l 1
 253 514 l 1
 306 566 l 1
 482 390 l 1
 578 596 l 1
EndSplineSet
EndChar

StartChar: uni21CF
Encoding: 8 8655 8
Width: 1080
Flags: W
HStem: 142 74<90 303 400 768> 334 74<90 372 469 768>
LayerCount: 2
Back
Fore
SplineSet
842 334 m 1
 442 334 l 1
 400 216 l 1
 842 216 l 1
 901 275 l 1
 842 334 l 1
473 610 m 1
 535 588 l 1
 469 408 l 1
 768 408 l 1
 727 449 l 1
 779 501 l 1
 1005 275 l 1
 779 49 l 1
 727 101 l 1
 768 142 l 1
 373 142 l 1
 299 -60 l 1
 237 -38 l 1
 303 142 l 1
 90 142 l 1
 90 216 l 1
 330 216 l 1
 372 334 l 1
 90 334 l 1
 90 408 l 1
 399 408 l 1
 473 610 l 1
EndSplineSet
EndChar

StartChar: uni21D10338
Encoding: 9 -1 9
Width: 839
Flags: W
VStem: 286 74<-175 37 135 502> 479 74<-175 107 205 503>
LayerCount: 2
Back
Fore
SplineSet
360 576 m 1
 360 135 l 1
 479 178 l 1
 479 577 l 1
 420 636 l 1
 360 576 l 1
107 -28 m 1
 84 34 l 1
 286 108 l 1
 286 502 l 1
 246 462 l 1
 193 514 l 1
 420 740 l 1
 646 514 l 1
 594 462 l 1
 553 503 l 1
 553 205 l 1
 732 270 l 1
 755 208 l 1
 553 134 l 1
 553 -175 l 1
 479 -175 l 1
 479 107 l 1
 360 64 l 1
 360 -175 l 1
 286 -175 l 1
 286 37 l 1
 107 -28 l 1
EndSplineSet
EndChar

StartChar: uni21CD
Encoding: 10 8653 10
Width: 1080
Flags: W
HStem: 142 74<312 611 708 990> 334 74<312 680 777 990>
LayerCount: 2
Back
Fore
SplineSet
238 216 m 1
 638 216 l 1
 680 334 l 1
 238 334 l 1
 179 275 l 1
 238 216 l 1
607 -60 m 1
 545 -38 l 1
 611 142 l 1
 312 142 l 1
 353 101 l 1
 301 49 l 1
 75 275 l 1
 301 501 l 1
 353 449 l 1
 312 408 l 1
 707 408 l 1
 781 610 l 1
 843 588 l 1
 777 408 l 1
 990 408 l 1
 990 334 l 1
 750 334 l 1
 708 216 l 1
 990 216 l 1
 990 142 l 1
 681 142 l 1
 607 -60 l 1
EndSplineSet
EndChar

StartChar: uni21D30338
Encoding: 11 -1 11
Width: 839
Flags: W
VStem: 286 74<48 345 443 725> 479 74<47 415 513 725>
LayerCount: 2
Back
Fore
SplineSet
479 -27 m 1
 479 415 l 1
 360 372 l 1
 360 -26 l 1
 420 -86 l 1
 479 -27 l 1
732 578 m 1
 755 516 l 1
 553 442 l 1
 553 47 l 1
 594 88 l 1
 646 36 l 1
 420 -190 l 1
 193 36 l 1
 246 88 l 1
 286 48 l 1
 286 345 l 1
 107 280 l 1
 84 342 l 1
 286 416 l 1
 286 725 l 1
 360 725 l 1
 360 443 l 1
 479 486 l 1
 479 725 l 1
 553 725 l 1
 553 513 l 1
 732 578 l 1
EndSplineSet
EndChar

StartChar: uni21D70338
Encoding: 12 -1 12
Width: 1283
Flags: W
HStem: -1 21G<261 301> 530 74<650 708 812 896>
VStem: 896 74<284 342 446 530>
LayerCount: 2
Back
Fore
SplineSet
812 530 m 1
 531 249 l 1
 584 134 l 1
 896 446 l 1
 896 530 l 1
 812 530 l 1
357 464 m 1
 417 493 l 1
 498 320 l 1
 708 530 l 1
 650 530 l 1
 650 604 l 1
 970 604 l 1
 970 284 l 1
 896 284 l 1
 896 342 l 1
 617 63 l 1
 708 -132 l 1
 648 -160 l 1
 567 13 l 1
 417 -137 l 1
 365 -85 l 1
 534 84 l 1
 481 199 l 1
 281 -1 l 1
 229 51 l 1
 448 270 l 1
 357 464 l 1
EndSplineSet
EndChar

StartChar: uni21D60338
Encoding: 13 -1 13
Width: 1283
Flags: W
HStem: -1 21G<981 1021.38> 530 74<386 470 575 632>
VStem: 312 74<284 342 446 530>
LayerCount: 2
Back
Fore
SplineSet
386 446 m 1
 698 134 l 1
 752 248 l 1
 470 530 l 1
 386 530 l 1
 386 446 l 1
635 -160 m 1
 574 -132 l 1
 665 63 l 1
 386 342 l 1
 386 284 l 1
 312 284 l 1
 312 604 l 1
 632 604 l 1
 632 530 l 1
 575 530 l 1
 785 320 l 1
 866 493 l 1
 926 464 l 1
 835 270 l 1
 1054 51 l 1
 1001 -1 l 1
 802 198 l 1
 749 84 l 1
 918 -85 l 1
 865 -137 l 1
 715 13 l 1
 635 -160 l 1
EndSplineSet
EndChar

StartChar: uni21D90338
Encoding: 14 -1 14
Width: 1283
Flags: W
HStem: -54 74<386 470 575 632> 531 20G<981 1021.38> 690 20G<591.429 644.249>
VStem: 312 74<20 104 208 266>
LayerCount: 2
Back
Fore
SplineSet
470 20 m 1
 752 302 l 1
 698 416 l 1
 386 104 l 1
 386 20 l 1
 470 20 l 1
926 86 m 1
 866 57 l 1
 785 230 l 1
 575 20 l 1
 632 20 l 1
 632 -54 l 1
 312 -54 l 1
 312 266 l 1
 386 266 l 1
 386 208 l 1
 665 487 l 1
 574 682 l 1
 635 710 l 1
 715 537 l 1
 865 687 l 1
 918 635 l 1
 749 466 l 1
 802 352 l 1
 1001 551 l 1
 1054 499 l 1
 835 280 l 1
 926 86 l 1
EndSplineSet
EndChar

StartChar: uni21D80338
Encoding: 15 -1 15
Width: 1283
Flags: W
HStem: -54 74<650 708 812 896> 531 20G<261 301> 690 20G<638.636 690.857>
VStem: 896 74<20 104 208 266>
LayerCount: 2
Back
Fore
SplineSet
896 104 m 1
 584 416 l 1
 531 301 l 1
 812 20 l 1
 896 20 l 1
 896 104 l 1
648 710 m 1
 708 682 l 1
 617 487 l 1
 896 208 l 1
 896 266 l 1
 970 266 l 1
 970 -54 l 1
 650 -54 l 1
 650 20 l 1
 708 20 l 1
 498 230 l 1
 417 57 l 1
 357 86 l 1
 448 280 l 1
 229 499 l 1
 281 551 l 1
 481 351 l 1
 534 466 l 1
 365 635 l 1
 417 687 l 1
 567 537 l 1
 648 710 l 1
EndSplineSet
EndChar

StartChar: uni21AE
Encoding: 16 8622 16
Width: 1080
Flags: W
HStem: 1 21G<421.217 483.257> 238 74<216 491 589 864> 529 20G<596.743 658.783>
LayerCount: 2
Back
Fore
SplineSet
604 549 m 1
 667 526 l 1
 589 312 l 1
 864 312 l 1
 773 403 l 1
 825 455 l 1
 1005 275 l 1
 825 95 l 1
 773 147 l 1
 864 238 l 1
 562 238 l 1
 476 1 l 1
 413 24 l 1
 491 238 l 1
 216 238 l 1
 307 147 l 1
 255 95 l 1
 75 275 l 1
 255 455 l 1
 307 403 l 1
 216 312 l 1
 518 312 l 1
 604 549 l 1
EndSplineSet
EndChar

StartChar: uni21950338
Encoding: 17 -1 17
Width: 716
Flags: W
VStem: 321 74<-49 226 324 599>
LayerCount: 2
Back
Fore
SplineSet
107 148 m 1
 84 211 l 1
 321 297 l 1
 321 599 l 1
 230 508 l 1
 178 560 l 1
 358 740 l 1
 538 560 l 1
 486 508 l 1
 395 599 l 1
 395 324 l 1
 609 402 l 1
 632 339 l 1
 395 253 l 1
 395 -49 l 1
 486 42 l 1
 538 -10 l 1
 358 -190 l 1
 178 -10 l 1
 230 42 l 1
 321 -49 l 1
 321 226 l 1
 107 148 l 1
EndSplineSet
EndChar

StartChar: uni29210338
Encoding: 18 -1 18
Width: 1195
Flags: W
HStem: -54 74<395 523> 530 74<672 801>
VStem: 269 74<72 201> 853 74<349 478>
LayerCount: 2
Back
Fore
SplineSet
450 514 m 1
 510 542 l 1
 606 335 l 1
 801 530 l 1
 672 530 l 1
 672 604 l 1
 927 604 l 1
 927 349 l 1
 853 349 l 1
 853 478 l 1
 639 264 l 1
 746 36 l 1
 685 8 l 1
 589 214 l 1
 395 20 l 1
 523 20 l 1
 523 -54 l 1
 269 -54 l 1
 269 201 l 1
 343 201 l 1
 343 72 l 1
 556 285 l 1
 450 514 l 1
EndSplineSet
EndChar

StartChar: uni29220338
Encoding: 19 -1 19
Width: 1195
Flags: W
HStem: -54 74<672 801> 530 74<395 523>
VStem: 269 74<349 478> 853 74<72 201>
LayerCount: 2
Back
Fore
SplineSet
510 8 m 1
 450 36 l 1
 556 265 l 1
 343 478 l 1
 343 349 l 1
 269 349 l 1
 269 604 l 1
 523 604 l 1
 523 530 l 1
 395 530 l 1
 589 336 l 1
 685 542 l 1
 746 514 l 1
 639 286 l 1
 853 72 l 1
 853 201 l 1
 927 201 l 1
 927 -54 l 1
 672 -54 l 1
 672 20 l 1
 801 20 l 1
 606 215 l 1
 510 8 l 1
EndSplineSet
EndChar

StartChar: uni21CE
Encoding: 20 8654 20
Width: 1230
Flags: W
HStem: 142 74<312 532 629 918> 334 74<312 601 698 918>
LayerCount: 2
Back
Fore
SplineSet
238 334 m 1
 179 275 l 1
 238 216 l 1
 559 216 l 1
 601 334 l 1
 238 334 l 1
992 334 m 1
 671 334 l 1
 629 216 l 1
 992 216 l 1
 1051 275 l 1
 992 334 l 1
702 610 m 1
 764 588 l 1
 698 408 l 1
 918 408 l 1
 877 449 l 1
 929 501 l 1
 1155 275 l 1
 929 49 l 1
 877 101 l 1
 918 142 l 1
 602 142 l 1
 528 -60 l 1
 466 -38 l 1
 532 142 l 1
 312 142 l 1
 353 101 l 1
 301 49 l 1
 75 275 l 1
 301 501 l 1
 353 449 l 1
 312 408 l 1
 628 408 l 1
 702 610 l 1
EndSplineSet
EndChar

StartChar: uni21D50338
Encoding: 21 -1 21
Width: 839
Flags: W
VStem: 286 74<-27 191 289 577> 479 74<-28 261 359 578>
LayerCount: 2
Back
Fore
SplineSet
360 -101 m 1
 420 -161 l 1
 479 -102 l 1
 479 261 l 1
 360 218 l 1
 360 -101 l 1
360 651 m 1
 360 289 l 1
 479 332 l 1
 479 652 l 1
 420 711 l 1
 360 651 l 1
107 126 m 1
 84 188 l 1
 286 262 l 1
 286 577 l 1
 246 537 l 1
 193 589 l 1
 420 815 l 1
 646 589 l 1
 594 537 l 1
 553 578 l 1
 553 359 l 1
 732 424 l 1
 755 362 l 1
 553 288 l 1
 553 -28 l 1
 594 13 l 1
 646 -39 l 1
 420 -265 l 1
 193 -39 l 1
 246 13 l 1
 286 -27 l 1
 286 191 l 1
 107 126 l 1
EndSplineSet
EndChar

StartChar: sym030_uni0338
Encoding: 22 -1 22
Width: 1389
Flags: W
HStem: -107 74<386 470 575 632> 583 74<756 814 918 1002>
VStem: 312 74<-33 51 155 213> 1002 74<337 394 499 583>
LayerCount: 2
Back
Fore
SplineSet
386 51 m 1
 386 -33 l 1
 470 -33 l 1
 696 193 l 1
 642 307 l 1
 386 51 l 1
918 583 m 1
 693 358 l 1
 746 243 l 1
 1002 499 l 1
 1002 583 l 1
 918 583 l 1
518 573 m 1
 579 601 l 1
 659 428 l 1
 814 583 l 1
 756 583 l 1
 756 657 l 1
 1076 657 l 1
 1076 337 l 1
 1002 337 l 1
 1002 394 l 1
 779 171 l 1
 870 -23 l 1
 810 -51 l 1
 729 121 l 1
 575 -33 l 1
 632 -33 l 1
 632 -107 l 1
 312 -107 l 1
 312 213 l 1
 386 213 l 1
 386 155 l 1
 609 378 l 1
 518 573 l 1
EndSplineSet
EndChar

StartChar: sym031_uni0338
Encoding: 23 -1 23
Width: 1389
Flags: W
HStem: -107 74<756 814 918 1002> 583 74<386 470 575 632>
VStem: 312 74<337 395 499 583> 1002 74<-33 51 156 213>
LayerCount: 2
Back
Fore
SplineSet
918 -33 m 1
 1002 -33 l 1
 1002 51 l 1
 746 307 l 1
 693 192 l 1
 918 -33 l 1
386 499 m 1
 642 243 l 1
 696 357 l 1
 470 583 l 1
 386 583 l 1
 386 499 l 1
579 -51 m 1
 518 -23 l 1
 609 172 l 1
 386 395 l 1
 386 337 l 1
 312 337 l 1
 312 657 l 1
 632 657 l 1
 632 583 l 1
 575 583 l 1
 729 429 l 1
 810 601 l 1
 870 573 l 1
 779 379 l 1
 1002 156 l 1
 1002 213 l 1
 1076 213 l 1
 1076 -107 l 1
 756 -107 l 1
 756 -33 l 1
 814 -33 l 1
 659 122 l 1
 579 -51 l 1
EndSplineSet
EndChar

StartChar: uni21A00338
Encoding: 24 -1 24
Width: 1118
Flags: W
HStem: 1 21G<246.087 307.257> 238 74<90 316 413 667 771 901> 529 20G<421.743 482.913>
LayerCount: 2
Back
Fore
SplineSet
429 549 m 1
 491 526 l 1
 413 312 l 1
 667 312 l 1
 576 403 l 1
 628 455 l 1
 771 312 l 1
 901 312 l 1
 810 403 l 1
 863 455 l 1
 1043 275 l 1
 863 95 l 1
 810 147 l 1
 901 238 l 1
 771 238 l 1
 628 95 l 1
 576 147 l 1
 667 238 l 1
 386 238 l 1
 300 1 l 1
 238 24 l 1
 316 238 l 1
 90 238 l 1
 90 312 l 1
 343 312 l 1
 429 549 l 1
EndSplineSet
EndChar

StartChar: uni219F0338
Encoding: 25 -1 25
Width: 716
Flags: W
HStem: 739 20G<338 378>
VStem: 321 74<-194 32 130 383 488 617>
LayerCount: 2
Back
Fore
SplineSet
107 -46 m 1
 84 17 l 1
 321 103 l 1
 321 383 l 1
 230 292 l 1
 178 345 l 1
 321 488 l 1
 321 617 l 1
 230 527 l 1
 178 579 l 1
 358 759 l 1
 538 579 l 1
 486 527 l 1
 395 617 l 1
 395 488 l 1
 538 345 l 1
 486 292 l 1
 395 383 l 1
 395 130 l 1
 609 208 l 1
 632 145 l 1
 395 59 l 1
 395 -194 l 1
 321 -194 l 1
 321 32 l 1
 107 -46 l 1
EndSplineSet
EndChar

StartChar: uni219E0338
Encoding: 26 -1 26
Width: 1118
Flags: W
HStem: 1 21G<634.217 696.257> 238 74<216 346 451 704 802 1028> 529 20G<809.743 871.783>
LayerCount: 2
Back
Fore
SplineSet
689 1 m 1
 626 24 l 1
 704 238 l 1
 451 238 l 1
 542 147 l 1
 489 95 l 1
 346 238 l 1
 216 238 l 1
 307 147 l 1
 255 95 l 1
 75 275 l 1
 255 455 l 1
 307 403 l 1
 216 312 l 1
 346 312 l 1
 489 455 l 1
 542 403 l 1
 451 312 l 1
 731 312 l 1
 817 549 l 1
 880 526 l 1
 802 312 l 1
 1028 312 l 1
 1028 238 l 1
 775 238 l 1
 689 1 l 1
EndSplineSet
EndChar

StartChar: uni21A10338
Encoding: 27 -1 27
Width: 716
Flags: W
VStem: 321 74<-67 62 167 420 518 744>
LayerCount: 2
Back
Fore
SplineSet
609 596 m 1
 632 533 l 1
 395 447 l 1
 395 167 l 1
 486 258 l 1
 538 205 l 1
 395 62 l 1
 395 -67 l 1
 486 23 l 1
 538 -29 l 1
 358 -209 l 1
 178 -29 l 1
 230 23 l 1
 321 -67 l 1
 321 62 l 1
 178 205 l 1
 230 258 l 1
 321 167 l 1
 321 420 l 1
 107 342 l 1
 84 405 l 1
 321 491 l 1
 321 744 l 1
 395 744 l 1
 395 518 l 1
 609 596 l 1
EndSplineSet
EndChar

StartChar: sym033_uni0338
Encoding: 28 -1 28
Width: 1222
Flags: W
HStem: 378 74<533 662> 543 74<698 827>
VStem: 714 74<197 326> 879 74<363 491>
LayerCount: 2
Back
Fore
SplineSet
326 377 m 1
 386 405 l 1
 482 199 l 1
 662 378 l 1
 533 378 l 1
 533 452 l 1
 736 452 l 1
 827 543 l 1
 698 543 l 1
 698 617 l 1
 953 617 l 1
 953 363 l 1
 879 363 l 1
 879 491 l 1
 788 400 l 1
 788 197 l 1
 714 197 l 1
 714 326 l 1
 516 127 l 1
 622 -101 l 1
 561 -129 l 1
 465 77 l 1
 306 -83 l 1
 253 -30 l 1
 432 149 l 1
 326 377 l 1
EndSplineSet
EndChar

StartChar: sym032_uni0338
Encoding: 29 -1 29
Width: 1222
Flags: W
HStem: 378 74<560 689> 543 74<395 523>
VStem: 269 74<363 491> 434 74<197 326>
LayerCount: 2
Back
Fore
SplineSet
660 -129 m 1
 600 -101 l 1
 706 127 l 1
 508 326 l 1
 508 197 l 1
 434 197 l 1
 434 400 l 1
 343 491 l 1
 343 363 l 1
 269 363 l 1
 269 617 l 1
 523 617 l 1
 523 543 l 1
 395 543 l 1
 486 452 l 1
 689 452 l 1
 689 378 l 1
 560 378 l 1
 740 199 l 1
 836 405 l 1
 896 377 l 1
 790 149 l 1
 969 -30 l 1
 916 -83 l 1
 756 77 l 1
 660 -129 l 1
EndSplineSet
EndChar

StartChar: sym035_uni0338
Encoding: 30 -1 30
Width: 1222
Flags: W
HStem: -67 74<395 523> 98 74<560 689>
VStem: 269 74<59 187> 434 74<224 353>
LayerCount: 2
Back
Fore
SplineSet
896 173 m 1
 836 145 l 1
 740 351 l 1
 560 172 l 1
 689 172 l 1
 689 98 l 1
 486 98 l 1
 395 7 l 1
 523 7 l 1
 523 -67 l 1
 269 -67 l 1
 269 187 l 1
 343 187 l 1
 343 59 l 1
 434 150 l 1
 434 353 l 1
 508 353 l 1
 508 224 l 1
 706 423 l 1
 600 651 l 1
 660 679 l 1
 756 473 l 1
 916 633 l 1
 969 580 l 1
 790 401 l 1
 896 173 l 1
EndSplineSet
EndChar

StartChar: sym034_uni0338
Encoding: 31 -1 31
Width: 1222
Flags: W
HStem: -67 74<698 827> 98 74<533 662>
VStem: 714 74<224 353> 879 74<59 187>
LayerCount: 2
Back
Fore
SplineSet
561 679 m 1
 622 651 l 1
 516 423 l 1
 714 224 l 1
 714 353 l 1
 788 353 l 1
 788 150 l 1
 879 59 l 1
 879 187 l 1
 953 187 l 1
 953 -67 l 1
 698 -67 l 1
 698 7 l 1
 827 7 l 1
 736 98 l 1
 533 98 l 1
 533 172 l 1
 662 172 l 1
 482 351 l 1
 386 145 l 1
 326 173 l 1
 432 401 l 1
 253 580 l 1
 306 633 l 1
 465 473 l 1
 561 679 l 1
EndSplineSet
EndChar

StartChar: uni21A30338
Encoding: 32 -1 32
Width: 930
Flags: W
HStem: 1 21G<346.217 408.257> 238 74<296 416 514 714> 529 20G<521.743 583.783>
LayerCount: 2
Back
Fore
SplineSet
529 549 m 1
 592 526 l 1
 514 312 l 1
 714 312 l 1
 623 403 l 1
 675 455 l 1
 855 275 l 1
 675 95 l 1
 623 147 l 1
 714 238 l 1
 487 238 l 1
 401 1 l 1
 338 24 l 1
 416 238 l 1
 296 238 l 1
 153 95 l 1
 101 147 l 1
 229 275 l 1
 101 403 l 1
 153 455 l 1
 296 312 l 1
 443 312 l 1
 529 549 l 1
EndSplineSet
EndChar

StartChar: sym036_uni0338
Encoding: 33 -1 33
Width: 716
Flags: W
VStem: 321 74<106 226 324 524>
LayerCount: 2
Back
Fore
SplineSet
107 148 m 1
 84 211 l 1
 321 297 l 1
 321 524 l 1
 230 433 l 1
 178 485 l 1
 358 665 l 1
 538 485 l 1
 486 433 l 1
 395 524 l 1
 395 324 l 1
 609 402 l 1
 632 339 l 1
 395 253 l 1
 395 106 l 1
 538 -37 l 1
 486 -89 l 1
 358 39 l 1
 230 -89 l 1
 178 -37 l 1
 321 106 l 1
 321 226 l 1
 107 148 l 1
EndSplineSet
EndChar

StartChar: uni21A20338
Encoding: 34 -1 34
Width: 930
Flags: W
HStem: 1 21G<346.217 408.257> 238 74<216 416 514 634> 529 20G<521.743 583.783>
LayerCount: 2
Back
Fore
SplineSet
401 1 m 1
 338 24 l 1
 416 238 l 1
 216 238 l 1
 307 147 l 1
 255 95 l 1
 75 275 l 1
 255 455 l 1
 307 403 l 1
 216 312 l 1
 443 312 l 1
 529 549 l 1
 592 526 l 1
 514 312 l 1
 634 312 l 1
 777 455 l 1
 829 403 l 1
 701 275 l 1
 829 147 l 1
 777 95 l 1
 634 238 l 1
 487 238 l 1
 401 1 l 1
EndSplineSet
EndChar

StartChar: sym037_uni0338
Encoding: 35 -1 35
Width: 716
Flags: W
VStem: 321 74<26 226 324 444>
LayerCount: 2
Back
Fore
SplineSet
609 402 m 1
 632 339 l 1
 395 253 l 1
 395 26 l 1
 486 117 l 1
 538 65 l 1
 358 -115 l 1
 178 65 l 1
 230 117 l 1
 321 26 l 1
 321 226 l 1
 107 148 l 1
 84 211 l 1
 321 297 l 1
 321 444 l 1
 178 587 l 1
 230 639 l 1
 358 511 l 1
 486 639 l 1
 538 587 l 1
 395 444 l 1
 395 324 l 1
 609 402 l 1
EndSplineSet
EndChar

StartChar: sym039_uni0338
Encoding: 36 -1 36
Width: 1089
Flags: W
HStem: 108 74<197 378> 477 74<566 695>
VStem: 378 74<-73 108> 747 74<296 425>
LayerCount: 2
Back
Fore
SplineSet
397 514 m 1
 457 542 l 1
 553 336 l 1
 695 477 l 1
 566 477 l 1
 566 551 l 1
 821 551 l 1
 821 296 l 1
 747 296 l 1
 747 425 l 1
 586 264 l 1
 693 36 l 1
 632 8 l 1
 536 214 l 1
 452 130 l 1
 452 -73 l 1
 378 -73 l 1
 378 108 l 1
 197 108 l 1
 197 182 l 1
 399 182 l 1
 503 286 l 1
 397 514 l 1
EndSplineSet
EndChar

StartChar: sym038_uni0338
Encoding: 37 -1 37
Width: 1089
Flags: W
HStem: 108 74<712 893> 477 74<395 523>
VStem: 269 74<296 425> 638 74<-73 108>
LayerCount: 2
Back
Fore
SplineSet
457 8 m 1
 397 36 l 1
 503 265 l 1
 343 425 l 1
 343 296 l 1
 269 296 l 1
 269 551 l 1
 523 551 l 1
 523 477 l 1
 395 477 l 1
 536 336 l 1
 632 542 l 1
 693 514 l 1
 586 286 l 1
 690 182 l 1
 893 182 l 1
 893 108 l 1
 712 108 l 1
 712 -73 l 1
 638 -73 l 1
 638 130 l 1
 553 215 l 1
 457 8 l 1
EndSplineSet
EndChar

StartChar: sym03B_uni0338
Encoding: 38 -1 38
Width: 1089
Flags: W
HStem: -1 74<395 523> 368 74<712 893>
VStem: 269 74<125 254> 638 74<442 623>
LayerCount: 2
Back
Fore
SplineSet
693 36 m 1
 632 8 l 1
 536 214 l 1
 395 73 l 1
 523 73 l 1
 523 -1 l 1
 269 -1 l 1
 269 254 l 1
 343 254 l 1
 343 125 l 1
 503 285 l 1
 397 514 l 1
 457 542 l 1
 553 335 l 1
 638 420 l 1
 638 623 l 1
 712 623 l 1
 712 442 l 1
 893 442 l 1
 893 368 l 1
 690 368 l 1
 586 264 l 1
 693 36 l 1
EndSplineSet
EndChar

StartChar: sym03A_uni0338
Encoding: 39 -1 39
Width: 1089
Flags: W
HStem: -1 74<566 695> 368 74<197 378>
VStem: 378 74<442 623> 747 74<125 254>
LayerCount: 2
Back
Fore
SplineSet
632 542 m 1
 693 514 l 1
 586 286 l 1
 747 125 l 1
 747 254 l 1
 821 254 l 1
 821 -1 l 1
 566 -1 l 1
 566 73 l 1
 695 73 l 1
 553 214 l 1
 457 8 l 1
 397 36 l 1
 503 264 l 1
 399 368 l 1
 197 368 l 1
 197 442 l 1
 378 442 l 1
 378 623 l 1
 452 623 l 1
 452 420 l 1
 536 336 l 1
 632 542 l 1
EndSplineSet
EndChar

StartChar: uni21A60338
Encoding: 40 -1 40
Width: 930
Flags: W
HStem: 1 21G<269.217 331.257> 238 74<164 339 437 714> 529 20G<444.743 506.783>
VStem: 90 74<84 238 312 466>
LayerCount: 2
Back
Fore
SplineSet
452 549 m 1
 515 526 l 1
 437 312 l 1
 714 312 l 1
 623 403 l 1
 675 455 l 1
 855 275 l 1
 675 95 l 1
 623 147 l 1
 714 238 l 1
 410 238 l 1
 324 1 l 1
 261 24 l 1
 339 238 l 1
 164 238 l 1
 164 84 l 1
 90 84 l 1
 90 466 l 1
 164 466 l 1
 164 312 l 1
 366 312 l 1
 452 549 l 1
EndSplineSet
EndChar

StartChar: uni21A50338
Encoding: 41 -1 41
Width: 716
Flags: W
HStem: -100 74<167 321 395 549>
VStem: 321 74<-26 149 247 524>
LayerCount: 2
Back
Fore
SplineSet
107 71 m 1
 84 134 l 1
 321 220 l 1
 321 524 l 1
 230 433 l 1
 178 485 l 1
 358 665 l 1
 538 485 l 1
 486 433 l 1
 395 524 l 1
 395 247 l 1
 609 325 l 1
 632 262 l 1
 395 176 l 1
 395 -26 l 1
 549 -26 l 1
 549 -100 l 1
 167 -100 l 1
 167 -26 l 1
 321 -26 l 1
 321 149 l 1
 107 71 l 1
EndSplineSet
EndChar

StartChar: uni21A40338
Encoding: 42 -1 42
Width: 930
Flags: W
HStem: 1 21G<423.217 485.257> 238 74<216 493 591 766> 529 20G<598.743 660.783>
VStem: 766 74<84 238 312 466>
LayerCount: 2
Back
Fore
SplineSet
478 1 m 1
 415 24 l 1
 493 238 l 1
 216 238 l 1
 307 147 l 1
 255 95 l 1
 75 275 l 1
 255 455 l 1
 307 403 l 1
 216 312 l 1
 520 312 l 1
 606 549 l 1
 669 526 l 1
 591 312 l 1
 766 312 l 1
 766 466 l 1
 840 466 l 1
 840 84 l 1
 766 84 l 1
 766 238 l 1
 564 238 l 1
 478 1 l 1
EndSplineSet
EndChar

StartChar: uni21A70338
Encoding: 43 -1 43
Width: 716
Flags: W
HStem: 576 74<167 321 395 549>
VStem: 321 74<26 303 401 576>
LayerCount: 2
Back
Fore
SplineSet
609 479 m 1
 632 416 l 1
 395 330 l 1
 395 26 l 1
 486 117 l 1
 538 65 l 1
 358 -115 l 1
 178 65 l 1
 230 117 l 1
 321 26 l 1
 321 303 l 1
 107 225 l 1
 84 288 l 1
 321 374 l 1
 321 576 l 1
 167 576 l 1
 167 650 l 1
 549 650 l 1
 549 576 l 1
 395 576 l 1
 395 401 l 1
 609 479 l 1
EndSplineSet
EndChar

StartChar: uni29070338
Encoding: 44 -1 44
Width: 1080
Flags: W
HStem: 142 74<164 380 477 768> 334 74<164 449 546 768>
VStem: 90 74<38 142 216 334 408 512>
LayerCount: 2
Back
Fore
SplineSet
842 334 m 1
 519 334 l 1
 477 216 l 1
 842 216 l 1
 901 275 l 1
 842 334 l 1
164 334 m 1
 164 216 l 1
 407 216 l 1
 449 334 l 1
 164 334 l 1
550 610 m 1
 612 588 l 1
 546 408 l 1
 768 408 l 1
 727 449 l 1
 779 501 l 1
 1005 275 l 1
 779 49 l 1
 727 101 l 1
 768 142 l 1
 450 142 l 1
 376 -60 l 1
 314 -38 l 1
 380 142 l 1
 164 142 l 1
 164 38 l 1
 90 38 l 1
 90 512 l 1
 164 512 l 1
 164 408 l 1
 476 408 l 1
 550 610 l 1
EndSplineSet
EndChar

StartChar: sym03C_uni0338
Encoding: 45 -1 45
Width: 839
Flags: W
HStem: -175 74<182 286 360 479 553 657>
VStem: 286 74<-101 114 212 502> 479 74<-101 184 282 503>
LayerCount: 2
Back
Fore
SplineSet
360 576 m 1
 360 212 l 1
 479 255 l 1
 479 577 l 1
 420 636 l 1
 360 576 l 1
360 -101 m 1
 479 -101 l 1
 479 184 l 1
 360 141 l 1
 360 -101 l 1
107 49 m 1
 84 111 l 1
 286 185 l 1
 286 502 l 1
 246 462 l 1
 193 514 l 1
 420 740 l 1
 646 514 l 1
 594 462 l 1
 553 503 l 1
 553 282 l 1
 732 347 l 1
 755 285 l 1
 553 211 l 1
 553 -101 l 1
 657 -101 l 1
 657 -175 l 1
 182 -175 l 1
 182 -101 l 1
 286 -101 l 1
 286 114 l 1
 107 49 l 1
EndSplineSet
EndChar

StartChar: uni29060338
Encoding: 46 -1 46
Width: 1080
Flags: W
HStem: 142 74<312 534 631 916> 334 74<312 603 700 916>
VStem: 916 74<38 142 216 334 408 512>
LayerCount: 2
Back
Fore
SplineSet
238 216 m 1
 561 216 l 1
 603 334 l 1
 238 334 l 1
 179 275 l 1
 238 216 l 1
916 216 m 1
 916 334 l 1
 673 334 l 1
 631 216 l 1
 916 216 l 1
530 -60 m 1
 468 -38 l 1
 534 142 l 1
 312 142 l 1
 353 101 l 1
 301 49 l 1
 75 275 l 1
 301 501 l 1
 353 449 l 1
 312 408 l 1
 630 408 l 1
 704 610 l 1
 766 588 l 1
 700 408 l 1
 916 408 l 1
 916 512 l 1
 990 512 l 1
 990 38 l 1
 916 38 l 1
 916 142 l 1
 604 142 l 1
 530 -60 l 1
EndSplineSet
EndChar

StartChar: sym03D_uni0338
Encoding: 47 -1 47
Width: 839
Flags: W
HStem: 651 74<182 286 360 479 553 657>
VStem: 286 74<48 268 366 651> 479 74<47 338 436 651>
LayerCount: 2
Back
Fore
SplineSet
479 -27 m 1
 479 338 l 1
 360 295 l 1
 360 -26 l 1
 420 -86 l 1
 479 -27 l 1
479 651 m 1
 360 651 l 1
 360 366 l 1
 479 409 l 1
 479 651 l 1
732 501 m 1
 755 439 l 1
 553 365 l 1
 553 47 l 1
 594 88 l 1
 646 36 l 1
 420 -190 l 1
 193 36 l 1
 246 88 l 1
 286 48 l 1
 286 268 l 1
 107 203 l 1
 84 265 l 1
 286 339 l 1
 286 651 l 1
 182 651 l 1
 182 725 l 1
 657 725 l 1
 657 651 l 1
 553 651 l 1
 553 436 l 1
 732 501 l 1
EndSplineSet
EndChar

StartChar: uni21AA0338
Encoding: 48 -1 48
Width: 930
Flags: W
HStem: 1 21G<269.217 331.257> 238 74<170.085 339 437 714> 392 74<170.085 241> 529 20G<444.743 506.783>
VStem: 90 74<317.239 386.761>
LayerCount: 2
Back
Fore
SplineSet
452 549 m 1
 515 526 l 1
 437 312 l 1
 714 312 l 1
 623 403 l 1
 675 455 l 1
 855 275 l 1
 675 95 l 1
 623 147 l 1
 714 238 l 1
 410 238 l 1
 324 1 l 1
 261 24 l 1
 339 238 l 1
 204 238 l 2
 141 238 90 289 90 352 c 0
 90 415 141 466 204 466 c 2
 241 466 l 1
 241 392 l 1
 204 392 l 2
 182 392 164 374 164 352 c 0
 164 330 182 312 204 312 c 2
 366 312 l 1
 452 549 l 1
EndSplineSet
EndChar

StartChar: sym03E_uni0338
Encoding: 49 -1 49
Width: 716
Flags: W
HStem: -100 74<246.239 315.761>
VStem: 167 74<-19.9148 51> 321 74<-19.9148 149 247 524>
LayerCount: 2
Back
Fore
SplineSet
107 71 m 1
 84 134 l 1
 321 220 l 1
 321 524 l 1
 230 433 l 1
 178 485 l 1
 358 665 l 1
 538 485 l 1
 486 433 l 1
 395 524 l 1
 395 247 l 1
 609 325 l 1
 632 262 l 1
 395 176 l 1
 395 14 l 2
 395 -49 344 -100 281 -100 c 0
 218 -100 167 -49 167 14 c 2
 167 51 l 1
 241 51 l 1
 241 14 l 2
 241 -8 259 -26 281 -26 c 0
 303 -26 321 -8 321 14 c 2
 321 149 l 1
 107 71 l 1
EndSplineSet
EndChar

StartChar: uni21A90338.alt
Encoding: 50 -1 50
Width: 930
Flags: W
HStem: 1 21G<423.217 485.257> 84 74<689 759.915> 238 74<216 493 591 759.915> 529 20G<598.743 660.783>
VStem: 766 74<163.239 232.761>
LayerCount: 2
Back
Fore
SplineSet
478 1 m 1
 415 24 l 1
 493 238 l 1
 216 238 l 1
 307 147 l 1
 255 95 l 1
 75 275 l 1
 255 455 l 1
 307 403 l 1
 216 312 l 1
 520 312 l 1
 606 549 l 1
 669 526 l 1
 591 312 l 1
 726 312 l 2
 789 312 840 261 840 198 c 0
 840 135 789 84 726 84 c 2
 689 84 l 1
 689 158 l 1
 726 158 l 2
 748 158 766 176 766 198 c 0
 766 220 748 238 726 238 c 2
 564 238 l 1
 478 1 l 1
EndSplineSet
EndChar

StartChar: sym03F_uni0338.alt
Encoding: 51 -1 51
Width: 716
Flags: W
HStem: 576 74<400.239 469.761>
VStem: 321 74<26 303 401 569.915> 475 74<499 569.915>
LayerCount: 2
Back
Fore
SplineSet
609 479 m 1
 632 416 l 1
 395 330 l 1
 395 26 l 1
 486 117 l 1
 538 65 l 1
 358 -115 l 1
 178 65 l 1
 230 117 l 1
 321 26 l 1
 321 303 l 1
 107 225 l 1
 84 288 l 1
 321 374 l 1
 321 536 l 2
 321 599 372 650 435 650 c 0
 498 650 549 599 549 536 c 2
 549 499 l 1
 475 499 l 1
 475 536 l 2
 475 558 457 576 435 576 c 0
 413 576 395 558 395 536 c 2
 395 401 l 1
 609 479 l 1
EndSplineSet
EndChar

StartChar: uni29240338.alt
Encoding: 52 -1 52
Width: 1089
Flags: W
HStem: 31 74<270.672 343.191> 477 74<566 695>
VStem: 192 74<109.805 183.019> 747 74<296 425>
LayerCount: 2
Back
Fore
SplineSet
266 145 m 0
 266 123 285 105 306 105 c 0
 316 105 326 109 334 117 c 2
 448 231 l 1
 342 459 l 1
 402 488 l 1
 498 281 l 1
 695 477 l 1
 566 477 l 1
 566 551 l 1
 821 551 l 1
 821 296 l 1
 747 296 l 1
 747 425 l 1
 532 210 l 1
 638 -18 l 1
 578 -46 l 1
 482 160 l 1
 386 64 l 2
 364 42 335 31 306 31 c 0
 277 31 247 42 225 64 c 0
 203 86 192 116 192 145 c 0
 192 174 203 203 225 225 c 2
 251 252 l 1
 304 199 l 1
 277 173 l 2
 269 165 266 155 266 145 c 0
EndSplineSet
EndChar

StartChar: uni29230338
Encoding: 53 -1 53
Width: 1089
Flags: W
HStem: -78 74<636.996 709.913> 477 74<395 523>
VStem: 269 74<296 425> 715 74<0.906082 73.4415>
LayerCount: 2
Back
Fore
SplineSet
675 -4 m 0
 696 -4 715 15 715 36 c 0
 715 46 711 56 703 64 c 2
 607 160 l 1
 511 -46 l 1
 451 -18 l 1
 557 210 l 1
 343 425 l 1
 343 296 l 1
 269 296 l 1
 269 551 l 1
 523 551 l 1
 523 477 l 1
 395 477 l 1
 591 281 l 1
 687 488 l 1
 747 459 l 1
 641 231 l 1
 755 117 l 2
 777 95 789 65 789 36 c 0
 789 7 777 -23 755 -45 c 0
 733 -67 704 -78 675 -78 c 0
 646 -78 616 -67 594 -45 c 2
 568 -18 l 1
 620 34 l 1
 647 8 l 2
 655 0 665 -4 675 -4 c 0
EndSplineSet
EndChar

StartChar: uni29260338.alt
Encoding: 54 -1 54
Width: 1089
Flags: W
HStem: -1 74<395 523> 445 74<746.105 818.913>
VStem: 269 74<125 254> 824 74<367.387 440.094>
LayerCount: 2
Back
Fore
SplineSet
824 405 m 0
 824 426 805 445 784 445 c 0
 774 445 763 441 755 433 c 2
 641 319 l 1
 747 91 l 1
 687 62 l 1
 591 269 l 1
 395 73 l 1
 523 73 l 1
 523 -1 l 1
 269 -1 l 1
 269 254 l 1
 343 254 l 1
 343 125 l 1
 557 340 l 1
 451 568 l 1
 511 596 l 1
 607 390 l 1
 703 486 l 2
 725 508 755 519 784 519 c 0
 813 519 842 508 864 486 c 0
 886 464 898 434 898 405 c 0
 898 376 886 347 864 325 c 2
 838 298 l 1
 786 351 l 1
 812 377 l 2
 820 385 824 395 824 405 c 0
EndSplineSet
EndChar

StartChar: uni29250338
Encoding: 55 -1 55
Width: 1089
Flags: W
HStem: -1 74<566 695> 554 74<379.9 452.317>
VStem: 300 75<475.808 549.421> 747 74<125 254>
LayerCount: 2
Back
Fore
SplineSet
414 554 m 0
 393 554 375 536 375 514 c 0
 375 504 378 494 386 486 c 2
 482 390 l 1
 578 596 l 1
 638 568 l 1
 532 340 l 1
 747 125 l 1
 747 254 l 1
 821 254 l 1
 821 -1 l 1
 566 -1 l 1
 566 73 l 1
 695 73 l 1
 498 269 l 1
 402 62 l 1
 342 91 l 1
 448 319 l 1
 334 433 l 2
 312 455 300 485 300 514 c 0
 300 543 312 573 334 595 c 0
 356 617 385 628 414 628 c 0
 443 628 473 617 495 595 c 2
 521 568 l 1
 469 516 l 1
 443 542 l 2
 435 550 424 554 414 554 c 0
EndSplineSet
EndChar

StartChar: uni21AA0338.alt
Encoding: 56 -1 56
Width: 930
Flags: W
HStem: 1 21G<269.217 331.257> 84 74<170.085 241> 238 74<170.085 339 437 714> 529 20G<444.743 506.783>
VStem: 90 74<163.239 232.761>
LayerCount: 2
Back
Fore
SplineSet
452 549 m 1
 515 526 l 1
 437 312 l 1
 714 312 l 1
 623 403 l 1
 675 455 l 1
 855 275 l 1
 675 95 l 1
 623 147 l 1
 714 238 l 1
 410 238 l 1
 324 1 l 1
 261 24 l 1
 339 238 l 1
 204 238 l 2
 182 238 164 220 164 198 c 0
 164 176 182 158 204 158 c 2
 241 158 l 1
 241 84 l 1
 204 84 l 2
 141 84 90 135 90 198 c 0
 90 261 141 312 204 312 c 2
 366 312 l 1
 452 549 l 1
EndSplineSet
EndChar

StartChar: sym03E_uni0338.alt
Encoding: 57 -1 57
Width: 716
Flags: W
HStem: -100 74<400.239 469.761>
VStem: 321 74<-19.9148 149 247 524> 475 74<-19.9148 51>
LayerCount: 2
Back
Fore
SplineSet
107 71 m 1
 84 134 l 1
 321 220 l 1
 321 524 l 1
 230 433 l 1
 178 485 l 1
 358 665 l 1
 538 485 l 1
 486 433 l 1
 395 524 l 1
 395 247 l 1
 609 325 l 1
 632 262 l 1
 395 176 l 1
 395 14 l 2
 395 -8 413 -26 435 -26 c 0
 457 -26 475 -8 475 14 c 2
 475 51 l 1
 549 51 l 1
 549 14 l 2
 549 -49 498 -100 435 -100 c 0
 372 -100 321 -49 321 14 c 2
 321 149 l 1
 107 71 l 1
EndSplineSet
EndChar

StartChar: uni21A90338
Encoding: 58 -1 58
Width: 930
Flags: W
HStem: 1 21G<423.217 485.257> 238 74<216 493 591 759.915> 392 74<689 759.915> 529 20G<598.743 660.783>
VStem: 766 74<317.239 386.761>
LayerCount: 2
Back
Fore
SplineSet
478 1 m 1
 415 24 l 1
 493 238 l 1
 216 238 l 1
 307 147 l 1
 255 95 l 1
 75 275 l 1
 255 455 l 1
 307 403 l 1
 216 312 l 1
 520 312 l 1
 606 549 l 1
 669 526 l 1
 591 312 l 1
 726 312 l 2
 748 312 766 330 766 352 c 0
 766 374 748 392 726 392 c 2
 689 392 l 1
 689 466 l 1
 726 466 l 2
 789 466 840 415 840 352 c 0
 840 289 789 238 726 238 c 2
 564 238 l 1
 478 1 l 1
EndSplineSet
EndChar

StartChar: sym03F_uni0338
Encoding: 59 -1 59
Width: 716
Flags: W
HStem: 576 74<246.239 315.761>
VStem: 167 74<499 569.915> 321 74<26 303 401 569.915>
LayerCount: 2
Back
Fore
SplineSet
609 479 m 1
 632 416 l 1
 395 330 l 1
 395 26 l 1
 486 117 l 1
 538 65 l 1
 358 -115 l 1
 178 65 l 1
 230 117 l 1
 321 26 l 1
 321 303 l 1
 107 225 l 1
 84 288 l 1
 321 374 l 1
 321 536 l 2
 321 558 303 576 281 576 c 0
 259 576 241 558 241 536 c 2
 241 499 l 1
 167 499 l 1
 167 536 l 2
 167 599 218 650 281 650 c 0
 344 650 395 599 395 536 c 2
 395 401 l 1
 609 479 l 1
EndSplineSet
EndChar

StartChar: uni29240338
Encoding: 60 -1 60
Width: 1089
Flags: W
HStem: -78 74<379.9 452.317> 477 74<566 695>
VStem: 300 75<0.578762 74.1915> 747 74<296 425>
LayerCount: 2
Back
Fore
SplineSet
375 36 m 0
 375 14 393 -4 414 -4 c 0
 424 -4 435 0 443 8 c 2
 469 34 l 1
 521 -18 l 1
 495 -45 l 2
 473 -67 443 -78 414 -78 c 0
 385 -78 356 -67 334 -45 c 0
 312 -23 300 7 300 36 c 0
 300 65 312 95 334 117 c 2
 448 231 l 1
 342 459 l 1
 402 488 l 1
 498 281 l 1
 695 477 l 1
 566 477 l 1
 566 551 l 1
 821 551 l 1
 821 296 l 1
 747 296 l 1
 747 425 l 1
 532 210 l 1
 638 -18 l 1
 578 -46 l 1
 482 160 l 1
 386 64 l 2
 378 56 375 46 375 36 c 0
EndSplineSet
EndChar

StartChar: uni29230338.alt
Encoding: 61 -1 61
Width: 1089
Flags: W
HStem: 31 74<746.105 818.913> 477 74<395 523>
VStem: 269 74<296 425> 824 74<109.906 182.613>
LayerCount: 2
Back
Fore
SplineSet
784 105 m 0
 805 105 824 124 824 145 c 0
 824 155 820 165 812 173 c 2
 786 199 l 1
 838 252 l 1
 864 225 l 2
 886 203 898 174 898 145 c 0
 898 116 886 86 864 64 c 0
 842 42 813 31 784 31 c 0
 755 31 725 42 703 64 c 2
 607 160 l 1
 511 -46 l 1
 451 -18 l 1
 557 210 l 1
 343 425 l 1
 343 296 l 1
 269 296 l 1
 269 551 l 1
 523 551 l 1
 523 477 l 1
 395 477 l 1
 591 281 l 1
 687 488 l 1
 747 459 l 1
 641 231 l 1
 755 117 l 2
 763 109 774 105 784 105 c 0
EndSplineSet
EndChar

StartChar: uni29260338
Encoding: 62 -1 62
Width: 1089
Flags: W
HStem: -1 74<395 523> 554 74<636.996 709.913>
VStem: 269 74<125 254> 715 74<476.558 549.094>
LayerCount: 2
Back
Fore
SplineSet
715 514 m 0
 715 535 696 554 675 554 c 0
 665 554 655 550 647 542 c 2
 620 516 l 1
 568 568 l 1
 594 595 l 2
 616 617 646 628 675 628 c 0
 704 628 733 617 755 595 c 0
 777 573 789 543 789 514 c 0
 789 485 777 455 755 433 c 2
 641 319 l 1
 747 91 l 1
 687 62 l 1
 591 269 l 1
 395 73 l 1
 523 73 l 1
 523 -1 l 1
 269 -1 l 1
 269 254 l 1
 343 254 l 1
 343 125 l 1
 557 340 l 1
 451 568 l 1
 511 596 l 1
 607 390 l 1
 703 486 l 2
 711 494 715 504 715 514 c 0
EndSplineSet
EndChar

StartChar: uni29250338.alt
Encoding: 63 -1 63
Width: 1089
Flags: W
HStem: -1 74<566 695> 445 74<270.672 343.191>
VStem: 192 74<366.981 440.195> 747 74<125 254>
LayerCount: 2
Back
Fore
SplineSet
306 445 m 0
 285 445 266 427 266 405 c 0
 266 395 269 385 277 377 c 2
 304 351 l 1
 251 298 l 1
 225 325 l 2
 203 347 192 376 192 405 c 0
 192 434 203 464 225 486 c 0
 247 508 277 519 306 519 c 0
 335 519 364 508 386 486 c 2
 482 390 l 1
 578 596 l 1
 638 568 l 1
 532 340 l 1
 747 125 l 1
 747 254 l 1
 821 254 l 1
 821 -1 l 1
 566 -1 l 1
 566 73 l 1
 695 73 l 1
 498 269 l 1
 402 62 l 1
 342 91 l 1
 448 319 l 1
 334 433 l 2
 326 441 316 445 306 445 c 0
EndSplineSet
EndChar

StartChar: uni21C00338
Encoding: 64 -1 64
Width: 930
Flags: W
HStem: 1 21G<269.217 331.257> 238 74<90 339 437 714> 529 20G<444.743 506.783>
LayerCount: 2
Back
Fore
SplineSet
452 549 m 1
 515 526 l 1
 437 312 l 1
 714 312 l 1
 604 421 l 1
 657 474 l 1
 855 275 l 1
 845 238 l 1
 410 238 l 1
 324 1 l 1
 261 24 l 1
 339 238 l 1
 90 238 l 1
 90 312 l 1
 366 312 l 1
 452 549 l 1
EndSplineSet
EndChar

StartChar: uni21BF0338
Encoding: 65 -1 65
Width: 716
Flags: W
VStem: 321 74<-100 149 247 524>
LayerCount: 2
Back
Fore
SplineSet
107 71 m 1
 84 134 l 1
 321 220 l 1
 321 524 l 1
 212 414 l 1
 159 467 l 1
 358 665 l 1
 395 655 l 1
 395 247 l 1
 609 325 l 1
 632 262 l 1
 395 176 l 1
 395 -100 l 1
 321 -100 l 1
 321 149 l 1
 107 71 l 1
EndSplineSet
EndChar

StartChar: uni21BD0338
Encoding: 66 -1 66
Width: 930
Flags: W
HStem: 1 21G<423.217 485.257> 238 74<216 493 591 840> 529 20G<598.743 660.783>
LayerCount: 2
Back
Fore
SplineSet
478 1 m 1
 415 24 l 1
 493 238 l 1
 216 238 l 1
 326 129 l 1
 273 76 l 1
 75 275 l 1
 85 312 l 1
 520 312 l 1
 606 549 l 1
 669 526 l 1
 591 312 l 1
 840 312 l 1
 840 238 l 1
 564 238 l 1
 478 1 l 1
EndSplineSet
EndChar

StartChar: uni21C20338
Encoding: 67 -1 67
Width: 716
Flags: W
VStem: 321 74<26 303 401 650>
LayerCount: 2
Back
Fore
SplineSet
609 479 m 1
 632 416 l 1
 395 330 l 1
 395 26 l 1
 504 136 l 1
 557 83 l 1
 358 -115 l 1
 321 -105 l 1
 321 303 l 1
 107 225 l 1
 84 288 l 1
 321 374 l 1
 321 650 l 1
 395 650 l 1
 395 401 l 1
 609 479 l 1
EndSplineSet
EndChar

StartChar: sym041_uni0338
Encoding: 68 -1 68
Width: 1089
Flags: W
HStem: 477 74<540 695>
LayerCount: 2
Back
Fore
SplineSet
342 459 m 1
 402 488 l 1
 499 281 l 1
 695 477 l 1
 540 477 l 1
 540 551 l 1
 821 551 l 1
 840 518 l 1
 532 210 l 1
 638 -18 l 1
 578 -46 l 1
 482 160 l 1
 306 -16 l 1
 253 36 l 1
 448 231 l 1
 342 459 l 1
EndSplineSet
EndChar

StartChar: sym040_uni0338
Encoding: 69 -1 69
Width: 1089
Flags: W
VStem: 269 74<270 425>
LayerCount: 2
Back
Fore
SplineSet
511 -46 m 1
 451 -18 l 1
 558 210 l 1
 343 425 l 1
 343 270 l 1
 269 270 l 1
 269 551 l 1
 302 570 l 1
 591 281 l 1
 687 488 l 1
 747 459 l 1
 641 231 l 1
 836 36 l 1
 784 -16 l 1
 608 160 l 1
 511 -46 l 1
EndSplineSet
EndChar

StartChar: sym043_uni0338
Encoding: 70 -1 70
Width: 1089
Flags: W
HStem: -1 74<290 291 395 550>
LayerCount: 2
Back
Fore
SplineSet
747 91 m 1
 687 62 l 1
 591 269 l 1
 395 73 l 1
 550 73 l 1
 550 -1 l 1
 269 -1 l 1
 250 32 l 1
 290 73 l 1
 291 73 l 1
 558 340 l 1
 451 568 l 1
 511 596 l 1
 608 390 l 1
 784 566 l 1
 836 514 l 1
 641 319 l 1
 747 91 l 1
EndSplineSet
EndChar

StartChar: sym042_uni0338
Encoding: 71 -1 71
Width: 1089
Flags: W
VStem: 747 74<125 280>
LayerCount: 2
Back
Fore
SplineSet
578 596 m 1
 638 568 l 1
 532 340 l 1
 747 125 l 1
 747 280 l 1
 821 280 l 1
 821 -1 l 1
 788 -20 l 1
 692 76 595 173 499 269 c 1
 402 62 l 1
 342 91 l 1
 448 319 l 1
 253 514 l 1
 306 566 l 1
 482 390 l 1
 578 596 l 1
EndSplineSet
EndChar

StartChar: uni21C10338
Encoding: 72 -1 72
Width: 930
Flags: W
HStem: 1 21G<269.217 331.257> 238 74<90 339 437 714> 529 20G<444.743 506.783>
LayerCount: 2
Back
Fore
SplineSet
452 549 m 1
 515 526 l 1
 437 312 l 1
 845 312 l 1
 855 275 l 1
 657 76 l 1
 604 129 l 1
 714 238 l 1
 410 238 l 1
 324 1 l 1
 261 24 l 1
 339 238 l 1
 90 238 l 1
 90 312 l 1
 366 312 l 1
 452 549 l 1
EndSplineSet
EndChar

StartChar: uni21BE0338
Encoding: 73 -1 73
Width: 716
Flags: W
VStem: 321 74<-100 149 247 524>
LayerCount: 2
Back
Fore
SplineSet
107 71 m 1
 84 134 l 1
 321 220 l 1
 321 655 l 1
 358 665 l 1
 557 467 l 1
 504 414 l 1
 395 524 l 1
 395 247 l 1
 609 325 l 1
 632 262 l 1
 395 176 l 1
 395 -100 l 1
 321 -100 l 1
 321 149 l 1
 107 71 l 1
EndSplineSet
EndChar

StartChar: uni21BC0338
Encoding: 74 -1 74
Width: 930
Flags: W
HStem: 1 21G<423.217 485.257> 238 74<216 493 591 840> 529 20G<598.743 660.783>
LayerCount: 2
Back
Fore
SplineSet
478 1 m 1
 415 24 l 1
 493 238 l 1
 85 238 l 1
 75 275 l 1
 273 474 l 1
 326 421 l 1
 216 312 l 1
 520 312 l 1
 606 549 l 1
 669 526 l 1
 591 312 l 1
 840 312 l 1
 840 238 l 1
 564 238 l 1
 478 1 l 1
EndSplineSet
EndChar

StartChar: uni21C30338
Encoding: 75 -1 75
Width: 716
Flags: W
VStem: 321 74<26 303 401 650>
LayerCount: 2
Back
Fore
SplineSet
609 479 m 1
 632 416 l 1
 395 330 l 1
 395 -105 l 1
 358 -115 l 1
 159 83 l 1
 212 136 l 1
 321 26 l 1
 321 303 l 1
 107 225 l 1
 84 288 l 1
 321 374 l 1
 321 650 l 1
 395 650 l 1
 395 401 l 1
 609 479 l 1
EndSplineSet
EndChar

StartChar: sym045_uni0338
Encoding: 76 -1 76
Width: 1089
Flags: W
VStem: 747 74<270 425>
LayerCount: 2
Back
Fore
SplineSet
342 459 m 1
 402 488 l 1
 499 281 l 1
 595 377 692 474 788 570 c 1
 821 551 l 1
 821 270 l 1
 747 270 l 1
 747 425 l 1
 532 210 l 1
 638 -18 l 1
 578 -46 l 1
 482 160 l 1
 306 -16 l 1
 253 36 l 1
 448 231 l 1
 342 459 l 1
EndSplineSet
EndChar

StartChar: sym044_uni0338
Encoding: 77 -1 77
Width: 1089
Flags: W
HStem: 477 74<290 291 395 550>
LayerCount: 2
Back
Fore
SplineSet
511 -46 m 1
 451 -18 l 1
 558 210 l 1
 291 477 l 1
 290 477 l 1
 250 518 l 1
 269 551 l 1
 550 551 l 1
 550 477 l 1
 395 477 l 1
 591 281 l 1
 687 488 l 1
 747 459 l 1
 641 231 l 1
 836 36 l 1
 784 -16 l 1
 608 160 l 1
 511 -46 l 1
EndSplineSet
EndChar

StartChar: sym047_uni0338
Encoding: 78 -1 78
Width: 1089
Flags: W
VStem: 269 74<125 280>
LayerCount: 2
Back
Fore
SplineSet
747 91 m 1
 687 62 l 1
 591 269 l 1
 302 -20 l 1
 269 -1 l 1
 269 280 l 1
 343 280 l 1
 343 125 l 1
 558 340 l 1
 451 568 l 1
 511 596 l 1
 608 390 l 1
 784 566 l 1
 836 514 l 1
 641 319 l 1
 747 91 l 1
EndSplineSet
EndChar

StartChar: sym046_uni0338
Encoding: 79 -1 79
Width: 1089
Flags: W
HStem: -1 74<540 695>
LayerCount: 2
Back
Fore
SplineSet
578 596 m 1
 638 568 l 1
 532 340 l 1
 840 32 l 1
 821 -1 l 1
 540 -1 l 1
 540 73 l 1
 695 73 l 1
 499 269 l 1
 402 62 l 1
 342 91 l 1
 448 319 l 1
 253 514 l 1
 306 566 l 1
 482 390 l 1
 578 596 l 1
EndSplineSet
EndChar

StartChar: uni294B0338
Encoding: 80 -1 80
Width: 930
Flags: W
HStem: 238 74<216 425 505 714> 525 20G<475.481 544>
LayerCount: 2
Back
Fore
SplineSet
479 545 m 1
 544 533 l 1
 505 312 l 1
 714 312 l 1
 604 421 l 1
 657 474 l 1
 855 275 l 1
 845 238 l 1
 492 238 l 1
 451 5 l 1
 386 17 l 1
 425 238 l 1
 216 238 l 1
 326 129 l 1
 273 76 l 1
 75 275 l 1
 85 312 l 1
 438 312 l 1
 479 545 l 1
EndSplineSet
EndChar

StartChar: uni294D0338
Encoding: 81 -1 81
Width: 716
Flags: W
VStem: 321 74<26 226 324 524>
LayerCount: 2
Back
Fore
SplineSet
107 148 m 1
 84 211 l 1
 321 297 l 1
 321 524 l 1
 212 414 l 1
 159 467 l 1
 358 665 l 1
 395 655 l 1
 395 324 l 1
 609 402 l 1
 632 339 l 1
 395 253 l 1
 395 26 l 1
 504 136 l 1
 557 83 l 1
 358 -115 l 1
 321 -105 l 1
 321 226 l 1
 107 148 l 1
EndSplineSet
EndChar

StartChar: sym049_uni0338
Encoding: 82 -1 82
Width: 1089
Flags: W
HStem: -1 74<290 291 395 550> 477 74<540 695>
LayerCount: 2
Back
Fore
SplineSet
364 475 m 1
 418 514 l 1
 547 329 l 1
 695 477 l 1
 540 477 l 1
 540 551 l 1
 821 551 l 1
 840 518 l 1
 590 268 l 1
 726 75 l 1
 671 36 l 1
 542 220 l 1
 395 73 l 1
 550 73 l 1
 550 -1 l 1
 269 -1 l 1
 250 32 l 1
 290 73 l 1
 291 73 l 1
 499 281 l 1
 364 475 l 1
EndSplineSet
EndChar

StartChar: sym048_uni0338
Encoding: 83 -1 83
Width: 1089
Flags: W
VStem: 269 74<270 425> 747 74<125 280>
LayerCount: 2
Back
Fore
SplineSet
457 8 m 1
 397 36 l 1
 503 265 l 1
 343 425 l 1
 343 270 l 1
 269 270 l 1
 269 551 l 1
 302 570 l 1
 536 336 l 1
 632 542 l 1
 693 514 l 1
 586 286 l 1
 747 125 l 1
 747 280 l 1
 821 280 l 1
 821 -1 l 1
 788 -20 l 1
 553 215 l 1
 457 8 l 1
EndSplineSet
EndChar

StartChar: uni294A0338
Encoding: 84 -1 84
Width: 930
Flags: W
HStem: 1 21G<346.217 408.257> 238 74<216 416 514 714> 529 20G<521.743 583.783>
LayerCount: 2
Back
Fore
SplineSet
529 549 m 1
 592 526 l 1
 514 312 l 1
 845 312 l 1
 855 275 l 1
 657 76 l 1
 604 129 l 1
 714 238 l 1
 487 238 l 1
 401 1 l 1
 338 24 l 1
 416 238 l 1
 85 238 l 1
 75 275 l 1
 273 474 l 1
 326 421 l 1
 216 312 l 1
 443 312 l 1
 529 549 l 1
EndSplineSet
EndChar

StartChar: uni294C0338
Encoding: 85 -1 85
Width: 716
Flags: W
VStem: 321 74<26 235 315 524>
LayerCount: 2
Back
Fore
SplineSet
100 196 m 1
 88 261 l 1
 321 302 l 1
 321 655 l 1
 358 665 l 1
 557 467 l 1
 504 414 l 1
 395 524 l 1
 395 315 l 1
 616 354 l 1
 628 289 l 1
 395 248 l 1
 395 -105 l 1
 358 -115 l 1
 159 83 l 1
 212 136 l 1
 321 26 l 1
 321 235 l 1
 100 196 l 1
EndSplineSet
EndChar

StartChar: sym04B_uni0338
Encoding: 86 -1 86
Width: 1089
Flags: W
VStem: 269 74<125 280> 747 74<270 425>
LayerCount: 2
Back
Fore
SplineSet
397 514 m 1
 457 542 l 1
 553 335 l 1
 788 570 l 1
 821 551 l 1
 821 270 l 1
 747 270 l 1
 747 425 l 1
 586 264 l 1
 693 36 l 1
 632 8 l 1
 536 214 l 1
 302 -20 l 1
 269 -1 l 1
 269 280 l 1
 343 280 l 1
 343 125 l 1
 503 285 l 1
 397 514 l 1
EndSplineSet
EndChar

StartChar: sym04A_uni0338
Encoding: 87 -1 87
Width: 1089
Flags: W
HStem: -1 74<540 695> 477 74<290 291 395 550>
LayerCount: 2
Back
Fore
SplineSet
418 36 m 1
 364 75 l 1
 499 269 l 1
 291 477 l 1
 290 477 l 1
 250 518 l 1
 269 551 l 1
 550 551 l 1
 550 477 l 1
 395 477 l 1
 542 330 l 1
 671 514 l 1
 726 475 l 1
 590 282 l 1
 840 32 l 1
 821 -1 l 1
 540 -1 l 1
 540 73 l 1
 695 73 l 1
 547 221 l 1
 418 36 l 1
EndSplineSet
EndChar

StartChar: uni21CC0338
Encoding: 88 -1 88
Width: 930
Flags: W
HStem: 142 74<216 408 488 840> 334 74<90 442 522 714>
LayerCount: 2
Back
Fore
SplineSet
496 641 m 1
 561 629 l 1
 522 408 l 1
 714 408 l 1
 604 518 l 1
 657 570 l 1
 855 371 l 1
 845 334 l 1
 509 334 l 1
 488 216 l 1
 840 216 l 1
 840 142 l 1
 475 142 l 1
 434 -91 l 1
 369 -79 l 1
 408 142 l 1
 216 142 l 1
 326 32 l 1
 273 -20 l 1
 75 179 l 1
 85 216 l 1
 421 216 l 1
 442 334 l 1
 90 334 l 1
 90 408 l 1
 455 408 l 1
 496 641 l 1
EndSplineSet
EndChar

StartChar: uni296E0338
Encoding: 89 -1 89
Width: 908
Flags: W
VStem: 321 74<-100 191 289 524> 513 74<26 261 359 650>
LayerCount: 2
Back
Fore
SplineSet
107 113 m 1
 84 176 l 1
 321 262 l 1
 321 524 l 1
 212 414 l 1
 159 467 l 1
 358 665 l 1
 395 655 l 1
 395 289 l 1
 513 332 l 1
 513 650 l 1
 587 650 l 1
 587 359 l 1
 801 437 l 1
 824 374 l 1
 587 288 l 1
 587 26 l 1
 697 136 l 1
 749 83 l 1
 550 -115 l 1
 513 -105 l 1
 513 261 l 1
 395 218 l 1
 395 -100 l 1
 321 -100 l 1
 321 191 l 1
 107 113 l 1
EndSplineSet
EndChar

StartChar: sym04D_uni0338
Encoding: 90 -1 90
Width: 1225
Flags: W
HStem: -69 74<426 427 531 686> 545 74<540 695>
LayerCount: 2
Back
Fore
SplineSet
376 555 m 1
 430 594 l 1
 559 410 l 1
 695 545 l 1
 540 545 l 1
 540 619 l 1
 821 619 l 1
 840 586 l 1
 602 348 l 1
 672 250 l 1
 920 498 l 1
 972 446 l 1
 714 188 l 1
 850 -5 l 1
 795 -44 l 1
 666 140 l 1
 531 5 l 1
 686 5 l 1
 686 -69 l 1
 405 -69 l 1
 386 -36 l 1
 426 5 l 1
 427 5 l 1
 623 201 l 1
 554 300 l 1
 306 52 l 1
 253 104 l 1
 511 362 l 1
 376 555 l 1
EndSplineSet
EndChar

StartChar: sym04C_uni0338
Encoding: 91 -1 91
Width: 1225
Flags: W
VStem: 269 74<202 357> 883 74<193 348>
LayerCount: 2
Back
Fore
SplineSet
482 -85 m 1
 421 -57 l 1
 528 172 l 1
 343 357 l 1
 343 202 l 1
 269 202 l 1
 269 483 l 1
 302 502 l 1
 561 243 l 1
 614 357 l 1
 389 582 l 1
 442 634 l 1
 648 428 l 1
 744 635 l 1
 804 607 l 1
 698 378 l 1
 883 193 l 1
 883 348 l 1
 957 348 l 1
 957 67 l 1
 924 48 l 1
 838 134 751 221 664 307 c 1
 611 193 l 1
 836 -32 l 1
 784 -84 l 1
 578 122 l 1
 482 -85 l 1
EndSplineSet
EndChar

StartChar: uni21CB0338
Encoding: 92 -1 92
Width: 930
Flags: W
HStem: 142 74<90 381 479 714> 334 74<216 451 549 840>
LayerCount: 2
Back
Fore
SplineSet
564 645 m 1
 627 622 l 1
 549 408 l 1
 840 408 l 1
 840 334 l 1
 522 334 l 1
 479 216 l 1
 845 216 l 1
 855 179 l 1
 657 -20 l 1
 604 32 l 1
 714 142 l 1
 452 142 l 1
 366 -95 l 1
 303 -72 l 1
 381 142 l 1
 90 142 l 1
 90 216 l 1
 408 216 l 1
 451 334 l 1
 85 334 l 1
 75 371 l 1
 273 570 l 1
 326 518 l 1
 216 408 l 1
 478 408 l 1
 564 645 l 1
EndSplineSet
EndChar

StartChar: uni296F0338
Encoding: 93 -1 93
Width: 908
Flags: W
VStem: 321 74<26 218 298 650> 513 74<-100 252 332 524>
LayerCount: 2
Back
Fore
SplineSet
100 179 m 1
 88 244 l 1
 321 285 l 1
 321 650 l 1
 395 650 l 1
 395 298 l 1
 513 319 l 1
 513 655 l 1
 550 665 l 1
 749 467 l 1
 697 414 l 1
 587 524 l 1
 587 332 l 1
 809 371 l 1
 820 306 l 1
 587 265 l 1
 587 -100 l 1
 513 -100 l 1
 513 252 l 1
 395 231 l 1
 395 -105 l 1
 358 -115 l 1
 159 83 l 1
 212 136 l 1
 321 26 l 1
 321 218 l 1
 100 179 l 1
EndSplineSet
EndChar

StartChar: sym04F_uni0338
Encoding: 94 -1 94
Width: 1225
Flags: W
VStem: 269 74<193 348> 883 74<202 357>
LayerCount: 2
Back
Fore
SplineSet
421 607 m 1
 482 635 l 1
 578 428 l 1
 784 634 l 1
 836 582 l 1
 611 357 l 1
 664 243 l 1
 751 329 838 416 924 502 c 1
 957 483 l 1
 957 202 l 1
 883 202 l 1
 883 357 l 1
 698 172 l 1
 804 -57 l 1
 744 -85 l 1
 648 122 l 1
 442 -84 l 1
 389 -32 l 1
 614 193 l 1
 561 307 l 1
 302 48 l 1
 269 67 l 1
 269 348 l 1
 343 348 l 1
 343 193 l 1
 528 378 l 1
 421 607 l 1
EndSplineSet
EndChar

StartChar: sym04E_uni0338
Encoding: 95 -1 95
Width: 1225
Flags: W
HStem: -69 74<540 695> 545 74<426 427 531 686>
LayerCount: 2
Back
Fore
SplineSet
430 -44 m 1
 376 -5 l 1
 511 188 l 1
 253 446 l 1
 306 498 l 1
 554 250 l 1
 623 349 l 1
 427 545 l 1
 426 545 l 1
 386 586 l 1
 405 619 l 1
 686 619 l 1
 686 545 l 1
 531 545 l 1
 666 410 l 1
 795 594 l 1
 850 555 l 1
 714 362 l 1
 972 104 l 1
 920 52 l 1
 672 300 l 1
 602 202 l 1
 840 -36 l 1
 821 -69 l 1
 540 -69 l 1
 540 5 l 1
 695 5 l 1
 559 140 l 1
 430 -44 l 1
EndSplineSet
EndChar

StartChar: uni21E20338
Encoding: 96 -1 96
Width: 930
Flags: W
HStem: 1 21G<296.087 357.276> 238 74<90 262 566 714> 529 20G<470.762 532.783>
LayerCount: 2
Back
Fore
SplineSet
90 238 m 1
 90 312 l 1
 262 312 l 1
 262 238 l 1
 90 238 l 1
855 275 m 1
 675 95 l 1
 623 147 l 1
 714 238 l 1
 566 238 l 1
 566 312 l 1
 714 312 l 1
 623 403 l 1
 675 455 l 1
 855 275 l 1
478 549 m 1
 541 526 l 1
 350 1 l 1
 288 24 l 1
 478 549 l 1
EndSplineSet
EndChar

StartChar: uni21E10338
Encoding: 97 -1 97
Width: 716
Flags: W
VStem: 321 74<-100 72 376 524>
LayerCount: 2
Back
Fore
SplineSet
395 -100 m 1
 321 -100 l 1
 321 72 l 1
 395 72 l 1
 395 -100 l 1
358 665 m 1
 538 485 l 1
 486 433 l 1
 395 524 l 1
 395 376 l 1
 321 376 l 1
 321 524 l 1
 230 433 l 1
 178 485 l 1
 358 665 l 1
107 98 m 1
 84 160 l 1
 609 351 l 1
 632 288 l 1
 107 98 l 1
EndSplineSet
EndChar

StartChar: uni21E00338
Encoding: 98 -1 98
Width: 930
Flags: W
HStem: 1 21G<397.217 459.238> 238 74<216 364 668 840> 529 20G<572.724 633.913>
LayerCount: 2
Back
Fore
SplineSet
840 312 m 1
 840 238 l 1
 668 238 l 1
 668 312 l 1
 840 312 l 1
75 275 m 1
 255 455 l 1
 307 403 l 1
 216 312 l 1
 364 312 l 1
 364 238 l 1
 216 238 l 1
 307 147 l 1
 255 95 l 1
 75 275 l 1
452 1 m 1
 389 24 l 1
 580 549 l 1
 642 526 l 1
 452 1 l 1
EndSplineSet
EndChar

StartChar: uni21E30338
Encoding: 99 -1 99
Width: 716
Flags: W
VStem: 321 74<26 174 478 650>
LayerCount: 2
Back
Fore
SplineSet
321 650 m 1
 395 650 l 1
 395 478 l 1
 321 478 l 1
 321 650 l 1
358 -115 m 1
 178 65 l 1
 230 117 l 1
 321 26 l 1
 321 174 l 1
 395 174 l 1
 395 26 l 1
 486 117 l 1
 538 65 l 1
 358 -115 l 1
609 452 m 1
 632 390 l 1
 107 199 l 1
 84 262 l 1
 609 452 l 1
EndSplineSet
EndChar

StartChar: sym051_uni0338
Encoding: 100 -1 100
Width: 1089
Flags: W
HStem: 477 74<566 695>
VStem: 747 74<296 425>
LayerCount: 2
Back
Fore
SplineSet
306 -16 m 1
 253 36 l 1
 375 158 l 1
 427 105 l 1
 306 -16 l 1
821 551 m 1
 821 296 l 1
 747 296 l 1
 747 425 l 1
 643 321 l 1
 590 373 l 1
 695 477 l 1
 566 477 l 1
 566 551 l 1
 821 551 l 1
361 478 m 1
 421 506 l 1
 657 0 l 1
 597 -28 l 1
 361 478 l 1
EndSplineSet
EndChar

StartChar: sym050_uni0338
Encoding: 101 -1 101
Width: 1089
Flags: W
HStem: 477 74<395 523>
VStem: 269 74<296 425>
LayerCount: 2
Back
Fore
SplineSet
836 36 m 1
 784 -16 l 1
 662 105 l 1
 714 158 l 1
 836 36 l 1
269 551 m 1
 523 551 l 1
 523 477 l 1
 395 477 l 1
 499 373 l 1
 447 321 l 1
 343 425 l 1
 343 296 l 1
 269 296 l 1
 269 551 l 1
493 -28 m 1
 432 0 l 1
 668 506 l 1
 729 478 l 1
 493 -28 l 1
EndSplineSet
EndChar

StartChar: sym053_uni0338
Encoding: 102 -1 102
Width: 1089
Flags: W
HStem: -1 74<395 523>
VStem: 269 74<125 254>
LayerCount: 2
Back
Fore
SplineSet
784 566 m 1
 836 514 l 1
 714 392 l 1
 662 445 l 1
 784 566 l 1
269 -1 m 1
 269 254 l 1
 343 254 l 1
 343 125 l 1
 447 229 l 1
 499 177 l 1
 395 73 l 1
 523 73 l 1
 523 -1 l 1
 269 -1 l 1
729 72 m 1
 668 44 l 1
 432 550 l 1
 493 578 l 1
 729 72 l 1
EndSplineSet
EndChar

StartChar: sym052_uni0338
Encoding: 103 -1 103
Width: 1089
Flags: W
HStem: -1 74<566 695>
VStem: 747 74<125 254>
LayerCount: 2
Back
Fore
SplineSet
253 514 m 1
 306 566 l 1
 427 445 l 1
 375 392 l 1
 253 514 l 1
821 -1 m 1
 566 -1 l 1
 566 73 l 1
 695 73 l 1
 590 177 l 1
 643 229 l 1
 747 125 l 1
 747 254 l 1
 821 254 l 1
 821 -1 l 1
597 578 m 1
 657 550 l 1
 421 44 l 1
 361 72 l 1
 597 578 l 1
EndSplineSet
EndChar

StartChar: uni22B80338
Encoding: 104 -1 104
Width: 930
Flags: W
HStem: 1 21G<223.217 285.257> 115 74<624.867 735.273> 238 74<90 293 391 530.926> 361 74<624.867 735.273> 529 20G<398.743 460.783>
VStem: 766 74<219.727 330.273>
LayerCount: 2
Back
Fore
SplineSet
680 189 m 0
 727 189 766 228 766 275 c 0
 766 322 727 361 680 361 c 0
 633 361 594 322 594 275 c 0
 594 228 633 189 680 189 c 0
680 115 m 0
 604 115 540 171 524 238 c 1
 364 238 l 1
 278 1 l 1
 215 24 l 1
 293 238 l 1
 90 238 l 1
 90 312 l 1
 320 312 l 1
 406 549 l 1
 469 526 l 1
 391 312 l 1
 524 312 l 1
 540 379 604 435 680 435 c 0
 767 435 840 362 840 275 c 0
 840 188 767 115 680 115 c 0
EndSplineSet
EndChar

StartChar: uni2AEF0338
Encoding: 105 -1 105
Width: 716
Flags: W
HStem: 576 74<302.727 413.273>
VStem: 198 74<434.867 545.273> 321 74<-100 103 201 340.926> 444 74<434.867 545.273>
CounterMasks: 1 70
LayerCount: 2
Back
Fore
SplineSet
358 404 m 0
 405 404 444 443 444 490 c 0
 444 537 405 576 358 576 c 0
 311 576 272 537 272 490 c 0
 272 443 311 404 358 404 c 0
518 490 m 0
 518 414 462 350 395 334 c 1
 395 201 l 1
 609 279 l 1
 632 216 l 1
 395 130 l 1
 395 -100 l 1
 321 -100 l 1
 321 103 l 1
 107 25 l 1
 84 88 l 1
 321 174 l 1
 321 334 l 1
 254 350 198 414 198 490 c 0
 198 577 271 650 358 650 c 0
 445 650 518 577 518 490 c 0
EndSplineSet
EndChar

StartChar: uni27DC0338
Encoding: 106 -1 106
Width: 930
Flags: W
HStem: 1 21G<469.217 531.257> 115 74<194.727 305.133> 238 74<399.074 539 637 840> 361 74<194.727 305.133> 529 20G<644.743 706.783>
VStem: 90 74<219.727 330.273>
LayerCount: 2
Back
Fore
SplineSet
250 189 m 0
 297 189 336 228 336 275 c 0
 336 322 297 361 250 361 c 0
 203 361 164 322 164 275 c 0
 164 228 203 189 250 189 c 0
250 435 m 0
 326 435 390 379 406 312 c 1
 566 312 l 1
 652 549 l 1
 715 526 l 1
 637 312 l 1
 840 312 l 1
 840 238 l 1
 610 238 l 1
 524 1 l 1
 461 24 l 1
 539 238 l 1
 406 238 l 1
 390 171 326 115 250 115 c 0
 163 115 90 188 90 275 c 0
 90 362 163 435 250 435 c 0
EndSplineSet
EndChar

StartChar: uni2AF00338
Encoding: 107 -1 107
Width: 716
Flags: W
HStem: -100 74<302.727 413.273>
VStem: 198 74<4.72742 115.133> 321 74<209.074 349 447 650> 444 74<4.72742 115.133>
CounterMasks: 1 70
LayerCount: 2
Back
Fore
SplineSet
358 -26 m 0
 405 -26 444 13 444 60 c 0
 444 107 405 146 358 146 c 0
 311 146 272 107 272 60 c 0
 272 13 311 -26 358 -26 c 0
198 60 m 0
 198 136 254 200 321 216 c 1
 321 349 l 1
 107 271 l 1
 84 334 l 1
 321 420 l 1
 321 650 l 1
 395 650 l 1
 395 447 l 1
 609 525 l 1
 632 462 l 1
 395 376 l 1
 395 216 l 1
 462 200 518 136 518 60 c 0
 518 -27 445 -100 358 -100 c 0
 271 -100 198 -27 198 60 c 0
EndSplineSet
EndChar

StartChar: sym054_uni0338
Encoding: 108 -1 108
Width: 930
Flags: W
HStem: 1 21G<223.217 285.257> 115 320<601.461 759.034> 238 74<90 293 391 530.926> 529 20G<398.743 460.783>
LayerCount: 2
Back
Fore
SplineSet
680 115 m 0xd0
 604 115 540 171 524 238 c 1
 364 238 l 1
 278 1 l 1
 215 24 l 1
 293 238 l 1
 90 238 l 1
 90 312 l 1
 320 312 l 1
 406 549 l 1
 469 526 l 1
 391 312 l 1
 524 312 l 1xb0
 540 379 604 435 680 435 c 0
 767 435 840 362 840 275 c 0
 840 188 767 115 680 115 c 0xd0
EndSplineSet
EndChar

StartChar: sym056_uni0338
Encoding: 109 -1 109
Width: 716
Flags: W
VStem: 198 320<411.461 569.034> 321 74<-100 103 201 340.926>
LayerCount: 2
Back
Fore
SplineSet
518 490 m 0x80
 518 414 462 350 395 334 c 1
 395 201 l 1
 609 279 l 1
 632 216 l 1
 395 130 l 1
 395 -100 l 1
 321 -100 l 1
 321 103 l 1
 107 25 l 1
 84 88 l 1
 321 174 l 1
 321 334 l 1x40
 254 350 198 414 198 490 c 0
 198 577 271 650 358 650 c 0
 445 650 518 577 518 490 c 0x80
EndSplineSet
EndChar

StartChar: sym055_uni0338
Encoding: 110 -1 110
Width: 930
Flags: W
HStem: 1 21G<469.217 531.257> 115 320<170.966 328.539> 238 74<399.074 539 637 840> 529 20G<644.743 706.783>
LayerCount: 2
Back
Fore
SplineSet
250 435 m 0xd0
 326 435 390 379 406 312 c 1
 566 312 l 1
 652 549 l 1
 715 526 l 1
 637 312 l 1
 840 312 l 1
 840 238 l 1
 610 238 l 1
 524 1 l 1
 461 24 l 1
 539 238 l 1
 406 238 l 1xb0
 390 171 326 115 250 115 c 0
 163 115 90 188 90 275 c 0
 90 362 163 435 250 435 c 0xd0
EndSplineSet
EndChar

StartChar: sym057_uni0338
Encoding: 111 -1 111
Width: 716
Flags: W
VStem: 198 320<-19.0343 138.539> 321 74<209.074 349 447 650>
LayerCount: 2
Back
Fore
SplineSet
198 60 m 0x80
 198 136 254 200 321 216 c 1
 321 349 l 1
 107 271 l 1
 84 334 l 1
 321 420 l 1
 321 650 l 1
 395 650 l 1
 395 447 l 1
 609 525 l 1
 632 462 l 1
 395 376 l 1
 395 216 l 1x40
 462 200 518 136 518 60 c 0
 518 -27 445 -100 358 -100 c 0
 271 -100 198 -27 198 60 c 0x80
EndSplineSet
EndChar

StartChar: uni29DF0338
Encoding: 112 -1 112
Width: 1230
Flags: W
HStem: 1 21G<496.217 558.257> 115 74<194.727 305.133 924.867 1035.27> 238 74<399.074 566 664 830.926> 361 74<194.727 305.133 924.867 1035.27> 529 20G<671.743 733.783>
VStem: 90 74<219.727 330.273> 1066 74<219.727 330.273>
LayerCount: 2
Back
Fore
SplineSet
980 189 m 0
 1027 189 1066 228 1066 275 c 0
 1066 322 1027 361 980 361 c 0
 933 361 894 322 894 275 c 0
 894 228 933 189 980 189 c 0
250 189 m 0
 297 189 336 228 336 275 c 0
 336 322 297 361 250 361 c 0
 203 361 164 322 164 275 c 0
 164 228 203 189 250 189 c 0
250 435 m 0
 326 435 390 379 406 312 c 1
 593 312 l 1
 679 549 l 1
 742 526 l 1
 664 312 l 1
 824 312 l 1
 840 379 904 435 980 435 c 0
 1067 435 1140 362 1140 275 c 0
 1140 188 1067 115 980 115 c 0
 904 115 840 171 824 238 c 1
 637 238 l 1
 551 1 l 1
 488 24 l 1
 566 238 l 1
 406 238 l 1
 390 171 326 115 250 115 c 0
 163 115 90 188 90 275 c 0
 90 362 163 435 250 435 c 0
EndSplineSet
EndChar

StartChar: sym058_uni0338
Encoding: 113 -1 113
Width: 1230
Flags: W
HStem: 1 21G<496.217 558.257> 115 320<170.966 328.539 901.461 1059.03> 238 74<399.074 566 664 830.926> 529 20G<671.743 733.783>
LayerCount: 2
Back
Fore
SplineSet
250 435 m 0xd0
 326 435 390 379 406 312 c 1
 593 312 l 1
 679 549 l 1
 742 526 l 1
 664 312 l 1
 824 312 l 1xb0
 840 379 904 435 980 435 c 0
 1067 435 1140 362 1140 275 c 0
 1140 188 1067 115 980 115 c 0xd0
 904 115 840 171 824 238 c 1
 637 238 l 1
 551 1 l 1
 488 24 l 1
 566 238 l 1
 406 238 l 1xb0
 390 171 326 115 250 115 c 0
 163 115 90 188 90 275 c 0
 90 362 163 435 250 435 c 0xd0
EndSplineSet
EndChar

StartChar: uni22B70338
Encoding: 114 -1 114
Width: 1230
Flags: W
HStem: 1 21G<496.217 558.257> 115 320<170.966 328.539> 115 74<924.867 1035.27> 238 74<399.074 566 664 830.926> 361 74<924.867 1035.27> 529 20G<671.743 733.783>
VStem: 1066 74<219.727 330.273>
LayerCount: 2
Back
Fore
SplineSet
980 189 m 0xae
 1027 189 1066 228 1066 275 c 0
 1066 322 1027 361 980 361 c 0
 933 361 894 322 894 275 c 0
 894 228 933 189 980 189 c 0xae
250 435 m 0xc6
 326 435 390 379 406 312 c 1
 593 312 l 1
 679 549 l 1
 742 526 l 1
 664 312 l 1
 824 312 l 1
 840 379 904 435 980 435 c 0
 1067 435 1140 362 1140 275 c 0
 1140 188 1067 115 980 115 c 0
 904 115 840 171 824 238 c 1
 637 238 l 1
 551 1 l 1
 488 24 l 1
 566 238 l 1
 406 238 l 1xbe
 390 171 326 115 250 115 c 0
 163 115 90 188 90 275 c 0
 90 362 163 435 250 435 c 0xc6
EndSplineSet
EndChar

StartChar: uni22B60338
Encoding: 115 -1 115
Width: 1230
Flags: W
HStem: 1 21G<496.217 558.257> 115 320<901.461 1059.03> 115 74<194.727 305.133> 238 74<399.074 566 664 830.926> 361 74<194.727 305.133> 529 20G<671.743 733.783>
VStem: 90 74<219.727 330.273>
LayerCount: 2
Back
Fore
SplineSet
250 189 m 0xae
 297 189 336 228 336 275 c 0
 336 322 297 361 250 361 c 0
 203 361 164 322 164 275 c 0
 164 228 203 189 250 189 c 0xae
980 115 m 0xc6
 904 115 840 171 824 238 c 1
 637 238 l 1
 551 1 l 1
 488 24 l 1
 566 238 l 1
 406 238 l 1
 390 171 326 115 250 115 c 0
 163 115 90 188 90 275 c 0
 90 362 163 435 250 435 c 0
 326 435 390 379 406 312 c 1
 593 312 l 1
 679 549 l 1
 742 526 l 1
 664 312 l 1
 824 312 l 1xbe
 840 379 904 435 980 435 c 0
 1067 435 1140 362 1140 275 c 0
 1140 188 1067 115 980 115 c 0xc6
EndSplineSet
EndChar

StartChar: sym05A_uni0338
Encoding: 116 -1 116
Width: 930
Flags: W
HStem: 35 74<90 220 300 362.32> 238 74<90 256 336 425 496.734 840> 441 74<90 292>
VStem: 425 75<178.419 238 312 373.172>
CounterMasks: 1 e0
LayerCount: 2
Back
Fore
SplineSet
300 109 m 1
 301 109 l 2
 368 109 413 168 425 238 c 1
 323 238 l 1
 300 109 l 1
356 426 m 1
 336 312 l 1
 425 312 l 1
 417 361 392 404 356 426 c 1
332 670 m 1
 397 659 l 1
 369 501 l 1
 440 471 489 397 500 312 c 1
 840 312 l 1
 840 238 l 1
 500 238 l 1
 486 128 408 35 301 35 c 2
 287 35 l 1
 260 -120 l 1
 195 -109 l 1
 220 35 l 1
 90 35 l 1
 90 109 l 1
 233 109 l 1
 256 238 l 1
 90 238 l 1
 90 312 l 1
 269 312 l 1
 292 441 l 1
 90 441 l 1
 90 515 l 1
 301 515 l 2
 302 515 304 515 305 515 c 1
 332 670 l 1
EndSplineSet
EndChar

StartChar: uni22D40338
Encoding: 117 -1 117
Width: 967
Flags: W
HStem: 235 75<387.419 447 521 582.016>
VStem: 244 74<-100 30 110 172.32> 447 74<-100 66 146 235 306.734 650> 649 74<-100 102>
LayerCount: 2
Back
Fore
SplineSet
634 166 m 1
 612 202 569 227 521 235 c 1
 521 146 l 1
 634 166 l 1
318 110 m 1
 447 133 l 1
 447 235 l 1
 376 223 318 178 318 111 c 2
 318 110 l 1
100 5 m 1
 88 70 l 1
 244 97 l 1
 244 111 l 2
 244 218 337 296 447 310 c 1
 447 650 l 1
 521 650 l 1
 521 310 l 1
 606 299 679 250 709 179 c 1
 867 207 l 1
 879 142 l 1
 723 115 l 1
 723 114 723 112 723 111 c 2
 723 -100 l 1
 649 -100 l 1
 649 102 l 1
 521 79 l 1
 521 -100 l 1
 447 -100 l 1
 447 66 l 1
 318 43 l 1
 318 -100 l 1
 244 -100 l 1
 244 30 l 1
 100 5 l 1
EndSplineSet
EndChar

StartChar: sym05B_uni0338
Encoding: 118 -1 118
Width: 930
Flags: W
HStem: 35 74<638 840> 238 74<90 433.266 505 594 674 840> 441 74<567.68 630 710 840>
VStem: 430 75<176.828 238 312 371.581>
CounterMasks: 1 e0
LayerCount: 2
Back
Fore
SplineSet
630 441 m 1
 629 441 l 2
 562 441 517 382 505 312 c 1
 607 312 l 1
 630 441 l 1
574 124 m 1
 594 238 l 1
 505 238 l 1
 513 189 538 146 574 124 c 1
598 -120 m 1
 533 -109 l 1
 561 49 l 1
 490 79 441 153 430 238 c 1
 90 238 l 1
 90 312 l 1
 430 312 l 1
 444 422 522 515 629 515 c 2
 643 515 l 1
 670 670 l 1
 735 659 l 1
 710 515 l 1
 840 515 l 1
 840 441 l 1
 697 441 l 1
 674 312 l 1
 840 312 l 1
 840 238 l 1
 661 238 l 1
 638 109 l 1
 840 109 l 1
 840 35 l 1
 629 35 l 2
 628 35 626 35 625 35 c 1
 598 -120 l 1
EndSplineSet
EndChar

StartChar: sym059_uni0338
Encoding: 119 -1 119
Width: 967
Flags: W
HStem: 240 75<385.828 447 521 580.489> 525 20G<751.8 870.692>
VStem: 244 74<448 650> 447 74<-100 243.266 315 404 484 650> 649 74<377.68 440 520 650>
LayerCount: 2
Back
Fore
SplineSet
333 384 m 1
 355 348 398 323 447 315 c 1
 447 404 l 1
 333 384 l 1
649 440 m 1
 521 417 l 1
 521 315 l 1
 591 327 649 372 649 439 c 2
 649 440 l 1
867 545 m 1
 879 480 l 1
 723 453 l 1
 723 439 l 2
 723 332 631 254 521 240 c 1
 521 -100 l 1
 447 -100 l 1
 447 240 l 1
 362 251 288 300 258 371 c 1
 100 343 l 1
 88 408 l 1
 244 435 l 1
 244 436 244 438 244 439 c 2
 244 650 l 1
 318 650 l 1
 318 448 l 1
 447 471 l 1
 447 650 l 1
 521 650 l 1
 521 484 l 1
 649 507 l 1
 649 650 l 1
 723 650 l 1
 723 520 l 1
 867 545 l 1
EndSplineSet
EndChar

StartChar: uni21C90338
Encoding: 120 -1 120
Width: 930
Flags: W
HStem: 84 74<90 283 381 714> 392 74<90 395 493 714>
LayerCount: 2
Back
Fore
SplineSet
649 275 m 1
 623 301 l 1
 714 392 l 1
 466 392 l 1
 381 158 l 1
 714 158 l 1
 623 249 l 1
 649 275 l 1
480 626 m 1
 543 603 l 1
 493 466 l 1
 714 466 l 1
 623 557 l 1
 675 609 l 1
 855 429 l 1
 701 275 l 1
 855 121 l 1
 675 -59 l 1
 623 -7 l 1
 714 84 l 1
 354 84 l 1
 296 -76 l 1
 233 -53 l 1
 283 84 l 1
 90 84 l 1
 90 158 l 1
 310 158 l 1
 395 392 l 1
 90 392 l 1
 90 466 l 1
 422 466 l 1
 480 626 l 1
EndSplineSet
EndChar

StartChar: uni21C80338
Encoding: 121 -1 121
Width: 870
Flags: W
VStem: 244 74<-100 93 191 524> 552 74<-100 205 303 524>
LayerCount: 2
Back
Fore
SplineSet
435 459 m 1
 409 433 l 1
 318 524 l 1
 318 191 l 1
 552 276 l 1
 552 524 l 1
 461 433 l 1
 435 459 l 1
107 43 m 1
 84 106 l 1
 244 164 l 1
 244 524 l 1
 153 433 l 1
 101 485 l 1
 281 665 l 1
 435 511 l 1
 589 665 l 1
 769 485 l 1
 717 433 l 1
 626 524 l 1
 626 303 l 1
 763 353 l 1
 786 290 l 1
 626 232 l 1
 626 -100 l 1
 552 -100 l 1
 552 205 l 1
 318 120 l 1
 318 -100 l 1
 244 -100 l 1
 244 93 l 1
 107 43 l 1
EndSplineSet
EndChar

StartChar: uni21C70338
Encoding: 122 -1 122
Width: 930
Flags: W
HStem: 84 74<216 437 535 840> 392 74<216 549 647 840>
LayerCount: 2
Back
Fore
SplineSet
281 275 m 1
 307 249 l 1
 216 158 l 1
 464 158 l 1
 549 392 l 1
 216 392 l 1
 307 301 l 1
 281 275 l 1
450 -76 m 1
 387 -53 l 1
 437 84 l 1
 216 84 l 1
 307 -7 l 1
 255 -59 l 1
 75 121 l 1
 229 275 l 1
 75 429 l 1
 255 609 l 1
 307 557 l 1
 216 466 l 1
 576 466 l 1
 634 626 l 1
 697 603 l 1
 647 466 l 1
 840 466 l 1
 840 392 l 1
 620 392 l 1
 535 158 l 1
 840 158 l 1
 840 84 l 1
 508 84 l 1
 450 -76 l 1
EndSplineSet
EndChar

StartChar: uni21CA0338
Encoding: 123 -1 123
Width: 870
Flags: W
VStem: 244 74<26 247 345 650> 552 74<26 359 457 650>
LayerCount: 2
Back
Fore
SplineSet
435 91 m 1
 461 117 l 1
 552 26 l 1
 552 359 l 1
 318 274 l 1
 318 26 l 1
 409 117 l 1
 435 91 l 1
763 507 m 1
 786 444 l 1
 626 386 l 1
 626 26 l 1
 717 117 l 1
 769 65 l 1
 589 -115 l 1
 435 39 l 1
 281 -115 l 1
 101 65 l 1
 153 117 l 1
 244 26 l 1
 244 247 l 1
 107 197 l 1
 84 260 l 1
 244 318 l 1
 244 650 l 1
 318 650 l 1
 318 345 l 1
 552 430 l 1
 552 650 l 1
 626 650 l 1
 626 457 l 1
 763 507 l 1
EndSplineSet
EndChar

StartChar: sym05D_uni0338
Encoding: 124 -1 124
Width: 1198
Flags: W
HStem: 368 74<766 858> 586 74<511 640>
VStem: 692 74<442 534> 910 74<187 316>
LayerCount: 2
Back
Fore
SplineSet
729 405 m 1
 692 405 l 1
 692 534 l 1
 517 359 l 1
 622 132 l 1
 858 368 l 1
 729 368 l 1
 729 405 l 1
362 534 m 1
 422 562 l 1
 484 430 l 1
 640 586 l 1
 511 586 l 1
 511 660 l 1
 766 660 l 1
 766 442 l 1
 984 442 l 1
 984 187 l 1
 910 187 l 1
 910 316 l 1
 655 61 l 1
 727 -93 l 1
 667 -121 l 1
 605 11 l 1
 469 -125 l 1
 417 -73 l 1
 572 82 l 1
 467 309 l 1
 251 93 l 1
 199 145 l 1
 434 380 l 1
 362 534 l 1
EndSplineSet
EndChar

StartChar: sym05C_uni0338
Encoding: 125 -1 125
Width: 1198
Flags: W
HStem: 368 74<340 432> 586 74<558 687>
VStem: 214 74<187 316> 432 74<442 534>
LayerCount: 2
Back
Fore
SplineSet
469 405 m 1
 469 368 l 1
 340 368 l 1
 576 133 l 1
 681 359 l 1
 506 534 l 1
 506 405 l 1
 469 405 l 1
531 -121 m 1
 471 -93 l 1
 543 61 l 1
 288 316 l 1
 288 187 l 1
 214 187 l 1
 214 442 l 1
 432 442 l 1
 432 660 l 1
 687 660 l 1
 687 586 l 1
 558 586 l 1
 714 430 l 1
 776 562 l 1
 836 534 l 1
 764 380 l 1
 999 145 l 1
 947 93 l 1
 731 309 l 1
 626 83 l 1
 782 -73 l 1
 729 -125 l 1
 593 11 l 1
 531 -121 l 1
EndSplineSet
EndChar

StartChar: sym05F_uni0338
Encoding: 126 -1 126
Width: 1198
Flags: W
HStem: -110 74<558 687> 108 74<340 432>
VStem: 214 74<234 363> 432 74<16 108>
LayerCount: 2
Back
Fore
SplineSet
469 145 m 1
 506 145 l 1
 506 16 l 1
 681 191 l 1
 576 417 l 1
 340 182 l 1
 469 182 l 1
 469 145 l 1
836 16 m 1
 776 -12 l 1
 714 120 l 1
 558 -36 l 1
 687 -36 l 1
 687 -110 l 1
 432 -110 l 1
 432 108 l 1
 214 108 l 1
 214 363 l 1
 288 363 l 1
 288 234 l 1
 543 489 l 1
 471 643 l 1
 531 671 l 1
 593 539 l 1
 729 675 l 1
 782 623 l 1
 626 467 l 1
 731 241 l 1
 947 457 l 1
 999 405 l 1
 764 170 l 1
 836 16 l 1
EndSplineSet
EndChar

StartChar: sym05E_uni0338
Encoding: 127 -1 127
Width: 1198
Flags: W
HStem: -110 74<511 640> 108 74<766 858>
VStem: 692 74<16 108> 910 74<234 363>
LayerCount: 2
Back
Fore
SplineSet
729 145 m 1
 729 182 l 1
 858 182 l 1
 622 418 l 1
 517 191 l 1
 692 16 l 1
 692 145 l 1
 729 145 l 1
667 671 m 1
 727 643 l 1
 655 489 l 1
 910 234 l 1
 910 363 l 1
 984 363 l 1
 984 108 l 1
 766 108 l 1
 766 -110 l 1
 511 -110 l 1
 511 -36 l 1
 640 -36 l 1
 484 120 l 1
 422 -12 l 1
 362 16 l 1
 434 170 l 1
 199 405 l 1
 251 457 l 1
 467 241 l 1
 572 468 l 1
 417 623 l 1
 469 675 l 1
 605 539 l 1
 667 671 l 1
EndSplineSet
EndChar

StartChar: uni21C40338
Encoding: 128 -1 128
Width: 930
Flags: W
HStem: 84 74<216 397 478 840> 392 74<90 452 533 714>
LayerCount: 2
Back
Fore
SplineSet
492 622 m 1
 558 610 l 1
 533 466 l 1
 714 466 l 1
 623 557 l 1
 675 609 l 1
 855 429 l 1
 675 249 l 1
 623 301 l 1
 714 392 l 1
 520 392 l 1
 478 158 l 1
 840 158 l 1
 840 84 l 1
 465 84 l 1
 438 -72 l 1
 372 -60 l 1
 397 84 l 1
 216 84 l 1
 307 -7 l 1
 255 -59 l 1
 75 121 l 1
 255 301 l 1
 307 249 l 1
 216 158 l 1
 410 158 l 1
 452 392 l 1
 90 392 l 1
 90 466 l 1
 465 466 l 1
 492 622 l 1
EndSplineSet
EndChar

StartChar: uni21C50338
Encoding: 129 -1 129
Width: 870
Flags: W
VStem: 244 74<-100 170 268 524> 552 74<26 282 380 650>
LayerCount: 2
Back
Fore
SplineSet
107 120 m 1
 84 183 l 1
 244 241 l 1
 244 524 l 1
 153 433 l 1
 101 485 l 1
 281 665 l 1
 461 485 l 1
 409 433 l 1
 318 524 l 1
 318 268 l 1
 552 353 l 1
 552 650 l 1
 626 650 l 1
 626 380 l 1
 763 430 l 1
 786 367 l 1
 626 309 l 1
 626 26 l 1
 717 117 l 1
 769 65 l 1
 589 -115 l 1
 409 65 l 1
 461 117 l 1
 552 26 l 1
 552 282 l 1
 318 197 l 1
 318 -100 l 1
 244 -100 l 1
 244 170 l 1
 107 120 l 1
EndSplineSet
EndChar

StartChar: sym061_uni0338
Encoding: 130 -1 130
Width: 1198
Flags: W
HStem: -110 74<558 687> 586 74<511 640>
VStem: 432 74<16 145> 692 74<405 534>
LayerCount: 2
Back
Fore
SplineSet
373 539 m 1
 428 578 l 1
 512 458 l 1
 640 586 l 1
 511 586 l 1
 511 660 l 1
 766 660 l 1
 766 405 l 1
 692 405 l 1
 692 534 l 1
 555 397 l 1
 692 202 l 1
 947 457 l 1
 999 405 l 1
 734 140 l 1
 825 11 l 1
 770 -28 l 1
 686 92 l 1
 558 -36 l 1
 687 -36 l 1
 687 -110 l 1
 432 -110 l 1
 432 145 l 1
 506 145 l 1
 506 16 l 1
 643 153 l 1
 506 348 l 1
 251 93 l 1
 199 145 l 1
 464 410 l 1
 373 539 l 1
EndSplineSet
EndChar

StartChar: sym060_uni0338
Encoding: 131 -1 131
Width: 1198
Flags: W
HStem: 108 74<729 858> 368 74<340 469>
VStem: 214 74<187 316> 910 74<234 363>
LayerCount: 2
Back
Fore
SplineSet
477 -66 m 1
 416 -38 l 1
 488 116 l 1
 288 316 l 1
 288 187 l 1
 214 187 l 1
 214 442 l 1
 469 442 l 1
 469 368 l 1
 340 368 l 1
 521 187 l 1
 627 413 l 1
 417 623 l 1
 469 675 l 1
 660 484 l 1
 722 616 l 1
 782 588 l 1
 710 434 l 1
 910 234 l 1
 910 363 l 1
 984 363 l 1
 984 108 l 1
 729 108 l 1
 729 182 l 1
 858 182 l 1
 677 363 l 1
 572 137 l 1
 782 -73 l 1
 729 -125 l 1
 538 66 l 1
 477 -66 l 1
EndSplineSet
EndChar

StartChar: uni21C60338
Encoding: 132 -1 132
Width: 930
Flags: W
HStem: 84 74<90 360 458 714> 392 74<216 472 570 840>
LayerCount: 2
Back
Fore
SplineSet
557 626 m 1
 620 603 l 1
 570 466 l 1
 840 466 l 1
 840 392 l 1
 543 392 l 1
 458 158 l 1
 714 158 l 1
 623 249 l 1
 675 301 l 1
 855 121 l 1
 675 -59 l 1
 623 -7 l 1
 714 84 l 1
 431 84 l 1
 373 -76 l 1
 310 -53 l 1
 360 84 l 1
 90 84 l 1
 90 158 l 1
 387 158 l 1
 472 392 l 1
 216 392 l 1
 307 301 l 1
 255 249 l 1
 75 429 l 1
 255 609 l 1
 307 557 l 1
 216 466 l 1
 499 466 l 1
 557 626 l 1
EndSplineSet
EndChar

StartChar: uni21F50338
Encoding: 133 -1 133
Width: 870
Flags: W
VStem: 244 74<26 207 288 650> 552 74<-100 262 343 524>
LayerCount: 2
Back
Fore
SplineSet
100 182 m 1
 88 248 l 1
 244 275 l 1
 244 650 l 1
 318 650 l 1
 318 288 l 1
 552 330 l 1
 552 524 l 1
 461 433 l 1
 409 485 l 1
 589 665 l 1
 769 485 l 1
 717 433 l 1
 626 524 l 1
 626 343 l 1
 770 368 l 1
 782 302 l 1
 626 275 l 1
 626 -100 l 1
 552 -100 l 1
 552 262 l 1
 318 220 l 1
 318 26 l 1
 409 117 l 1
 461 65 l 1
 281 -115 l 1
 101 65 l 1
 153 117 l 1
 244 26 l 1
 244 207 l 1
 100 182 l 1
EndSplineSet
EndChar

StartChar: sym063_uni0338
Encoding: 134 -1 134
Width: 1198
Flags: W
HStem: 108 74<340 469> 368 74<729 858>
VStem: 214 74<234 363> 910 74<187 316>
LayerCount: 2
Back
Fore
SplineSet
416 588 m 1
 477 616 l 1
 538 484 l 1
 729 675 l 1
 782 623 l 1
 572 413 l 1
 677 187 l 1
 858 368 l 1
 729 368 l 1
 729 442 l 1
 984 442 l 1
 984 187 l 1
 910 187 l 1
 910 316 l 1
 710 116 l 1
 782 -38 l 1
 722 -66 l 1
 660 66 l 1
 469 -125 l 1
 417 -73 l 1
 627 137 l 1
 521 363 l 1
 340 182 l 1
 469 182 l 1
 469 108 l 1
 214 108 l 1
 214 363 l 1
 288 363 l 1
 288 234 l 1
 488 434 l 1
 416 588 l 1
EndSplineSet
EndChar

StartChar: sym062_uni0338
Encoding: 135 -1 135
Width: 1198
Flags: W
HStem: -110 74<511 640> 586 74<558 687>
VStem: 432 74<405 534> 692 74<16 145>
LayerCount: 2
Back
Fore
SplineSet
428 -28 m 1
 373 11 l 1
 464 140 l 1
 199 405 l 1
 251 457 l 1
 506 202 l 1
 643 397 l 1
 506 534 l 1
 506 405 l 1
 432 405 l 1
 432 660 l 1
 687 660 l 1
 687 586 l 1
 558 586 l 1
 686 458 l 1
 770 578 l 1
 825 539 l 1
 734 410 l 1
 999 145 l 1
 947 93 l 1
 692 348 l 1
 555 153 l 1
 692 16 l 1
 692 145 l 1
 766 145 l 1
 766 -110 l 1
 511 -110 l 1
 511 -36 l 1
 640 -36 l 1
 512 92 l 1
 428 -28 l 1
EndSplineSet
EndChar

StartChar: uni219D0338
Encoding: 136 57883 136
Width: 930
Flags: W
HStem: 1 21G<269.217 331.282> 161 74<453.497 543.149> 238 74<614.604 714> 315 74<221.831 326.653> 529 20G<444.745 506.783>
LayerCount: 2
Back
Fore
SplineSet
452 549 m 1
 515 526 l 1
 428 286 l 1
 447 260 470 235 503 235 c 0
 524 235 539 254 556 267 c 0
 586 288 621 312 653 312 c 2
 714 312 l 1
 623 403 l 1
 675 455 l 1
 855 275 l 1
 675 95 l 1
 623 147 l 1
 714 238 l 1
 653 238 l 2
 644 238 617 219 599 206 c 0
 569 185 539 161 503 161 c 0
 463 161 428 180 399 207 c 1
 324 1 l 1
 261 24 l 1
 350 268 l 1
 331 293 307 315 277 315 c 0
 222 315 189 261 157 215 c 1
 97 258 l 1
 142 323 199 389 277 389 c 0
 316 389 350 371 378 345 c 1
 452 549 l 1
EndSplineSet
EndChar

StartChar: sym064_uni0338.alt
Encoding: 137 -1 137
Width: 716
Flags: W
VStem: 244 74<31.8314 136.653> 321 74<423.344 524> 398 74<263.497 353.149>
CounterMasks: 1 e0
LayerCount: 2
Back
Fore
SplineSet
84 262 m 1
 107 325 l 1
 347 238 l 1
 373 257 398 280 398 313 c 0
 398 334 379 349 366 366 c 0
 345 396 321 431 321 463 c 2
 321 524 l 1
 230 433 l 1
 178 485 l 1
 358 665 l 1
 538 485 l 1
 486 433 l 1
 395 524 l 1
 395 463 l 2
 395 454 414 426 427 409 c 0
 448 379 472 349 472 313 c 0
 472 273 453 238 426 209 c 1
 632 134 l 1
 609 71 l 1
 365 160 l 1
 340 141 318 117 318 87 c 0
 318 32 372 -1 418 -33 c 1
 375 -93 l 1
 310 -48 244 9 244 87 c 0
 244 126 262 160 288 188 c 1
 84 262 l 1
EndSplineSet
EndChar

StartChar: uni219C0338.alt
Encoding: 138 -1 138
Width: 930
Flags: W
HStem: 1 21G<423.217 485.255> 161 74<603.347 708.169> 238 74<216 316.656> 315 74<386.851 476.503> 529 20G<598.718 660.783>
LayerCount: 2
Back
Fore
SplineSet
478 1 m 1
 415 24 l 1
 502 264 l 1
 483 290 460 315 427 315 c 0
 406 315 391 296 374 283 c 0
 344 262 309 238 277 238 c 2
 216 238 l 1
 307 147 l 1
 255 95 l 1
 75 275 l 1
 255 455 l 1
 307 403 l 1
 216 312 l 1
 277 312 l 2
 286 312 314 331 331 344 c 0
 361 365 391 389 427 389 c 0
 467 389 502 370 531 343 c 1
 606 549 l 1
 669 526 l 1
 580 282 l 1
 599 257 623 235 653 235 c 0
 708 235 741 289 773 335 c 1
 833 292 l 1
 788 227 731 161 653 161 c 0
 614 161 580 179 552 205 c 1
 478 1 l 1
EndSplineSet
EndChar

StartChar: sym065_uni0338
Encoding: 139 -1 139
Width: 716
Flags: W
VStem: 244 74<196.851 286.503> 321 74<26 126.656> 398 74<413.347 518.169>
CounterMasks: 1 e0
LayerCount: 2
Back
Fore
SplineSet
632 288 m 1
 609 225 l 1
 369 312 l 1
 343 293 318 270 318 237 c 0
 318 216 337 201 350 184 c 0
 371 154 395 119 395 87 c 2
 395 26 l 1
 486 117 l 1
 538 65 l 1
 358 -115 l 1
 178 65 l 1
 230 117 l 1
 321 26 l 1
 321 87 l 2
 321 96 302 124 289 141 c 0
 268 171 244 201 244 237 c 0
 244 277 263 312 290 341 c 1
 84 416 l 1
 107 479 l 1
 351 390 l 1
 376 409 398 433 398 463 c 0
 398 518 344 551 298 583 c 1
 341 643 l 1
 406 598 472 541 472 463 c 0
 472 424 454 390 428 362 c 1
 632 288 l 1
EndSplineSet
EndChar

StartChar: uni219D0338.alt
Encoding: 140 -1 140
Width: 930
Flags: W
HStem: 1 21G<269.217 331.273> 161 74<221.831 312.326> 238 74<614.604 714> 315 74<463.365 543.149> 529 20G<444.727 506.783>
LayerCount: 2
Back
Fore
SplineSet
452 549 m 1
 515 526 l 1
 463 382 l 1
 476 386 489 389 503 389 c 0
 539 389 569 365 599 344 c 0
 617 331 644 312 653 312 c 2
 714 312 l 1
 623 403 l 1
 675 455 l 1
 855 275 l 1
 675 95 l 1
 623 147 l 1
 714 238 l 1
 653 238 l 2
 621 238 586 262 556 283 c 0
 539 296 524 315 503 315 c 0
 460 315 436 274 412 243 c 1
 324 1 l 1
 261 24 l 1
 313 166 l 1
 302 163 289 161 277 161 c 0
 199 161 142 227 97 292 c 1
 157 335 l 1
 189 289 222 235 277 235 c 0
 313 235 339 266 360 296 c 1
 452 549 l 1
EndSplineSet
EndChar

StartChar: sym064_uni0338
Encoding: 141 -1 141
Width: 716
Flags: W
VStem: 244 74<273.365 353.149> 321 74<423.344 524> 398 74<31.8314 122.326>
CounterMasks: 1 e0
LayerCount: 2
Back
Fore
SplineSet
84 262 m 1
 107 325 l 1
 251 273 l 1
 247 286 244 299 244 313 c 0
 244 349 268 379 289 409 c 0
 302 426 321 454 321 463 c 2
 321 524 l 1
 230 433 l 1
 178 485 l 1
 358 665 l 1
 538 485 l 1
 486 433 l 1
 395 524 l 1
 395 463 l 2
 395 431 371 396 350 366 c 0
 337 349 318 334 318 313 c 0
 318 270 359 246 390 222 c 1
 632 134 l 1
 609 71 l 1
 467 123 l 1
 470 112 472 99 472 87 c 0
 472 9 406 -48 341 -93 c 1
 298 -33 l 1
 344 -1 398 32 398 87 c 0
 398 123 367 149 337 170 c 1
 84 262 l 1
EndSplineSet
EndChar

StartChar: uni219C0338
Encoding: 142 -1 142
Width: 930
Flags: W
HStem: 1 21G<423.217 485.273> 161 74<386.851 466.635> 238 74<216 316.656> 315 74<617.674 708.169> 529 20G<598.727 660.783>
LayerCount: 2
Back
Fore
SplineSet
478 1 m 1
 415 24 l 1
 467 168 l 1
 454 164 441 161 427 161 c 0
 391 161 361 185 331 206 c 0
 314 219 286 238 277 238 c 2
 216 238 l 1
 307 147 l 1
 255 95 l 1
 75 275 l 1
 255 455 l 1
 307 403 l 1
 216 312 l 1
 277 312 l 2
 309 312 344 288 374 267 c 0
 391 254 406 235 427 235 c 0
 470 235 494 276 518 307 c 1
 606 549 l 1
 669 526 l 1
 617 384 l 1
 628 387 641 389 653 389 c 0
 731 389 788 323 833 258 c 1
 773 215 l 1
 741 261 708 315 653 315 c 0
 617 315 591 284 570 254 c 1
 478 1 l 1
EndSplineSet
EndChar

StartChar: sym065_uni0338.alt
Encoding: 143 -1 143
Width: 716
Flags: W
VStem: 244 74<427.674 518.169> 321 74<26 126.656> 398 74<196.851 276.635>
CounterMasks: 1 e0
LayerCount: 2
Back
Fore
SplineSet
632 288 m 1
 609 225 l 1
 465 277 l 1
 469 264 472 251 472 237 c 0
 472 201 448 171 427 141 c 0
 414 124 395 96 395 87 c 2
 395 26 l 1
 486 117 l 1
 538 65 l 1
 358 -115 l 1
 178 65 l 1
 230 117 l 1
 321 26 l 1
 321 87 l 2
 321 119 345 154 366 184 c 0
 379 201 398 216 398 237 c 0
 398 280 357 304 326 328 c 1
 84 416 l 1
 107 479 l 1
 249 427 l 1
 246 438 244 451 244 463 c 0
 244 541 310 598 375 643 c 1
 418 583 l 1
 372 551 318 518 318 463 c 0
 318 427 349 401 379 380 c 1
 632 288 l 1
EndSplineSet
EndChar

StartChar: uni21AD0338
Encoding: 144 -1 144
Width: 1080
Flags: W
HStem: 1 21G<421.217 483.317> 161 74<603.229 692.126> 238 74<216 317.513 762.487 864> 315 74<385.886 476.771> 529 20G<596.683 658.783>
LayerCount: 2
Back
Fore
SplineSet
604 549 m 1
 667 526 l 1
 579 284 l 1
 598 258 621 235 653 235 c 0
 661 235 689 254 707 267 c 0
 736 288 766 312 803 312 c 2
 864 312 l 1
 773 403 l 1
 825 455 l 1
 1005 275 l 1
 825 95 l 1
 773 147 l 1
 864 238 l 1
 803 238 l 2
 781 238 767 219 749 206 c 0
 719 185 684 161 653 161 c 0
 614 161 580 179 551 206 c 1
 476 1 l 1
 413 24 l 1
 501 266 l 1
 482 292 459 315 427 315 c 0
 406 315 391 296 373 283 c 0
 344 262 314 238 277 238 c 2
 216 238 l 1
 307 147 l 1
 255 95 l 1
 75 275 l 1
 255 455 l 1
 307 403 l 1
 216 312 l 1
 277 312 l 2
 299 312 313 331 331 344 c 0
 361 365 391 389 427 389 c 0
 466 389 500 371 529 344 c 1
 604 549 l 1
EndSplineSet
EndChar

StartChar: sym066_uni0338.alt
Encoding: 145 -1 145
Width: 716
Flags: W
VStem: 244 74<120.886 211.771> 321 74<-49 52.5127 497.487 599> 398 74<338.229 427.126>
CounterMasks: 1 e0
LayerCount: 2
Back
Fore
SplineSet
84 339 m 1
 107 402 l 1
 349 314 l 1
 375 333 398 356 398 388 c 0
 398 396 379 424 366 442 c 0
 345 471 321 501 321 538 c 2
 321 599 l 1
 230 508 l 1
 178 560 l 1
 358 740 l 1
 538 560 l 1
 486 508 l 1
 395 599 l 1
 395 538 l 2
 395 516 414 502 427 484 c 0
 448 454 472 419 472 388 c 0
 472 349 454 315 427 286 c 1
 632 211 l 1
 609 148 l 1
 367 236 l 1
 341 217 318 194 318 162 c 0
 318 141 337 126 350 108 c 0
 371 79 395 49 395 12 c 2
 395 -49 l 1
 486 42 l 1
 538 -10 l 1
 358 -190 l 1
 178 -10 l 1
 230 42 l 1
 321 -49 l 1
 321 12 l 2
 321 34 302 48 289 66 c 0
 268 96 244 126 244 162 c 0
 244 201 262 235 289 264 c 1
 84 339 l 1
EndSplineSet
EndChar

StartChar: uni21AD0338.alt
Encoding: 146 -1 146
Width: 1080
Flags: W
HStem: 1 21G<421.217 483.287> 161 74<385.886 464.653> 238 74<216 317.513 762.487 864> 315 74<615.347 692.126> 529 20G<596.713 658.783>
LayerCount: 2
Back
Fore
SplineSet
604 549 m 1
 667 526 l 1
 615 383 l 1
 627 387 640 389 653 389 c 0
 684 389 719 365 749 344 c 0
 767 331 781 312 803 312 c 2
 864 312 l 1
 773 403 l 1
 825 455 l 1
 1005 275 l 1
 825 95 l 1
 773 147 l 1
 864 238 l 1
 803 238 l 2
 766 238 736 262 707 283 c 0
 689 296 661 315 653 315 c 0
 613 315 588 279 566 248 c 1
 476 1 l 1
 413 24 l 1
 465 167 l 1
 453 163 440 161 427 161 c 0
 391 161 361 185 331 206 c 0
 313 219 299 238 277 238 c 2
 216 238 l 1
 307 147 l 1
 255 95 l 1
 75 275 l 1
 255 455 l 1
 307 403 l 1
 216 312 l 1
 277 312 l 2
 314 312 344 288 373 267 c 0
 391 254 406 235 427 235 c 0
 467 235 492 271 514 302 c 1
 604 549 l 1
EndSplineSet
EndChar

StartChar: sym066_uni0338
Encoding: 147 -1 147
Width: 716
Flags: W
VStem: 244 74<350.347 427.126> 321 74<-49 52.5127 497.487 599> 398 74<120.886 199.653>
CounterMasks: 1 e0
LayerCount: 2
Back
Fore
SplineSet
84 339 m 1
 107 402 l 1
 250 350 l 1
 246 362 244 375 244 388 c 0
 244 419 268 454 289 484 c 0
 302 502 321 516 321 538 c 2
 321 599 l 1
 230 508 l 1
 178 560 l 1
 358 740 l 1
 538 560 l 1
 486 508 l 1
 395 599 l 1
 395 538 l 2
 395 501 371 471 350 442 c 0
 337 424 318 396 318 388 c 0
 318 348 354 323 385 301 c 1
 632 211 l 1
 609 148 l 1
 466 200 l 1
 470 188 472 175 472 162 c 0
 472 126 448 96 427 66 c 0
 414 48 395 34 395 12 c 2
 395 -49 l 1
 486 42 l 1
 538 -10 l 1
 358 -190 l 1
 178 -10 l 1
 230 42 l 1
 321 -49 l 1
 321 12 l 2
 321 49 345 79 366 108 c 0
 379 126 398 141 398 162 c 0
 398 202 362 227 331 249 c 1
 84 339 l 1
EndSplineSet
EndChar

StartChar: sym069_uni0338
Encoding: 148 -1 148
Width: 930
Flags: W
HStem: 303 73<514 554.825> 315 74<304.424 436>
LayerCount: 2
Back
Fore
SplineSet
414 389 m 0x40
 426 389 438 389 449 388 c 1
 479 560 l 1
 544 548 l 1
 514 376 l 1
 603 352 680 297 741 225 c 1
 751 341 l 1
 825 335 l 1
 803 81 l 1
 549 103 l 1
 555 177 l 1
 696 165 l 1
 645 230 578 281 501 303 c 1x80
 451 21 l 1
 386 32 l 1
 436 315 l 1
 429 315 422 315 415 315 c 0
 312 315 217 262 157 177 c 1
 97 219 l 1
 170 324 287 389 414 389 c 0x40
EndSplineSet
EndChar

StartChar: sym068_uni0338
Encoding: 149 -1 149
Width: 716
Flags: W
VStem: 244 74<114.424 246> 257 73<324 364.825>
LayerCount: 2
Back
Fore
SplineSet
244 224 m 0x80
 244 236 244 248 245 259 c 1
 73 289 l 1
 85 354 l 1
 257 324 l 1
 281 413 336 490 408 551 c 1
 292 561 l 1
 298 635 l 1
 552 613 l 1
 530 359 l 1
 456 365 l 1
 468 506 l 1
 403 455 352 388 330 311 c 1x40
 612 261 l 1
 601 196 l 1
 318 246 l 1
 318 239 318 232 318 225 c 0
 318 122 371 27 456 -33 c 1
 414 -93 l 1
 309 -20 244 97 244 224 c 0x80
EndSplineSet
EndChar

StartChar: sym067_uni0338
Encoding: 150 -1 150
Width: 930
Flags: W
HStem: -10 21G<386 454.488> 161 74<494 625.576> 174 73<375.175 416>
LayerCount: 2
Back
Fore
SplineSet
516 161 m 0xc0
 504 161 492 161 481 162 c 1
 451 -10 l 1
 386 2 l 1
 416 174 l 1
 327 198 250 253 189 325 c 1
 179 209 l 1
 105 215 l 1
 127 469 l 1
 381 447 l 1
 375 373 l 1
 234 385 l 1
 285 320 352 269 429 247 c 1xa0
 479 529 l 1
 544 518 l 1
 494 235 l 1
 501 235 508 235 515 235 c 0
 618 235 713 288 773 373 c 1
 833 331 l 1
 760 226 643 161 516 161 c 0xc0
EndSplineSet
EndChar

StartChar: uni29380338
Encoding: 151 -1 151
Width: 716
Flags: W
VStem: 386 73<185.175 226> 398 74<304 435.576>
LayerCount: 2
Back
Fore
SplineSet
472 326 m 0x40
 472 314 472 302 471 291 c 1
 643 261 l 1
 631 196 l 1
 459 226 l 1
 435 137 380 60 308 -1 c 1
 424 -11 l 1
 418 -85 l 1
 164 -63 l 1
 186 191 l 1
 260 185 l 1
 248 44 l 1
 313 95 364 162 386 239 c 1x80
 104 289 l 1
 115 354 l 1
 398 304 l 1
 398 311 398 318 398 325 c 0
 398 428 345 523 260 583 c 1
 302 643 l 1
 407 570 472 453 472 326 c 0x40
EndSplineSet
EndChar

StartChar: sym06C_uni0338
Encoding: 152 -1 152
Width: 1089
Flags: W
HStem: 363 74<597.42 776>
VStem: 318 74<-12.3824 163.653>
LayerCount: 2
Back
Fore
SplineSet
318 47 m 0
 318 161 367 272 453 343 c 1
 353 486 l 1
 407 524 l 1
 508 381 l 1
 575 419 652 437 731 437 c 0
 746 437 761 436 776 435 c 1
 700 524 l 1
 757 572 l 1
 921 377 l 1
 726 213 l 1
 678 270 l 1
 785 360 l 1
 766 362 748 363 729 363 c 0
 666 363 604 350 550 320 c 1
 715 86 l 1
 660 47 l 1
 496 282 l 1
 428 223 392 138 392 48 c 0
 392 28 394 8 397 -12 c 1
 324 -25 l 1
 320 -1 318 23 318 47 c 0
EndSplineSet
EndChar

StartChar: sym06B_uni0338
Encoding: 153 -1 153
Width: 1089
Flags: W
HStem: 48 74<656.397 832.382>
VStem: 383 73<327.786 506>
LayerCount: 2
Back
Fore
SplineSet
773 48 m 0
 659 48 548 97 476 183 c 1
 333 83 l 1
 295 138 l 1
 438 238 l 1
 400 305 383 382 383 460 c 0
 383 475 384 491 385 506 c 1
 295 431 l 1
 248 487 l 1
 443 651 l 1
 607 456 l 1
 550 408 l 1
 460 516 l 1
 458 497 456 478 456 459 c 0
 456 396 469 335 499 281 c 1
 734 445 l 1
 772 390 l 1
 537 226 l 1
 596 158 683 122 773 122 c 0
 793 122 812 124 832 127 c 1
 845 54 l 1
 821 50 797 48 773 48 c 0
EndSplineSet
EndChar

StartChar: uni29360338
Encoding: 154 -1 154
Width: 1089
Flags: W
HStem: 113 74<314 492.176>
VStem: 698 74<388.667 562.382>
LayerCount: 2
Back
Fore
SplineSet
772 503 m 0
 772 389 723 279 636 207 c 1
 736 64 l 1
 682 26 l 1
 582 169 l 1
 515 131 438 113 359 113 c 0
 344 113 329 114 314 115 c 1
 389 26 l 1
 332 -22 l 1
 169 173 l 1
 364 337 l 1
 411 280 l 1
 304 190 l 1
 323 188 342 187 361 187 c 0
 424 187 485 200 539 230 c 1
 375 464 l 1
 429 503 l 1
 593 268 l 1
 661 327 698 413 698 503 c 0
 698 523 696 542 693 562 c 1
 766 575 l 1
 770 551 772 527 772 503 c 0
EndSplineSet
EndChar

StartChar: uni29350338
Encoding: 155 -1 155
Width: 1089
Flags: W
HStem: 428 74<257.618 432.763>
VStem: 633 74<45 222.176>
LayerCount: 2
Back
Fore
SplineSet
317 502 m 0
 431 502 541 453 613 367 c 1
 756 467 l 1
 794 412 l 1
 651 312 l 1
 689 245 707 168 707 89 c 0
 707 74 706 60 705 45 c 1
 794 119 l 1
 841 63 l 1
 646 -101 l 1
 483 94 l 1
 539 142 l 1
 629 34 l 1
 631 53 633 72 633 91 c 0
 633 154 620 215 590 269 c 1
 355 105 l 1
 317 160 l 1
 552 324 l 1
 493 392 405 428 316 428 c 0
 297 428 277 426 258 423 c 1
 245 496 l 1
 269 500 293 502 317 502 c 0
EndSplineSet
EndChar

StartChar: uni293B0338
Encoding: 156 -1 156
Width: 930
Flags: W
HStem: 161 74<304.424 437.423> 179 69<530 556.541>
LayerCount: 2
Back
Fore
SplineSet
464 164 m 1x40
 448 162 432 161 414 161 c 0
 287 161 170 226 97 331 c 1
 157 373 l 1
 217 288 312 235 415 235 c 0
 423 235 431 234 438 235 c 1x80
 338 511 l 1
 401 533 l 1
 505 248 l 1
 581 271 646 321 696 385 c 1
 555 373 l 1
 549 447 l 1
 803 469 l 1
 825 215 l 1
 751 209 l 1
 741 325 l 1
 684 258 612 205 530 179 c 1
 592 9 l 1
 529 -14 l 1
 464 164 l 1x40
EndSplineSet
EndChar

StartChar: sym06A_uni0338
Encoding: 157 -1 157
Width: 716
Flags: W
VStem: 385 69<340 366.541> 398 74<114.424 247.423>
LayerCount: 2
Back
Fore
SplineSet
469 274 m 1x80
 471 258 472 242 472 224 c 0
 472 97 407 -20 302 -93 c 1
 260 -33 l 1
 345 27 398 122 398 225 c 0
 398 233 399 241 398 248 c 1x40
 122 148 l 1
 100 211 l 1
 385 315 l 1
 362 391 312 456 248 506 c 1
 260 365 l 1
 186 359 l 1
 164 613 l 1
 418 635 l 1
 424 561 l 1
 308 551 l 1
 375 494 428 422 454 340 c 1
 624 402 l 1
 647 339 l 1
 469 274 l 1x80
EndSplineSet
EndChar

StartChar: uni293A0338
Encoding: 158 -1 158
Width: 930
Flags: W
HStem: 302 69<373.459 400> 315 74<492.577 625.576>
LayerCount: 2
Back
Fore
SplineSet
466 386 m 1x80
 482 388 498 389 516 389 c 0
 643 389 760 324 833 219 c 1
 773 177 l 1
 713 262 618 315 515 315 c 0
 507 315 499 316 492 315 c 1x40
 592 39 l 1
 529 17 l 1
 425 302 l 1
 349 279 284 229 234 165 c 1
 375 177 l 1
 381 103 l 1
 127 81 l 1
 105 335 l 1
 179 341 l 1
 189 225 l 1
 246 292 318 345 400 371 c 1
 338 541 l 1
 401 564 l 1
 466 386 l 1x80
EndSplineSet
EndChar

StartChar: uni29390338
Encoding: 159 -1 159
Width: 716
Flags: W
VStem: 244 74<302.577 435.576> 262 69<183.459 210>
LayerCount: 2
Back
Fore
SplineSet
247 276 m 1x40
 245 292 244 308 244 326 c 0
 244 453 309 570 414 643 c 1
 456 583 l 1
 371 523 318 428 318 325 c 0
 318 317 317 309 318 302 c 1x80
 594 402 l 1
 616 339 l 1
 331 235 l 1
 354 159 404 94 468 44 c 1
 456 185 l 1
 530 191 l 1
 552 -63 l 1
 298 -85 l 1
 292 -11 l 1
 408 -1 l 1
 341 56 288 128 262 210 c 1
 92 148 l 1
 69 211 l 1
 247 276 l 1x40
EndSplineSet
EndChar

StartChar: uni29340338
Encoding: 160 -1 160
Width: 1089
Flags: W
HStem: 48 74<257.618 430.51>
VStem: 633 74<327.656 505>
LayerCount: 2
Back
Fore
SplineSet
289 352 m 1
 317 412 l 1
 592 284 l 1
 621 337 633 397 633 459 c 0
 633 478 631 497 629 516 c 1
 539 408 l 1
 483 456 l 1
 646 651 l 1
 841 487 l 1
 794 431 l 1
 705 505 l 1
 706 490 707 476 707 461 c 0
 707 388 692 317 659 253 c 1
 823 176 l 1
 794 116 l 1
 623 196 l 1
 616 187 609 178 601 170 c 0
 528 90 424 48 317 48 c 0
 293 48 269 50 245 54 c 1
 258 127 l 1
 277 124 297 122 316 122 c 0
 406 122 495 159 554 228 c 1
 289 352 l 1
EndSplineSet
EndChar

StartChar: sym06D_uni0338
Encoding: 161 -1 161
Width: 1089
Flags: W
HStem: 363 74<314 490.54> 533 20G<633.732 686.571>
VStem: 698 74<-12.3824 162.132>
LayerCount: 2
Back
Fore
SplineSet
624 353 m 1
 716 282 772 167 772 47 c 0
 772 23 770 -1 766 -25 c 1
 693 -12 l 1
 696 8 698 27 698 47 c 0
 698 138 661 225 592 284 c 1
 468 19 l 1
 407 47 l 1
 535 322 l 1
 482 350 423 363 361 363 c 0
 342 363 323 362 304 360 c 1
 411 270 l 1
 364 213 l 1
 169 377 l 1
 332 572 l 1
 389 524 l 1
 314 435 l 1
 329 436 344 437 359 437 c 0
 432 437 504 422 567 389 c 1
 643 553 l 1
 704 525 l 1
 624 353 l 1
EndSplineSet
EndChar

StartChar: sym06E_uni0338
Encoding: 162 -1 162
Width: 1089
Flags: W
HStem: 428 74<657.43 832.382>
VStem: 383 73<44 220.13>
LayerCount: 2
Back
Fore
SplineSet
466 354 m 1
 536 446 653 502 773 502 c 0
 797 502 821 500 845 496 c 1
 832 423 l 1
 812 426 793 428 773 428 c 0
 682 428 594 391 535 322 c 1
 801 198 l 1
 773 138 l 1
 498 266 l 1
 469 213 456 153 456 91 c 0
 456 72 458 53 460 34 c 1
 550 142 l 1
 607 94 l 1
 443 -101 l 1
 248 63 l 1
 295 119 l 1
 385 44 l 1
 384 59 383 75 383 90 c 0
 383 163 398 235 431 298 c 1
 267 374 l 1
 295 434 l 1
 466 354 l 1
EndSplineSet
EndChar

StartChar: uni29370338
Encoding: 163 -1 163
Width: 1089
Flags: W
HStem: -3 21G<403.143 455.268> 113 74<598.934 776>
VStem: 318 74<387.176 562.382>
LayerCount: 2
Back
Fore
SplineSet
466 196 m 1
 374 266 318 383 318 503 c 0
 318 527 320 551 324 575 c 1
 397 562 l 1
 394 542 392 522 392 502 c 0
 392 411 429 324 498 266 c 1
 622 531 l 1
 682 503 l 1
 554 228 l 1
 607 200 667 187 729 187 c 0
 748 187 766 188 785 190 c 1
 678 280 l 1
 726 337 l 1
 921 173 l 1
 757 -22 l 1
 700 26 l 1
 776 115 l 1
 761 114 746 113 731 113 c 0
 658 113 586 128 522 161 c 1
 446 -3 l 1
 386 25 l 1
 466 196 l 1
EndSplineSet
EndChar

StartChar: sym06F_uni0338
Encoding: 164 -1 164
Width: 1080
Flags: W
HStem: 313 73<417.676 507 586 662.324>
LayerCount: 2
Back
Fore
SplineSet
554 583 m 1
 619 572 l 1
 586 386 l 1
 702 373 807 313 884 225 c 1
 894 341 l 1
 968 335 l 1
 945 81 l 1
 692 103 l 1
 698 177 l 1
 837 165 l 1
 770 247 677 303 573 313 c 1
 526 44 l 1
 461 55 l 1
 507 313 l 1
 403 303 310 247 243 165 c 1
 382 177 l 1
 388 103 l 1
 135 81 l 1
 112 335 l 1
 186 341 l 1
 196 225 l 1
 279 320 394 383 520 389 c 1
 554 583 l 1
EndSplineSet
EndChar

StartChar: sym070_uni0338
Encoding: 165 -1 165
Width: 716
Flags: W
VStem: 247 73<152.676 229 308 397.324>
LayerCount: 2
Back
Fore
SplineSet
61 196 m 1
 50 261 l 1
 244 295 l 1
 250 421 313 536 408 619 c 1
 292 629 l 1
 298 703 l 1
 552 680 l 1
 530 427 l 1
 456 433 l 1
 468 572 l 1
 386 505 330 412 320 308 c 1
 578 354 l 1
 589 289 l 1
 320 242 l 1
 330 138 386 45 468 -22 c 1
 456 117 l 1
 530 123 l 1
 552 -130 l 1
 298 -153 l 1
 292 -79 l 1
 408 -69 l 1
 320 8 260 113 247 229 c 1
 61 196 l 1
EndSplineSet
EndChar

StartChar: sym071_uni0338
Encoding: 166 -1 166
Width: 1080
Flags: W
HStem: 164 73<417.676 494 573 662.324>
LayerCount: 2
Back
Fore
SplineSet
526 -33 m 1
 461 -22 l 1
 494 164 l 1
 378 177 273 237 196 325 c 1
 186 209 l 1
 112 215 l 1
 135 469 l 1
 388 447 l 1
 382 373 l 1
 243 385 l 1
 310 303 403 247 507 237 c 1
 554 506 l 1
 619 495 l 1
 573 237 l 1
 677 247 770 303 837 385 c 1
 698 373 l 1
 692 447 l 1
 945 469 l 1
 968 215 l 1
 894 209 l 1
 884 325 l 1
 801 230 686 167 560 161 c 1
 526 -33 l 1
EndSplineSet
EndChar

StartChar: sym072_uni0338
Encoding: 167 -1 167
Width: 716
Flags: W
VStem: 396 76<152.676 242 321 397.324>
LayerCount: 2
Back
Fore
SplineSet
655 354 m 1
 666 289 l 1
 472 255 l 1
 466 129 403 14 308 -69 c 1
 424 -79 l 1
 418 -153 l 1
 164 -130 l 1
 186 123 l 1
 260 117 l 1
 248 -22 l 1
 330 45 386 138 396 242 c 1
 138 196 l 1
 127 261 l 1
 396 308 l 1
 386 412 330 505 248 572 c 1
 260 433 l 1
 186 427 l 1
 164 680 l 1
 418 703 l 1
 424 629 l 1
 308 619 l 1
 396 542 456 437 469 321 c 1
 655 354 l 1
EndSplineSet
EndChar

StartChar: sym074_uni0338
Encoding: 168 -1 168
Width: 1195
Flags: W
HStem: 409 74<705.429 876>
VStem: 390 74<-4 167.821>
LayerCount: 2
Back
Fore
SplineSet
390 503 m 1
 444 541 l 1
 552 387 l 1
 634 452 735 483 840 483 c 0
 852 483 864 483 876 482 c 1
 801 572 l 1
 858 620 l 1
 1022 424 l 1
 826 261 l 1
 779 317 l 1
 886 407 l 1
 871 409 854 409 839 409 c 0
 750 409 663 382 594 326 c 1
 751 102 l 1
 697 64 l 1
 547 279 l 1
 491 210 464 123 464 34 c 0
 464 18 464 3 466 -13 c 1
 555 94 l 1
 612 46 l 1
 448 -149 l 1
 253 15 l 1
 301 72 l 1
 391 -4 l 1
 390 8 390 21 390 33 c 0
 390 146 427 256 503 341 c 1
 390 503 l 1
EndSplineSet
EndChar

StartChar: sym073_uni0338
Encoding: 169 -1 169
Width: 1195
Flags: W
HStem: 67 74<705.429 876>
VStem: 390 74<382.179 554>
LayerCount: 2
Back
Fore
SplineSet
444 9 m 1
 390 47 l 1
 503 209 l 1
 427 294 390 404 390 517 c 0
 390 529 390 542 391 554 c 1
 301 478 l 1
 253 535 l 1
 448 699 l 1
 612 504 l 1
 555 456 l 1
 466 563 l 1
 464 547 464 532 464 516 c 0
 464 427 491 340 547 271 c 1
 697 486 l 1
 751 448 l 1
 594 224 l 1
 663 168 750 141 839 141 c 0
 854 141 871 141 886 143 c 1
 779 233 l 1
 826 289 l 1
 1022 126 l 1
 858 -70 l 1
 801 -22 l 1
 876 68 l 1
 864 67 852 67 840 67 c 0
 735 67 634 98 552 163 c 1
 444 9 l 1
EndSplineSet
EndChar

StartChar: sym076_uni0338
Encoding: 170 -1 170
Width: 1195
Flags: W
HStem: 67 74<319 489.733>
VStem: 732 74<382.121 554>
LayerCount: 2
Back
Fore
SplineSet
806 47 m 1
 751 9 l 1
 643 163 l 1
 562 98 460 67 355 67 c 0
 343 67 331 67 319 68 c 1
 394 -22 l 1
 338 -70 l 1
 174 126 l 1
 369 289 l 1
 417 233 l 1
 310 143 l 1
 325 141 341 141 356 141 c 0
 445 141 532 168 601 224 c 1
 444 448 l 1
 499 486 l 1
 649 272 l 1
 706 341 732 427 732 516 c 0
 732 532 732 547 730 563 c 1
 640 456 l 1
 583 504 l 1
 747 699 l 1
 942 535 l 1
 895 478 l 1
 804 554 l 1
 805 541 806 529 806 516 c 0
 806 403 769 294 693 209 c 1
 806 47 l 1
EndSplineSet
EndChar

StartChar: sym075_uni0338
Encoding: 171 -1 171
Width: 1195
Flags: W
HStem: 409 74<319 489.733>
VStem: 732 74<-4 167.879>
LayerCount: 2
Back
Fore
SplineSet
751 541 m 1
 806 503 l 1
 693 341 l 1
 769 256 806 147 806 34 c 0
 806 21 805 9 804 -4 c 1
 895 72 l 1
 942 15 l 1
 747 -149 l 1
 583 46 l 1
 640 94 l 1
 730 -13 l 1
 732 3 732 18 732 34 c 0
 732 123 706 209 649 278 c 1
 499 64 l 1
 444 102 l 1
 601 326 l 1
 532 382 445 409 356 409 c 0
 341 409 325 409 310 407 c 1
 417 317 l 1
 369 261 l 1
 174 424 l 1
 338 620 l 1
 394 572 l 1
 319 482 l 1
 331 483 343 483 355 483 c 0
 460 483 562 452 643 387 c 1
 751 541 l 1
EndSplineSet
EndChar

StartChar: sym077_uni0338
Encoding: 172 -1 172
Width: 930
Flags: W
HStem: 1 21G<346.217 408.257> 238 74<164 416 514 840> 529 20G<521.743 583.783>
VStem: 90 74<84 238 312 466>
LayerCount: 2
Back
Fore
SplineSet
529 549 m 1
 592 526 l 1
 514 312 l 1
 840 312 l 1
 840 238 l 1
 487 238 l 1
 401 1 l 1
 338 24 l 1
 416 238 l 1
 164 238 l 1
 164 84 l 1
 90 84 l 1
 90 466 l 1
 164 466 l 1
 164 312 l 1
 443 312 l 1
 529 549 l 1
EndSplineSet
EndChar

StartChar: sym078_uni0338
Encoding: 173 -1 173
Width: 930
Flags: W
HStem: 1 21G<346.217 408.257> 238 74<90 416 514 766> 529 20G<521.743 583.783>
VStem: 766 74<84 238 312 466>
LayerCount: 2
Back
Fore
SplineSet
401 1 m 1
 338 24 l 1
 416 238 l 1
 90 238 l 1
 90 312 l 1
 443 312 l 1
 529 549 l 1
 592 526 l 1
 514 312 l 1
 766 312 l 1
 766 466 l 1
 840 466 l 1
 840 84 l 1
 766 84 l 1
 766 238 l 1
 487 238 l 1
 401 1 l 1
EndSplineSet
EndChar

StartChar: sym079_uni0338
Encoding: 174 -1 174
Width: 1260
Flags: W
HStem: -199 74<594 758.544> -185 73<469.104 515> 662 73<745 790.896> 675 74<501.456 666>
VStem: 156 74<146.456 403.544> 1024 73<355.849 418.849>
LayerCount: 2
Back
Fore
SplineSet
528 -112 m 1x5c
 666 673 l 1
 654 674 642 675 630 675 c 0
 524 675 422 633 347 558 c 0
 272 483 230 381 230 275 c 0
 230 169 272 67 347 -8 c 0
 397 -58 460 -94 528 -112 c 1x5c
692 821 m 1
 758 809 l 1
 745 735 l 1
 828 714 904 671 965 610 c 0
 1034 542 1080 453 1097 357 c 1
 1024 345 l 1
 1010 425 971 500 913 558 c 0
 863 608 800 644 732 662 c 1
 594 -123 l 1
 606 -124 618 -125 630 -125 c 0
 736 -125 838 -83 913 -8 c 0
 955 34 987 85 1007 140 c 1
 869 90 l 1
 843 159 l 1
 1083 246 l 1
 1170 7 l 1
 1100 -18 l 1
 1064 83 l 1
 1040 30 1007 -19 965 -60 c 0
 876 -149 756 -199 630 -199 c 0xac
 614 -199 597 -198 581 -196 c 1
 568 -271 l 1
 502 -259 l 1
 515 -185 l 1
 432 -164 356 -121 295 -60 c 0
 206 29 156 149 156 275 c 0
 156 401 206 521 295 610 c 0
 384 699 504 749 630 749 c 0
 646 749 663 748 679 746 c 1
 692 821 l 1
EndSplineSet
EndChar

StartChar: uni21BA0338
Encoding: 175 -1 175
Width: 1260
Flags: W
HStem: -199 74<499.45 758.544> 669 73<486.151 549.151>
VStem: 156 74<146.017 403.544> 1030 74<146.456 403.983>
LayerCount: 2
Back
Fore
SplineSet
346 -7 m 1
 421 -83 523 -125 630 -125 c 0
 736 -125 838 -83 913 -8 c 0
 988 67 1030 169 1030 275 c 0
 1030 358 1004 439 957 506 c 1
 346 -7 l 1
822 709 m 1
 878 684 928 648 971 604 c 1
 1064 682 l 1
 1106 631 l 1
 1013 553 l 1
 1072 473 1104 376 1104 275 c 0
 1104 149 1054 29 965 -60 c 0
 876 -149 756 -199 630 -199 c 0
 501 -199 377 -146 289 -54 c 1
 196 -132 l 1
 154 -81 l 1
 247 -3 l 1
 188 77 156 174 156 275 c 0
 156 401 206 521 295 610 c 0
 363 679 452 725 548 742 c 1
 560 669 l 1
 480 655 405 616 347 558 c 0
 272 483 230 381 230 275 c 0
 230 192 256 111 303 44 c 1
 914 557 l 1
 872 600 821 632 765 652 c 1
 815 514 l 1
 746 488 l 1
 659 728 l 1
 898 815 l 1
 923 745 l 1
 822 709 l 1
EndSplineSet
EndChar

StartChar: uni27F20338
Encoding: 176 -1 176
Width: 1260
Flags: W
HStem: -199 74<594 758.544> -185 73<469.104 515> 662 73<745 790.896> 675 74<501.456 666>
VStem: 163 73<131.151 194.151> 1030 74<146.456 403.544>
LayerCount: 2
Back
Fore
SplineSet
732 662 m 1xac
 594 -123 l 1
 606 -124 618 -125 630 -125 c 0
 736 -125 838 -83 913 -8 c 0
 988 67 1030 169 1030 275 c 0
 1030 381 988 483 913 558 c 0
 863 608 800 644 732 662 c 1xac
692 821 m 1
 758 809 l 1
 745 735 l 1
 828 714 904 671 965 610 c 0
 1054 521 1104 401 1104 275 c 0
 1104 149 1054 29 965 -60 c 0
 876 -149 756 -199 630 -199 c 0xac
 614 -199 597 -198 581 -196 c 1
 568 -271 l 1
 502 -259 l 1
 515 -185 l 1
 432 -164 356 -121 295 -60 c 0
 226 8 180 97 163 193 c 1
 236 205 l 1
 250 125 289 50 347 -8 c 0
 397 -58 460 -94 528 -112 c 1
 666 673 l 1
 654 674 642 675 630 675 c 0
 524 675 422 633 347 558 c 0
 305 516 273 465 253 410 c 1
 391 460 l 1
 417 391 l 1
 177 304 l 1
 90 543 l 1
 160 568 l 1
 196 467 l 1
 220 520 253 569 295 610 c 0
 384 699 504 749 630 749 c 0x5c
 646 749 663 748 679 746 c 1
 692 821 l 1
EndSplineSet
EndChar

StartChar: sym07C_uni0338
Encoding: 177 -1 177
Width: 1260
Flags: W
HStem: -192 73<710.849 773.849> 675 74<501.456 760.55>
VStem: 156 74<146.017 403.544> 1030 74<146.456 403.983>
LayerCount: 2
Back
Fore
SplineSet
914 557 m 1
 839 633 737 675 630 675 c 0
 524 675 422 633 347 558 c 0
 272 483 230 381 230 275 c 0
 230 192 256 111 303 44 c 1
 914 557 l 1
630 749 m 0
 759 749 883 696 971 604 c 1
 1064 682 l 1
 1106 631 l 1
 1013 553 l 1
 1072 473 1104 376 1104 275 c 0
 1104 149 1054 29 965 -60 c 0
 897 -129 808 -175 712 -192 c 1
 700 -119 l 1
 780 -105 855 -66 913 -8 c 0
 988 67 1030 169 1030 275 c 0
 1030 358 1004 439 957 506 c 1
 346 -7 l 1
 388 -50 439 -82 495 -102 c 1
 445 36 l 1
 514 62 l 1
 601 -178 l 1
 362 -265 l 1
 337 -195 l 1
 438 -159 l 1
 382 -134 332 -98 289 -54 c 1
 196 -132 l 1
 154 -81 l 1
 247 -3 l 1
 188 77 156 174 156 275 c 0
 156 401 206 521 295 610 c 0
 384 699 504 749 630 749 c 0
EndSplineSet
EndChar

StartChar: uni27F30338
Encoding: 178 -1 178
Width: 1260
Flags: W
HStem: -199 74<594 758.544> -185 73<469.104 515> 662 73<745 789.767> 675 74<501.456 666>
VStem: 156 74<146.456 403.544> 1024 73<131.151 194.151>
LayerCount: 2
Back
Fore
SplineSet
528 -112 m 1x5c
 666 673 l 1
 654 674 642 675 630 675 c 0
 524 675 422 633 347 558 c 0
 272 483 230 381 230 275 c 0
 230 169 272 67 347 -8 c 0
 397 -58 460 -94 528 -112 c 1x5c
745 735 m 1x2c
 887 699 1007 596 1064 467 c 1
 1100 568 l 1
 1170 543 l 1
 1083 304 l 1
 843 391 l 1
 869 460 l 1
 1007 410 l 1
 964 531 859 629 732 662 c 1
 594 -123 l 1
 606 -124 618 -125 630 -125 c 0
 736 -125 838 -83 913 -8 c 0
 971 50 1010 125 1024 205 c 1
 1097 193 l 1
 1080 97 1034 8 965 -60 c 0
 876 -149 756 -199 630 -199 c 0xac
 614 -199 597 -198 581 -196 c 1
 568 -271 l 1
 502 -259 l 1
 515 -185 l 1
 432 -164 356 -121 295 -60 c 0
 206 29 156 149 156 275 c 0
 156 401 206 521 295 610 c 0
 384 699 504 749 630 749 c 0x5c
 646 749 663 748 679 746 c 1
 692 821 l 1
 758 809 l 1
 745 735 l 1x2c
EndSplineSet
EndChar

StartChar: uni21BB0338
Encoding: 179 -1 179
Width: 1260
Flags: W
HStem: -199 74<499.45 758.544> 669 73<710.849 775.674>
VStem: 156 74<146.017 403.544> 1030 74<146.456 403.983>
LayerCount: 2
Back
Fore
SplineSet
346 -7 m 1
 421 -83 523 -125 630 -125 c 0
 736 -125 838 -83 913 -8 c 0
 988 67 1030 169 1030 275 c 0
 1030 358 1004 439 957 506 c 1
 346 -7 l 1
712 742 m 1
 811 724 902 675 971 604 c 1
 1064 682 l 1
 1106 631 l 1
 1013 553 l 1
 1072 473 1104 376 1104 275 c 0
 1104 149 1054 29 965 -60 c 0
 876 -149 756 -199 630 -199 c 0
 501 -199 377 -146 289 -54 c 1
 196 -132 l 1
 154 -81 l 1
 247 -3 l 1
 188 77 156 174 156 275 c 0
 156 401 206 521 295 610 c 0
 336 652 385 685 438 709 c 1
 337 745 l 1
 362 815 l 1
 601 728 l 1
 514 488 l 1
 445 514 l 1
 495 652 l 1
 440 632 389 600 347 558 c 0
 272 483 230 381 230 275 c 0
 230 192 256 111 303 44 c 1
 914 557 l 1
 856 616 781 655 700 669 c 1
 712 742 l 1
EndSplineSet
EndChar

StartChar: sym07A_uni0338
Encoding: 180 -1 180
Width: 1260
Flags: W
HStem: -199 74<594 758.544> -185 73<470.233 515> 662 73<745 790.896> 675 74<501.456 666>
VStem: 163 73<355.849 418.849> 1030 74<146.456 403.544>
LayerCount: 2
Back
Fore
SplineSet
732 662 m 1xac
 594 -123 l 1
 606 -124 618 -125 630 -125 c 0
 736 -125 838 -83 913 -8 c 0
 988 67 1030 169 1030 275 c 0
 1030 381 988 483 913 558 c 0
 863 608 800 644 732 662 c 1xac
515 -185 m 1x4c
 373 -149 253 -46 196 83 c 1
 160 -18 l 1
 90 7 l 1
 177 246 l 1
 417 159 l 1
 391 90 l 1
 253 140 l 1
 296 19 401 -79 528 -112 c 1
 666 673 l 1
 654 674 642 675 630 675 c 0
 524 675 422 633 347 558 c 0
 289 500 250 425 236 345 c 1
 163 357 l 1
 180 453 226 542 295 610 c 0
 384 699 504 749 630 749 c 0x5c
 646 749 663 748 679 746 c 1
 692 821 l 1
 758 809 l 1
 745 735 l 1
 828 714 904 671 965 610 c 0
 1054 521 1104 401 1104 275 c 0
 1104 149 1054 29 965 -60 c 0
 876 -149 756 -199 630 -199 c 0xac
 614 -199 597 -198 581 -196 c 1
 568 -271 l 1
 502 -259 l 1
 515 -185 l 1x4c
EndSplineSet
EndChar

StartChar: sym07B_uni0338
Encoding: 181 -1 181
Width: 1260
Flags: W
HStem: -192 73<484.326 549.151> 675 74<501.456 760.55>
VStem: 156 74<146.017 403.544> 1030 74<146.456 403.983>
LayerCount: 2
Back
Fore
SplineSet
914 557 m 1
 839 633 737 675 630 675 c 0
 524 675 422 633 347 558 c 0
 272 483 230 381 230 275 c 0
 230 192 256 111 303 44 c 1
 914 557 l 1
630 749 m 0
 759 749 883 696 971 604 c 1
 1064 682 l 1
 1106 631 l 1
 1013 553 l 1
 1072 473 1104 376 1104 275 c 0
 1104 149 1054 29 965 -60 c 0
 924 -102 875 -135 822 -159 c 1
 923 -195 l 1
 898 -265 l 1
 659 -178 l 1
 746 62 l 1
 815 36 l 1
 765 -102 l 1
 820 -82 871 -50 913 -8 c 0
 988 67 1030 169 1030 275 c 0
 1030 358 1004 439 957 506 c 1
 346 -7 l 1
 404 -66 479 -105 560 -119 c 1
 548 -192 l 1
 449 -174 358 -125 289 -54 c 1
 196 -132 l 1
 154 -81 l 1
 247 -3 l 1
 188 77 156 174 156 275 c 0
 156 401 206 521 295 610 c 0
 384 699 504 749 630 749 c 0
EndSplineSet
EndChar

StartChar: uni21DB0338
Encoding: 182 -1 182
Width: 1080
Flags: W
HStem: 117 59<90 293 385 743> 245 60<90 340 432 871> 374 59<90 387 479 743>
CounterMasks: 1 e0
LayerCount: 2
Back
Fore
SplineSet
871 245 m 1
 410 245 l 1
 385 176 l 1
 802 176 l 1
 871 245 l 1
802 374 m 1
 457 374 l 1
 432 305 l 1
 871 305 l 1
 802 374 l 1
484 641 m 1
 546 618 l 1
 479 433 l 1
 743 433 l 1
 696 480 l 1
 748 532 l 1
 1005 275 l 1
 748 18 l 1
 696 70 l 1
 743 117 l 1
 364 117 l 1
 288 -91 l 1
 226 -68 l 1
 293 117 l 1
 90 117 l 1
 90 176 l 1
 315 176 l 1
 340 245 l 1
 90 245 l 1
 90 305 l 1
 362 305 l 1
 387 374 l 1
 90 374 l 1
 90 433 l 1
 408 433 l 1
 484 641 l 1
EndSplineSet
EndChar

StartChar: uni290A0338
Encoding: 183 -1 183
Width: 901
Flags: W
VStem: 292 60<-175 28 120 477> 421 59<-175 75 167 606> 549 59<-175 122 213 478>
LayerCount: 2
Back
Fore
SplineSet
480 606 m 1
 480 167 l 1
 549 192 l 1
 549 537 l 1
 480 606 l 1
352 538 m 1
 352 120 l 1
 421 145 l 1
 421 607 l 1
 352 538 l 1
107 -39 m 1
 84 23 l 1
 292 99 l 1
 292 477 l 1
 246 431 l 1
 193 483 l 1
 450 740 l 1
 708 483 l 1
 655 431 l 1
 608 478 l 1
 608 213 l 1
 794 281 l 1
 816 219 l 1
 608 143 l 1
 608 -175 l 1
 549 -175 l 1
 549 122 l 1
 480 97 l 1
 480 -175 l 1
 421 -175 l 1
 421 75 l 1
 352 50 l 1
 352 -175 l 1
 292 -175 l 1
 292 28 l 1
 107 -39 l 1
EndSplineSet
EndChar

StartChar: uni21DA0338
Encoding: 184 -1 184
Width: 1080
Flags: W
HStem: 117 59<337 601 693 990> 245 60<209 648 740 990> 374 59<337 695 787 990>
CounterMasks: 1 e0
LayerCount: 2
Back
Fore
SplineSet
209 305 m 1
 670 305 l 1
 695 374 l 1
 278 374 l 1
 209 305 l 1
278 176 m 1
 623 176 l 1
 648 245 l 1
 209 245 l 1
 278 176 l 1
596 -91 m 1
 534 -68 l 1
 601 117 l 1
 337 117 l 1
 384 70 l 1
 332 18 l 1
 75 275 l 1
 332 532 l 1
 384 480 l 1
 337 433 l 1
 716 433 l 1
 792 641 l 1
 854 618 l 1
 787 433 l 1
 990 433 l 1
 990 374 l 1
 765 374 l 1
 740 305 l 1
 990 305 l 1
 990 245 l 1
 718 245 l 1
 693 176 l 1
 990 176 l 1
 990 117 l 1
 672 117 l 1
 596 -91 l 1
EndSplineSet
EndChar

StartChar: uni290B0338
Encoding: 185 -1 185
Width: 901
Flags: W
VStem: 292 60<73 336 428 725> 421 59<-56 383 475 725> 549 59<72 430 521 725>
LayerCount: 2
Back
Fore
SplineSet
421 -57 m 1
 421 383 l 1
 352 358 l 1
 352 12 l 1
 421 -57 l 1
549 13 m 1
 549 430 l 1
 480 405 l 1
 480 -56 l 1
 549 13 l 1
794 589 m 1
 816 527 l 1
 608 451 l 1
 608 72 l 1
 655 119 l 1
 708 67 l 1
 450 -190 l 1
 193 67 l 1
 246 119 l 1
 292 73 l 1
 292 336 l 1
 107 269 l 1
 84 331 l 1
 292 407 l 1
 292 725 l 1
 352 725 l 1
 352 428 l 1
 421 453 l 1
 421 725 l 1
 480 725 l 1
 480 475 l 1
 549 500 l 1
 549 725 l 1
 608 725 l 1
 608 521 l 1
 794 589 l 1
EndSplineSet
EndChar

StartChar: uni27F60338
Encoding: 186 -1 186
Width: 1680
Flags: W
HStem: 1 21G<644.217 706.257> 238 74<90 714 812 1464> 529 20G<819.743 881.783>
LayerCount: 2
Back
Fore
SplineSet
827 549 m 1
 890 526 l 1
 812 312 l 1
 1464 312 l 1
 1373 403 l 1
 1425 455 l 1
 1605 275 l 1
 1425 95 l 1
 1373 147 l 1
 1464 238 l 1
 785 238 l 1
 699 1 l 1
 636 24 l 1
 714 238 l 1
 90 238 l 1
 90 312 l 1
 741 312 l 1
 827 549 l 1
EndSplineSet
EndChar

StartChar: uni27F50338
Encoding: 187 -1 187
Width: 1680
Flags: W
HStem: 1 21G<798.217 860.257> 238 74<216 868 966 1590> 529 20G<973.743 1035.78>
LayerCount: 2
Back
Fore
SplineSet
853 1 m 1
 790 24 l 1
 868 238 l 1
 216 238 l 1
 307 147 l 1
 255 95 l 1
 75 275 l 1
 255 455 l 1
 307 403 l 1
 216 312 l 1
 895 312 l 1
 981 549 l 1
 1044 526 l 1
 966 312 l 1
 1590 312 l 1
 1590 238 l 1
 939 238 l 1
 853 1 l 1
EndSplineSet
EndChar

StartChar: uni27F90338
Encoding: 188 -1 188
Width: 1680
Flags: W
HStem: 142 74<90 603 700 1368> 334 74<90 672 769 1368>
LayerCount: 2
Back
Fore
SplineSet
1442 334 m 1
 742 334 l 1
 700 216 l 1
 1442 216 l 1
 1501 275 l 1
 1442 334 l 1
773 610 m 1
 835 588 l 1
 769 408 l 1
 1368 408 l 1
 1327 449 l 1
 1379 501 l 1
 1605 275 l 1
 1379 49 l 1
 1327 101 l 1
 1368 142 l 1
 673 142 l 1
 599 -60 l 1
 537 -38 l 1
 603 142 l 1
 90 142 l 1
 90 216 l 1
 630 216 l 1
 672 334 l 1
 90 334 l 1
 90 408 l 1
 699 408 l 1
 773 610 l 1
EndSplineSet
EndChar

StartChar: uni27F80338
Encoding: 189 -1 189
Width: 1680
Flags: W
HStem: 142 74<312 911 1008 1590> 334 74<312 980 1077 1590>
LayerCount: 2
Back
Fore
SplineSet
238 216 m 1
 938 216 l 1
 980 334 l 1
 238 334 l 1
 179 275 l 1
 238 216 l 1
907 -60 m 1
 845 -38 l 1
 911 142 l 1
 312 142 l 1
 353 101 l 1
 301 49 l 1
 75 275 l 1
 301 501 l 1
 353 449 l 1
 312 408 l 1
 1007 408 l 1
 1081 610 l 1
 1143 588 l 1
 1077 408 l 1
 1590 408 l 1
 1590 334 l 1
 1050 334 l 1
 1008 216 l 1
 1590 216 l 1
 1590 142 l 1
 981 142 l 1
 907 -60 l 1
EndSplineSet
EndChar

StartChar: uni27F70338
Encoding: 190 -1 190
Width: 1680
Flags: W
HStem: 1 21G<721.217 783.257> 238 74<216 791 889 1464> 529 20G<896.743 958.783>
LayerCount: 2
Back
Fore
SplineSet
904 549 m 1
 967 526 l 1
 889 312 l 1
 1464 312 l 1
 1373 403 l 1
 1425 455 l 1
 1605 275 l 1
 1425 95 l 1
 1373 147 l 1
 1464 238 l 1
 862 238 l 1
 776 1 l 1
 713 24 l 1
 791 238 l 1
 216 238 l 1
 307 147 l 1
 255 95 l 1
 75 275 l 1
 255 455 l 1
 307 403 l 1
 216 312 l 1
 818 312 l 1
 904 549 l 1
EndSplineSet
EndChar

StartChar: uni27FA0338
Encoding: 191 -1 191
Width: 1680
Flags: W
HStem: 142 74<312 757 854 1368> 334 74<312 826 923 1368>
LayerCount: 2
Back
Fore
SplineSet
238 334 m 1
 179 275 l 1
 238 216 l 1
 784 216 l 1
 826 334 l 1
 238 334 l 1
1442 334 m 1
 896 334 l 1
 854 216 l 1
 1442 216 l 1
 1501 275 l 1
 1442 334 l 1
927 610 m 1
 989 588 l 1
 923 408 l 1
 1368 408 l 1
 1327 449 l 1
 1379 501 l 1
 1605 275 l 1
 1379 49 l 1
 1327 101 l 1
 1368 142 l 1
 827 142 l 1
 753 -60 l 1
 691 -38 l 1
 757 142 l 1
 312 142 l 1
 353 101 l 1
 301 49 l 1
 75 275 l 1
 301 501 l 1
 353 449 l 1
 312 408 l 1
 853 408 l 1
 927 610 l 1
EndSplineSet
EndChar

StartChar: uni27FC0338
Encoding: 192 -1 192
Width: 1680
Flags: W
HStem: 1 21G<644.217 706.257> 238 74<164 714 812 1464> 529 20G<819.743 881.783>
VStem: 90 74<84 238 312 466>
LayerCount: 2
Back
Fore
SplineSet
827 549 m 1
 890 526 l 1
 812 312 l 1
 1464 312 l 1
 1373 403 l 1
 1425 455 l 1
 1605 275 l 1
 1425 95 l 1
 1373 147 l 1
 1464 238 l 1
 785 238 l 1
 699 1 l 1
 636 24 l 1
 714 238 l 1
 164 238 l 1
 164 84 l 1
 90 84 l 1
 90 466 l 1
 164 466 l 1
 164 312 l 1
 741 312 l 1
 827 549 l 1
EndSplineSet
EndChar

StartChar: uni27FB0338
Encoding: 193 -1 193
Width: 1680
Flags: W
HStem: 1 21G<798.217 860.257> 238 74<216 868 966 1516> 529 20G<973.743 1035.78>
VStem: 1516 74<84 238 312 466>
LayerCount: 2
Back
Fore
SplineSet
853 1 m 1
 790 24 l 1
 868 238 l 1
 216 238 l 1
 307 147 l 1
 255 95 l 1
 75 275 l 1
 255 455 l 1
 307 403 l 1
 216 312 l 1
 895 312 l 1
 981 549 l 1
 1044 526 l 1
 966 312 l 1
 1516 312 l 1
 1516 466 l 1
 1590 466 l 1
 1590 84 l 1
 1516 84 l 1
 1516 238 l 1
 939 238 l 1
 853 1 l 1
EndSplineSet
EndChar

StartChar: uni27FE0338
Encoding: 194 -1 194
Width: 1680
Flags: W
HStem: 142 74<164 603 700 1368> 334 74<164 672 769 1368>
VStem: 90 74<38 142 216 334 408 512>
LayerCount: 2
Back
Fore
SplineSet
1442 334 m 1
 742 334 l 1
 700 216 l 1
 1442 216 l 1
 1501 275 l 1
 1442 334 l 1
164 334 m 1
 164 216 l 1
 630 216 l 1
 672 334 l 1
 164 334 l 1
773 610 m 1
 835 588 l 1
 769 408 l 1
 1368 408 l 1
 1327 449 l 1
 1379 501 l 1
 1605 275 l 1
 1379 49 l 1
 1327 101 l 1
 1368 142 l 1
 673 142 l 1
 599 -60 l 1
 537 -38 l 1
 603 142 l 1
 164 142 l 1
 164 38 l 1
 90 38 l 1
 90 512 l 1
 164 512 l 1
 164 408 l 1
 699 408 l 1
 773 610 l 1
EndSplineSet
EndChar

StartChar: uni27FD0338
Encoding: 195 -1 195
Width: 1680
Flags: W
HStem: 142 74<312 911 1008 1516> 334 74<312 980 1077 1516>
VStem: 1516 74<38 142 216 334 408 512>
LayerCount: 2
Back
Fore
SplineSet
238 216 m 1
 938 216 l 1
 980 334 l 1
 238 334 l 1
 179 275 l 1
 238 216 l 1
1516 216 m 1
 1516 334 l 1
 1050 334 l 1
 1008 216 l 1
 1516 216 l 1
907 -60 m 1
 845 -38 l 1
 911 142 l 1
 312 142 l 1
 353 101 l 1
 301 49 l 1
 75 275 l 1
 301 501 l 1
 353 449 l 1
 312 408 l 1
 1007 408 l 1
 1081 610 l 1
 1143 588 l 1
 1077 408 l 1
 1516 408 l 1
 1516 512 l 1
 1590 512 l 1
 1590 38 l 1
 1516 38 l 1
 1516 142 l 1
 981 142 l 1
 907 -60 l 1
EndSplineSet
EndChar

StartChar: uni27FF0338
Encoding: 196 -1 196
Width: 1680
Flags: W
HStem: 1 21G<644.217 706.236> 161 74<418.696 499.017 816.606 897.017 1214.43 1288.72> 238 74<1353.21 1464> 315 74<211.565 300.017 617.696 698.466 1015.43 1095.84> 529 20G<819.692 881.783>
LayerCount: 2
Back
Fore
SplineSet
827 549 m 1
 890 526 l 1
 800 278 l 1
 815 256 831 235 857 235 c 0
 890 235 907 269 926 296 c 0
 958 343 999 389 1056 389 c 0
 1112 389 1153 343 1185 296 c 0
 1204 269 1222 235 1255 235 c 0
 1272 235 1283 251 1295 263 c 0
 1320 288 1351 312 1387 312 c 2
 1464 312 l 1
 1373 403 l 1
 1425 455 l 1
 1605 275 l 1
 1425 95 l 1
 1373 147 l 1
 1464 238 l 1
 1387 238 l 2
 1370 238 1359 222 1347 210 c 0
 1321 185 1291 161 1255 161 c 0
 1198 161 1157 207 1125 254 c 0
 1106 281 1088 315 1056 315 c 0
 1023 315 1005 281 986 254 c 0
 954 207 913 161 857 161 c 0
 823 161 795 177 771 200 c 1
 699 1 l 1
 636 24 l 1
 722 261 l 1
 705 287 688 315 658 315 c 0
 625 315 608 281 588 254 c 0
 556 207 515 161 459 161 c 0
 402 161 362 207 329 254 c 0
 310 281 293 315 260 315 c 0
 208 315 187 258 157 215 c 1
 97 258 l 1
 140 319 186 389 260 389 c 0
 316 389 357 343 389 296 c 0
 409 269 426 235 459 235 c 0
 492 235 509 269 528 296 c 0
 561 343 601 389 658 389 c 0
 695 389 725 368 751 341 c 1
 827 549 l 1
EndSplineSet
EndChar

StartChar: uni2B330338
Encoding: 197 -1 197
Width: 1680
Flags: W
HStem: 1 21G<798.217 860.273> 161 74<391.282 465.568 783.164 839.81 1180.98 1261.3> 238 74<216 326.787> 315 74<584.164 664.568 993.735 1062.57 1379.98 1468.43> 529 20G<973.707 1035.78>
LayerCount: 2
Back
Fore
SplineSet
853 1 m 1
 790 24 l 1
 840 162 l 1
 834 161 829 161 823 161 c 0
 767 161 726 207 694 254 c 0
 675 281 657 315 624 315 c 0
 592 315 574 281 555 254 c 0
 523 207 482 161 425 161 c 0
 389 161 359 185 333 210 c 0
 321 222 310 238 293 238 c 2
 216 238 l 1
 307 147 l 1
 255 95 l 1
 75 275 l 1
 255 455 l 1
 307 403 l 1
 216 312 l 1
 293 312 l 2
 329 312 360 288 385 263 c 0
 397 251 408 235 425 235 c 0
 458 235 476 269 495 296 c 0
 527 343 568 389 624 389 c 0
 681 389 722 343 754 296 c 0
 773 269 791 235 823 235 c 0
 851 235 868 259 884 283 c 1
 981 549 l 1
 1044 526 l 1
 993 385 l 1
 1002 388 1012 389 1022 389 c 0
 1079 389 1120 343 1152 296 c 0
 1171 269 1188 235 1221 235 c 0
 1254 235 1271 269 1291 296 c 0
 1323 343 1364 389 1420 389 c 0
 1494 389 1540 319 1583 258 c 1
 1523 215 l 1
 1493 258 1472 315 1420 315 c 0
 1387 315 1370 281 1351 254 c 0
 1318 207 1278 161 1221 161 c 0
 1165 161 1124 207 1092 254 c 0
 1073 281 1055 315 1022 315 c 0
 989 315 972 281 953 254 c 0
 948 246 943 239 937 232 c 1
 853 1 l 1
EndSplineSet
EndChar

StartChar: uni27DD0338
Encoding: 198 -1 198
Width: 1680
Flags: W
HStem: 1 21G<721.217 783.257> 238 74<164 791 889 1590> 529 20G<896.743 958.783>
VStem: 90 74<84 238 312 466>
LayerCount: 2
Back
Fore
SplineSet
904 549 m 1
 967 526 l 1
 889 312 l 1
 1590 312 l 1
 1590 238 l 1
 862 238 l 1
 776 1 l 1
 713 24 l 1
 791 238 l 1
 164 238 l 1
 164 84 l 1
 90 84 l 1
 90 466 l 1
 164 466 l 1
 164 312 l 1
 818 312 l 1
 904 549 l 1
EndSplineSet
EndChar

StartChar: uni27DE0338
Encoding: 199 -1 199
Width: 1680
Flags: W
HStem: 1 21G<721.217 783.257> 238 74<90 791 889 1516> 529 20G<896.743 958.783>
VStem: 1516 74<84 238 312 466>
LayerCount: 2
Back
Fore
SplineSet
776 1 m 1
 713 24 l 1
 791 238 l 1
 90 238 l 1
 90 312 l 1
 818 312 l 1
 904 549 l 1
 967 526 l 1
 889 312 l 1
 1516 312 l 1
 1516 466 l 1
 1590 466 l 1
 1590 84 l 1
 1516 84 l 1
 1516 238 l 1
 862 238 l 1
 776 1 l 1
EndSplineSet
EndChar

StartChar: uni22AC
Encoding: 224 8876 200
Width: 840
Flags: W
HStem: 0 17G<90 164 331 401.358> 317 74<164 412 502 750> 691 16G<90 164 512.625 583>
VStem: 90 74<0 317 391 707>
LayerCount: 2
Back
Fore
SplineSet
518 711 m 1
 583 694 l 1
 502 391 l 1
 750 391 l 1
 750 317 l 1
 482 317 l 1
 396 -4 l 1
 331 13 l 1
 412 317 l 1
 164 317 l 1
 164 0 l 1
 90 0 l 1
 90 707 l 1
 164 707 l 1
 164 391 l 1
 432 391 l 1
 518 711 l 1
EndSplineSet
EndChar

StartChar: uni22A50338
Encoding: 225 -1 201
Width: 840
Flags: W
HStem: 0 74<90 383 457 750> 687 20G<383 457>
VStem: 383 74<74 341 440 707>
LayerCount: 2
Back
Fore
SplineSet
107 241 m 1
 84 304 l 1
 383 413 l 1
 383 707 l 1
 457 707 l 1
 457 440 l 1
 733 540 l 1
 756 477 l 1
 457 368 l 1
 457 74 l 1
 750 74 l 1
 750 0 l 1
 90 0 l 1
 90 74 l 1
 383 74 l 1
 383 341 l 1
 107 241 l 1
EndSplineSet
EndChar

StartChar: uni22A30338
Encoding: 226 -1 202
Width: 840
Flags: W
HStem: 0 17G<257 327.358 676 750> 317 74<90 338 428 676> 691 16G<438.625 509 676 750>
VStem: 676 74<0 317 391 707>
LayerCount: 2
Back
Fore
SplineSet
322 -4 m 1
 257 13 l 1
 338 317 l 1
 90 317 l 1
 90 391 l 1
 358 391 l 1
 444 711 l 1
 509 694 l 1
 428 391 l 1
 676 391 l 1
 676 707 l 1
 750 707 l 1
 750 0 l 1
 676 0 l 1
 676 317 l 1
 408 317 l 1
 322 -4 l 1
EndSplineSet
EndChar

StartChar: uni22A40338
Encoding: 227 -1 203
Width: 840
Flags: W
HStem: 0 21G<383 457> 633 74<90 383 457 750>
VStem: 383 74<0 267 366 633>
LayerCount: 2
Back
Fore
SplineSet
733 466 m 1
 756 403 l 1
 457 294 l 1
 457 0 l 1
 383 0 l 1
 383 267 l 1
 107 167 l 1
 84 230 l 1
 383 339 l 1
 383 633 l 1
 90 633 l 1
 90 707 l 1
 750 707 l 1
 750 633 l 1
 457 633 l 1
 457 366 l 1
 733 466 l 1
EndSplineSet
EndChar

StartChar: uni22A60338
Encoding: 228 -1 204
Width: 642
Flags: W
HStem: 0 17G<90 164 232 302.358> 317 74<164 313 403 552> 691 16G<90 164 413.625 484>
VStem: 90 74<0 317 391 707>
LayerCount: 2
Back
Fore
SplineSet
419 711 m 1
 484 694 l 1
 403 391 l 1
 552 391 l 1
 552 317 l 1
 383 317 l 1
 297 -4 l 1
 232 13 l 1
 313 317 l 1
 164 317 l 1
 164 0 l 1
 90 0 l 1
 90 707 l 1
 164 707 l 1
 164 391 l 1
 333 391 l 1
 419 711 l 1
EndSplineSet
EndChar

StartChar: uni2AE00338
Encoding: 229 -1 205
Width: 840
Flags: W
HStem: 0 74<90 383 457 750>
VStem: 383 74<74 235 334 495>
LayerCount: 2
Back
Fore
SplineSet
107 135 m 1
 84 198 l 1
 383 307 l 1
 383 495 l 1
 457 495 l 1
 457 334 l 1
 733 434 l 1
 756 371 l 1
 457 262 l 1
 457 74 l 1
 750 74 l 1
 750 0 l 1
 90 0 l 1
 90 74 l 1
 383 74 l 1
 383 235 l 1
 107 135 l 1
EndSplineSet
EndChar

StartChar: uni2ADE0338
Encoding: 230 -1 206
Width: 642
Flags: W
HStem: 0 17G<158 228.358 478 552> 317 74<90 239 329 478> 691 16G<339.625 410 478 552>
VStem: 478 74<0 317 391 707>
LayerCount: 2
Back
Fore
SplineSet
223 -4 m 1
 158 13 l 1
 239 317 l 1
 90 317 l 1
 90 391 l 1
 259 391 l 1
 345 711 l 1
 410 694 l 1
 329 391 l 1
 478 391 l 1
 478 707 l 1
 552 707 l 1
 552 0 l 1
 478 0 l 1
 478 317 l 1
 309 317 l 1
 223 -4 l 1
EndSplineSet
EndChar

StartChar: uni2ADF0338
Encoding: 231 -1 207
Width: 840
Flags: W
HStem: 0 21G<383 457> 421 74<90 383 457 750>
VStem: 383 74<0 161 260 421>
LayerCount: 2
Back
Fore
SplineSet
733 360 m 1
 756 297 l 1
 457 188 l 1
 457 0 l 1
 383 0 l 1
 383 161 l 1
 107 61 l 1
 84 124 l 1
 383 233 l 1
 383 421 l 1
 90 421 l 1
 90 495 l 1
 750 495 l 1
 750 421 l 1
 457 421 l 1
 457 260 l 1
 733 360 l 1
EndSplineSet
EndChar

StartChar: uni22AD
Encoding: 232 8877 208
Width: 840
Flags: W
HStem: 0 17G<90 164 331 401.357> 220 74<164 386 476 750> 413 74<164 438 528 750> 691 16G<90 164 512.643 583>
VStem: 90 74<0 220 294 413 487 707>
LayerCount: 2
Back
Fore
SplineSet
164 413 m 1
 164 294 l 1
 406 294 l 1
 438 413 l 1
 164 413 l 1
518 711 m 1
 583 694 l 1
 528 487 l 1
 750 487 l 1
 750 413 l 1
 508 413 l 1
 476 294 l 1
 750 294 l 1
 750 220 l 1
 456 220 l 1
 396 -4 l 1
 331 13 l 1
 386 220 l 1
 164 220 l 1
 164 0 l 1
 90 0 l 1
 90 707 l 1
 164 707 l 1
 164 487 l 1
 458 487 l 1
 518 711 l 1
EndSplineSet
EndChar

StartChar: uni2AEB0338
Encoding: 233 -1 209
Width: 840
Flags: W
HStem: 0 74<90 287 361 479 553 750> 687 20G<287 361 479 553>
VStem: 287 74<74 306 405 707> 479 74<74 376 475 707>
LayerCount: 2
Back
Fore
SplineSet
361 74 m 1
 479 74 l 1
 479 376 l 1
 361 333 l 1
 361 74 l 1
107 241 m 1
 84 304 l 1
 287 378 l 1
 287 707 l 1
 361 707 l 1
 361 405 l 1
 479 448 l 1
 479 707 l 1
 553 707 l 1
 553 475 l 1
 733 540 l 1
 756 477 l 1
 553 403 l 1
 553 74 l 1
 750 74 l 1
 750 0 l 1
 90 0 l 1
 90 74 l 1
 287 74 l 1
 287 306 l 1
 107 241 l 1
EndSplineSet
EndChar

StartChar: uni2AE40338
Encoding: 234 -1 210
Width: 840
Flags: W
HStem: 0 17G<257 327.357 676 750> 220 74<90 312 402 676> 413 74<90 364 454 676> 691 16G<438.643 509 676 750>
VStem: 676 74<0 220 294 413 487 707>
LayerCount: 2
Back
Fore
SplineSet
676 294 m 1
 676 413 l 1
 434 413 l 1
 402 294 l 1
 676 294 l 1
322 -4 m 1
 257 13 l 1
 312 220 l 1
 90 220 l 1
 90 294 l 1
 332 294 l 1
 364 413 l 1
 90 413 l 1
 90 487 l 1
 384 487 l 1
 444 711 l 1
 509 694 l 1
 454 487 l 1
 676 487 l 1
 676 707 l 1
 750 707 l 1
 750 0 l 1
 676 0 l 1
 676 220 l 1
 382 220 l 1
 322 -4 l 1
EndSplineSet
EndChar

StartChar: uni2AEA0338
Encoding: 235 -1 211
Width: 840
Flags: W
HStem: 0 21G<287 361 479 553> 633 74<90 287 361 479 553 750>
VStem: 287 74<0 232 331 633> 479 74<0 302 401 633>
LayerCount: 2
Back
Fore
SplineSet
479 633 m 1
 361 633 l 1
 361 331 l 1
 479 374 l 1
 479 633 l 1
733 466 m 1
 756 403 l 1
 553 329 l 1
 553 0 l 1
 479 0 l 1
 479 302 l 1
 361 259 l 1
 361 0 l 1
 287 0 l 1
 287 232 l 1
 107 167 l 1
 84 230 l 1
 287 304 l 1
 287 633 l 1
 90 633 l 1
 90 707 l 1
 750 707 l 1
 750 633 l 1
 553 633 l 1
 553 401 l 1
 733 466 l 1
EndSplineSet
EndChar

StartChar: uni22A70338
Encoding: 236 -1 212
Width: 642
Flags: W
HStem: 0 17G<90 164 232 302.357> 220 74<164 287 377 552> 413 74<164 339 429 552> 691 16G<90 164 413.643 484>
VStem: 90 74<0 220 294 413 487 707>
LayerCount: 2
Back
Fore
SplineSet
164 413 m 1
 164 294 l 1
 307 294 l 1
 339 413 l 1
 164 413 l 1
419 711 m 1
 484 694 l 1
 429 487 l 1
 552 487 l 1
 552 413 l 1
 409 413 l 1
 377 294 l 1
 552 294 l 1
 552 220 l 1
 357 220 l 1
 297 -4 l 1
 232 13 l 1
 287 220 l 1
 164 220 l 1
 164 0 l 1
 90 0 l 1
 90 707 l 1
 164 707 l 1
 164 487 l 1
 359 487 l 1
 419 711 l 1
EndSplineSet
EndChar

StartChar: sym07E_uni0338
Encoding: 237 -1 213
Width: 840
Flags: W
HStem: 0 74<90 287 361 479 553 750>
VStem: 287 74<74 200 299 495> 479 74<74 270 369 495>
LayerCount: 2
Back
Fore
SplineSet
361 74 m 1
 479 74 l 1
 479 270 l 1
 361 227 l 1
 361 74 l 1
107 135 m 1
 84 198 l 1
 287 272 l 1
 287 495 l 1
 361 495 l 1
 361 299 l 1
 479 342 l 1
 479 495 l 1
 553 495 l 1
 553 369 l 1
 733 434 l 1
 756 371 l 1
 553 297 l 1
 553 74 l 1
 750 74 l 1
 750 0 l 1
 90 0 l 1
 90 74 l 1
 287 74 l 1
 287 200 l 1
 107 135 l 1
EndSplineSet
EndChar

StartChar: sym07D_uni0338
Encoding: 238 -1 214
Width: 642
Flags: W
HStem: 0 17G<158 228.357 478 552> 220 74<90 213 303 478> 413 74<90 265 355 478> 691 16G<339.643 410 478 552>
VStem: 478 74<0 220 294 413 487 707>
LayerCount: 2
Back
Fore
SplineSet
478 294 m 1
 478 413 l 1
 335 413 l 1
 303 294 l 1
 478 294 l 1
223 -4 m 1
 158 13 l 1
 213 220 l 1
 90 220 l 1
 90 294 l 1
 233 294 l 1
 265 413 l 1
 90 413 l 1
 90 487 l 1
 285 487 l 1
 345 711 l 1
 410 694 l 1
 355 487 l 1
 478 487 l 1
 478 707 l 1
 552 707 l 1
 552 0 l 1
 478 0 l 1
 478 220 l 1
 283 220 l 1
 223 -4 l 1
EndSplineSet
EndChar

StartChar: sym07F_uni0338
Encoding: 239 -1 215
Width: 840
Flags: W
HStem: 0 21G<287 361 479 553> 421 74<90 287 361 479 553 750>
VStem: 287 74<0 126 225 421> 479 74<0 196 295 421>
LayerCount: 2
Back
Fore
SplineSet
479 421 m 1
 361 421 l 1
 361 225 l 1
 479 268 l 1
 479 421 l 1
733 360 m 1
 756 297 l 1
 553 223 l 1
 553 0 l 1
 479 0 l 1
 479 196 l 1
 361 153 l 1
 361 0 l 1
 287 0 l 1
 287 126 l 1
 107 61 l 1
 84 124 l 1
 287 198 l 1
 287 421 l 1
 90 421 l 1
 90 495 l 1
 750 495 l 1
 750 421 l 1
 553 421 l 1
 553 295 l 1
 733 360 l 1
EndSplineSet
EndChar

StartChar: uni22AE
Encoding: 240 8878 216
Width: 1038
Flags: W
HStem: 0 21G<90 164 288 362 529 599.358> 317 74<362 610 700 948> 687 20G<90 164 288 362 710.625 781>
VStem: 90 74<0 707> 288 74<0 317 391 707>
LayerCount: 2
Back
Fore
SplineSet
164 0 m 1
 90 0 l 1
 90 707 l 1
 164 707 l 1
 164 0 l 1
716 711 m 1
 781 694 l 1
 700 391 l 1
 948 391 l 1
 948 317 l 1
 680 317 l 1
 594 -4 l 1
 529 13 l 1
 610 317 l 1
 362 317 l 1
 362 0 l 1
 288 0 l 1
 288 707 l 1
 362 707 l 1
 362 391 l 1
 630 391 l 1
 716 711 l 1
EndSplineSet
EndChar

StartChar: uni234A0338
Encoding: 241 -1 217
Width: 840
Flags: W
HStem: -106 74<90 750> 92 74<90 383 457 750>
VStem: 383 74<166 440 539 813>
LayerCount: 2
Back
Fore
SplineSet
750 -32 m 1
 750 -106 l 1
 90 -106 l 1
 90 -32 l 1
 750 -32 l 1
107 340 m 1
 84 403 l 1
 383 512 l 1
 383 813 l 1
 457 813 l 1
 457 539 l 1
 733 639 l 1
 756 576 l 1
 457 467 l 1
 457 166 l 1
 750 166 l 1
 750 92 l 1
 90 92 l 1
 90 166 l 1
 383 166 l 1
 383 440 l 1
 107 340 l 1
EndSplineSet
EndChar

StartChar: uni2AE30338
Encoding: 242 -1 218
Width: 1038
Flags: W
HStem: 0 21G<257 327.358 676 750 874 948> 317 74<90 338 428 676> 687 20G<438.625 509 676 750 874 948>
VStem: 676 74<0 317 391 707> 874 74<0 707>
LayerCount: 2
Back
Fore
SplineSet
874 707 m 1
 948 707 l 1
 948 0 l 1
 874 0 l 1
 874 707 l 1
322 -4 m 1
 257 13 l 1
 338 317 l 1
 90 317 l 1
 90 391 l 1
 358 391 l 1
 444 711 l 1
 509 694 l 1
 428 391 l 1
 676 391 l 1
 676 707 l 1
 750 707 l 1
 750 0 l 1
 676 0 l 1
 676 317 l 1
 408 317 l 1
 322 -4 l 1
EndSplineSet
EndChar

StartChar: uni23510338
Encoding: 243 -1 219
Width: 840
Flags: W
HStem: 541 74<90 383 457 750> 739 74<90 750>
VStem: 383 74<-106 168 267 541>
LayerCount: 2
Back
Fore
SplineSet
90 739 m 1
 90 813 l 1
 750 813 l 1
 750 739 l 1
 90 739 l 1
733 367 m 1
 756 304 l 1
 457 195 l 1
 457 -106 l 1
 383 -106 l 1
 383 168 l 1
 107 68 l 1
 84 131 l 1
 383 240 l 1
 383 541 l 1
 90 541 l 1
 90 615 l 1
 750 615 l 1
 750 541 l 1
 457 541 l 1
 457 267 l 1
 733 367 l 1
EndSplineSet
EndChar

StartChar: uni22AE.alt
Encoding: 244 -1 220
Width: 840
Flags: W
HStem: 0 21G<90 164 288 362 430 500.358> 317 74<362 511 601 750> 687 20G<90 164 288 362 611.625 682>
VStem: 90 74<0 707> 288 74<0 317 391 707>
LayerCount: 2
Back
Fore
SplineSet
164 0 m 1
 90 0 l 1
 90 707 l 1
 164 707 l 1
 164 0 l 1
617 711 m 1
 682 694 l 1
 601 391 l 1
 750 391 l 1
 750 317 l 1
 581 317 l 1
 495 -4 l 1
 430 13 l 1
 511 317 l 1
 362 317 l 1
 362 0 l 1
 288 0 l 1
 288 707 l 1
 362 707 l 1
 362 391 l 1
 531 391 l 1
 617 711 l 1
EndSplineSet
EndChar

StartChar: uni2AE80338
Encoding: 245 -1 221
Width: 840
Flags: W
HStem: 0 74<90 750> 198 74<90 383 457 750> 687 20G<383 457>
VStem: 383 74<272 440 539 707>
LayerCount: 2
Back
Fore
SplineSet
750 74 m 1
 750 0 l 1
 90 0 l 1
 90 74 l 1
 750 74 l 1
107 340 m 1
 84 403 l 1
 383 512 l 1
 383 707 l 1
 457 707 l 1
 457 539 l 1
 733 639 l 1
 756 576 l 1
 457 467 l 1
 457 272 l 1
 750 272 l 1
 750 198 l 1
 90 198 l 1
 90 272 l 1
 383 272 l 1
 383 440 l 1
 107 340 l 1
EndSplineSet
EndChar

StartChar: uni2AE30338.alt
Encoding: 246 -1 222
Width: 840
Flags: W
HStem: 0 21G<158 228.358 478 552 676 750> 317 74<90 239 329 478> 687 20G<339.625 410 478 552 676 750>
VStem: 478 74<0 317 391 707> 676 74<0 707>
LayerCount: 2
Back
Fore
SplineSet
676 707 m 1
 750 707 l 1
 750 0 l 1
 676 0 l 1
 676 707 l 1
223 -4 m 1
 158 13 l 1
 239 317 l 1
 90 317 l 1
 90 391 l 1
 259 391 l 1
 345 711 l 1
 410 694 l 1
 329 391 l 1
 478 391 l 1
 478 707 l 1
 552 707 l 1
 552 0 l 1
 478 0 l 1
 478 317 l 1
 309 317 l 1
 223 -4 l 1
EndSplineSet
EndChar

StartChar: uni2AE70338
Encoding: 247 -1 223
Width: 840
Flags: W
HStem: 0 21G<383 457> 435 74<90 383 457 750> 633 74<90 750>
VStem: 383 74<0 168 267 435>
LayerCount: 2
Back
Fore
SplineSet
90 633 m 1
 90 707 l 1
 750 707 l 1
 750 633 l 1
 90 633 l 1
733 367 m 1
 756 304 l 1
 457 195 l 1
 457 0 l 1
 383 0 l 1
 383 168 l 1
 107 68 l 1
 84 131 l 1
 383 240 l 1
 383 435 l 1
 90 435 l 1
 90 509 l 1
 750 509 l 1
 750 435 l 1
 457 435 l 1
 457 267 l 1
 733 367 l 1
EndSplineSet
EndChar

StartChar: uni22AF
Encoding: 248 8879 224
Width: 1038
Flags: W
HStem: 0 21G<90 164 288 362 529 599.357> 220 74<362 584 674 948> 413 74<362 636 726 948> 687 20G<90 164 288 362 710.643 781>
VStem: 90 74<0 707> 288 74<0 220 294 413 487 707>
LayerCount: 2
Back
Fore
SplineSet
362 413 m 1
 362 294 l 1
 604 294 l 1
 636 413 l 1
 362 413 l 1
164 0 m 1
 90 0 l 1
 90 707 l 1
 164 707 l 1
 164 0 l 1
716 711 m 1
 781 694 l 1
 726 487 l 1
 948 487 l 1
 948 413 l 1
 706 413 l 1
 674 294 l 1
 948 294 l 1
 948 220 l 1
 654 220 l 1
 594 -4 l 1
 529 13 l 1
 584 220 l 1
 362 220 l 1
 362 0 l 1
 288 0 l 1
 288 707 l 1
 362 707 l 1
 362 487 l 1
 656 487 l 1
 716 711 l 1
EndSplineSet
EndChar

StartChar: sym080_uni0338
Encoding: 249 -1 225
Width: 840
Flags: W
HStem: -106 74<90 750> 92 74<90 287 361 479 553 750>
VStem: 287 74<166 405 504 813> 479 74<166 475 574 813>
LayerCount: 2
Back
Fore
SplineSet
361 166 m 1
 479 166 l 1
 479 475 l 1
 361 432 l 1
 361 166 l 1
750 -32 m 1
 750 -106 l 1
 90 -106 l 1
 90 -32 l 1
 750 -32 l 1
107 340 m 1
 84 403 l 1
 287 477 l 1
 287 813 l 1
 361 813 l 1
 361 504 l 1
 479 547 l 1
 479 813 l 1
 553 813 l 1
 553 574 l 1
 733 639 l 1
 756 576 l 1
 553 502 l 1
 553 166 l 1
 750 166 l 1
 750 92 l 1
 90 92 l 1
 90 166 l 1
 287 166 l 1
 287 405 l 1
 107 340 l 1
EndSplineSet
EndChar

StartChar: uni2AE50338
Encoding: 250 -1 226
Width: 1038
Flags: W
HStem: 0 21G<257 327.357 676 750 874 948> 220 74<90 312 402 676> 413 74<90 364 454 676> 687 20G<438.643 509 676 750 874 948>
VStem: 676 74<0 220 294 413 487 707> 874 74<0 707>
LayerCount: 2
Back
Fore
SplineSet
676 294 m 1
 676 413 l 1
 434 413 l 1
 402 294 l 1
 676 294 l 1
874 707 m 1
 948 707 l 1
 948 0 l 1
 874 0 l 1
 874 707 l 1
322 -4 m 1
 257 13 l 1
 312 220 l 1
 90 220 l 1
 90 294 l 1
 332 294 l 1
 364 413 l 1
 90 413 l 1
 90 487 l 1
 384 487 l 1
 444 711 l 1
 509 694 l 1
 454 487 l 1
 676 487 l 1
 676 707 l 1
 750 707 l 1
 750 0 l 1
 676 0 l 1
 676 220 l 1
 382 220 l 1
 322 -4 l 1
EndSplineSet
EndChar

StartChar: sym081_uni0338
Encoding: 251 -1 227
Width: 840
Flags: W
HStem: 541 74<90 287 361 479 553 750> 739 74<90 750>
VStem: 287 74<-106 133 232 541> 479 74<-106 203 302 541>
LayerCount: 2
Back
Fore
SplineSet
479 541 m 1
 361 541 l 1
 361 232 l 1
 479 275 l 1
 479 541 l 1
90 739 m 1
 90 813 l 1
 750 813 l 1
 750 739 l 1
 90 739 l 1
733 367 m 1
 756 304 l 1
 553 230 l 1
 553 -106 l 1
 479 -106 l 1
 479 203 l 1
 361 160 l 1
 361 -106 l 1
 287 -106 l 1
 287 133 l 1
 107 68 l 1
 84 131 l 1
 287 205 l 1
 287 541 l 1
 90 541 l 1
 90 615 l 1
 750 615 l 1
 750 541 l 1
 553 541 l 1
 553 302 l 1
 733 367 l 1
EndSplineSet
EndChar

StartChar: uni22AA0338
Encoding: 252 -1 228
Width: 1038
Flags: W
HStem: 0 21G<90 164 288 362 486 560 628 698.358> 317 74<560 709 799 948> 687 20G<90 164 288 362 486 560 809.625 880>
VStem: 90 74<0 707> 288 74<0 707> 486 74<0 317 391 707>
CounterMasks: 1 1c
LayerCount: 2
Back
Fore
SplineSet
164 0 m 1
 90 0 l 1
 90 707 l 1
 164 707 l 1
 164 0 l 1
362 0 m 1
 288 0 l 1
 288 707 l 1
 362 707 l 1
 362 0 l 1
815 711 m 1
 880 694 l 1
 799 391 l 1
 948 391 l 1
 948 317 l 1
 779 317 l 1
 693 -4 l 1
 628 13 l 1
 709 317 l 1
 560 317 l 1
 560 0 l 1
 486 0 l 1
 486 707 l 1
 560 707 l 1
 560 391 l 1
 729 391 l 1
 815 711 l 1
EndSplineSet
EndChar

StartChar: sym082_uni0338
Encoding: 253 -1 229
Width: 1038
Flags: W
HStem: 0 21G<158 228.358 478 552 676 750 874 948> 317 74<90 239 329 478> 687 20G<339.625 410 478 552 676 750 874 948>
VStem: 478 74<0 317 391 707> 676 74<0 707> 874 74<0 707>
CounterMasks: 1 1c
LayerCount: 2
Back
Fore
SplineSet
874 707 m 1
 948 707 l 1
 948 0 l 1
 874 0 l 1
 874 707 l 1
676 707 m 1
 750 707 l 1
 750 0 l 1
 676 0 l 1
 676 707 l 1
223 -4 m 1
 158 13 l 1
 239 317 l 1
 90 317 l 1
 90 391 l 1
 259 391 l 1
 345 711 l 1
 410 694 l 1
 329 391 l 1
 478 391 l 1
 478 707 l 1
 552 707 l 1
 552 0 l 1
 478 0 l 1
 478 317 l 1
 309 317 l 1
 223 -4 l 1
EndSplineSet
EndChar

StartChar: uni2AE20338
Encoding: 254 -1 230
Width: 840
Flags: W
HStem: 0 17G<90 164 331 401.312> 124 74<164 361 450 750> 317 74<164 412 502 750> 509 74<164 464 553 750> 691 16G<90 164 512.688 583>
VStem: 90 74<0 124 198 317 391 509 583 707>
LayerCount: 2
Back
Fore
SplineSet
164 391 m 1
 432 391 l 1
 464 509 l 1
 164 509 l 1
 164 391 l 1
164 198 m 1
 381 198 l 1
 412 317 l 1
 164 317 l 1
 164 198 l 1
518 711 m 1
 583 694 l 1
 553 583 l 1
 750 583 l 1
 750 509 l 1
 533 509 l 1
 502 391 l 1
 750 391 l 1
 750 317 l 1
 482 317 l 1
 450 198 l 1
 750 198 l 1
 750 124 l 1
 430 124 l 1
 396 -4 l 1
 331 13 l 1
 361 124 l 1
 164 124 l 1
 164 0 l 1
 90 0 l 1
 90 707 l 1
 164 707 l 1
 164 583 l 1
 484 583 l 1
 518 711 l 1
EndSplineSet
EndChar

StartChar: sym083_uni0338
Encoding: 255 -1 231
Width: 840
Flags: W
HStem: 0 17G<257 327.312 676 750> 124 74<90 287 376 676> 317 74<90 338 428 676> 509 74<90 390 479 676> 691 16G<438.688 509 676 750>
VStem: 676 74<0 124 198 317 391 509 583 707>
LayerCount: 2
Back
Fore
SplineSet
676 317 m 1
 408 317 l 1
 376 198 l 1
 676 198 l 1
 676 317 l 1
676 509 m 1
 459 509 l 1
 428 391 l 1
 676 391 l 1
 676 509 l 1
322 -4 m 1
 257 13 l 1
 287 124 l 1
 90 124 l 1
 90 198 l 1
 307 198 l 1
 338 317 l 1
 90 317 l 1
 90 391 l 1
 358 391 l 1
 390 509 l 1
 90 509 l 1
 90 583 l 1
 410 583 l 1
 444 711 l 1
 509 694 l 1
 479 583 l 1
 676 583 l 1
 676 707 l 1
 750 707 l 1
 750 0 l 1
 676 0 l 1
 676 124 l 1
 356 124 l 1
 322 -4 l 1
EndSplineSet
EndChar
